<?xml version="1.0" encoding="UTF-8"?>
<!DOCTYPE svg PUBLIC "-//W3C//DTD SVG 1.1//EN" "http://www.w3.org/Graphics/SVG/1.1/DTD/svg11.dtd">
<!-- Creator: CorelDRAW 2020 (64 Bit) -->
<svg xmlns="http://www.w3.org/2000/svg" xml:space="preserve" width="6.0396mm" height="4.1503mm" version="1.1" style="shape-rendering:geometricPrecision; text-rendering:geometricPrecision; image-rendering:optimizeQuality; fill-rule:evenodd; clip-rule:evenodd"
viewBox="0 0 5740.76 3944.94"
 xmlns:xlink="http://www.w3.org/1999/xlink"
 xmlns:xodm="http://www.corel.com/coreldraw/odm/2003">
 <defs>
  <style type="text/css">
   <![CDATA[
    .str0 {stroke:#767778;stroke-width:72.43;stroke-miterlimit:22.9256}
    .fil1 {fill:#545455}
    .fil2 {fill:#565759}
    .fil0 {fill:#767778}
   ]]>
  </style>
 </defs>
 <g id="Camada_x0020_1">
  <metadata id="CorelCorpID_0Corel-Layer"/>
  <path class="fil0 str0" d="M2771.81 3165.99c4.28,-397.79 129.65,-449.12 490.56,-488.19 51.14,412.34 -12.26,543.13 -490.56,488.19zm-1653.33 -42.11c26.71,-320.13 134.97,-468.7 495.89,-410.43 104.75,402.74 -191.81,548.73 -495.89,410.43zm3020.18 27.76l74.05 -486.67 557.76 1.71c-38.4,133.83 -129.08,279.74 -205.31,338.48 -82.31,63.3 -267.95,111.12 -426.5,146.48zm-3643.25 -852.43c-26.71,-289.72 115.58,-297.32 451.59,-320.33 -78.61,396.37 -103.99,384.01 -315.1,387.24 -16.35,0.19 -55.89,-2.09 -68.15,-28.04 -13.02,-27.76 -45.53,-25.95 -68.34,-38.88zm745.02 -666.88c14.64,-283.35 103.7,-345.8 256.83,-469.75 140.3,151.23 182.5,200.65 81.93,470.32l-338.77 -0.57zm3717.39 -618.79c145.05,197.23 112.07,234.21 65.78,441.61 -344.09,9.98 -361.58,-19.49 -417.75,-309.49 79.94,-153.51 207.5,-131.93 351.98,-132.12zm-2253.4 -185.54c0.86,223.09 -82.79,280.4 -241.43,377.64 -316.24,-52.37 -362.91,-103.04 -401.4,-499.4l642.84 121.76zm1046.24 -336.77c130.98,256.16 127.18,103.99 0,336.67 -298.94,-150.85 -258.16,-202.84 0,-336.67zm-2103.97 -436.29c-523.26,132.98 -1003.37,727.43 -1218.38,1228.55 -244.66,570.31 -375.07,158.74 -390.76,822.39 -15.49,657.28 91.73,1230.45 1059.64,1371.41 504.25,73.48 488.09,170.14 869.82,329.16 318.42,132.69 1947.61,128.7 2315.94,31.37 891.49,-235.63 789.22,-461.86 1084.26,-1311.43 38.59,-111.02 838.74,-1138.72 -169.76,-1631.09 -407.39,-198.94 -435.72,-225.56 -748.15,-448.55 -924.76,-659.85 -1156.97,-137.92 -1849.05,-245.99 -290.29,-45.24 -653.01,-222.14 -953.56,-145.81z"/>
  <path class="fil1" d="M2462.99 1205.64c158.64,-97.24 242.29,-154.55 241.43,-377.64l-642.84 -121.76c38.5,396.37 85.17,447.03 401.4,499.4z"/>
  <path class="fil2" d="M4138.66 3151.64c158.55,-35.36 344.18,-83.17 426.5,-146.48 76.23,-58.74 166.91,-204.65 205.31,-338.48l-557.76 -1.71 -74.05 486.67z"/>
  <path class="fil1" d="M2771.81 3165.99c478.3,54.94 541.7,-75.85 490.56,-488.19 -360.91,39.07 -486.29,90.39 -490.56,488.19z"/>
  <path class="fil2" d="M1118.48 3123.88c304.07,138.3 600.63,-7.7 495.89,-410.43 -360.91,-58.27 -469.18,90.3 -495.89,410.43z"/>
  <path class="fil1" d="M4605.84 1145.66c56.18,290 73.67,319.47 417.75,309.49 46.29,-207.4 79.27,-244.38 -65.78,-441.61 -144.48,0.19 -272.04,-21.39 -351.98,132.12z"/>
  <path class="fil1" d="M1240.43 1632.33l338.77 0.57c100.56,-269.66 58.36,-319.09 -81.93,-470.32 -153.13,123.95 -242.19,186.4 -256.83,469.75z"/>
  <path class="fil1" d="M495.41 2299.21c22.81,12.93 55.32,11.12 68.34,38.88 12.26,25.95 51.8,28.23 68.15,28.04 211.11,-3.23 236.49,9.12 315.1,-387.24 -336.01,23 -478.3,30.61 -451.59,320.33z"/>
  <path class="fil2" d="M3750.65 827.9c127.18,-232.69 130.98,-80.51 0,-336.67 -258.16,133.83 -298.94,185.83 0,336.67z"/>
 </g>
</svg>
