<?xml version="1.0" encoding="UTF-8"?>
<!DOCTYPE svg PUBLIC "-//W3C//DTD SVG 1.1//EN" "http://www.w3.org/Graphics/SVG/1.1/DTD/svg11.dtd">
<!-- Creator: CorelDRAW 2020 (64 Bit) -->
<svg xmlns="http://www.w3.org/2000/svg" xml:space="preserve" width="64.2721mm" height="63.0367mm" version="1.1" style="shape-rendering:geometricPrecision; text-rendering:geometricPrecision; image-rendering:optimizeQuality; fill-rule:evenodd; clip-rule:evenodd"
viewBox="0 0 1884.27 1848.05"
 xmlns:xlink="http://www.w3.org/1999/xlink"
 xmlns:xodm="http://www.corel.com/coreldraw/odm/2003">
 <defs>
  <style type="text/css">
   <![CDATA[
    .str0 {stroke:#1D3557;stroke-width:73.29;stroke-miterlimit:22.9256}
    .fil0 {fill:none}
    .fil1 {fill:#1D3557}
    .fil2 {fill:#FEFEFE}
   ]]>
  </style>
 </defs>
 <g id="Camada_x0020_1">
  <metadata id="CorelCorpID_0Corel-Layer"/>
  <g id="_2253897049264">
   <ellipse class="fil0 str0" cx="942.14" cy="924.03" rx="905.49" ry="887.38"/>
   <path class="fil1" d="M762.81 1272.02l372.08 0c49.9,0 37.43,46.33 37.43,115.6l-2.44 149.42c-4.41,12.95 -197.98,14.56 -246.26,14.54 -61.01,-0.02 -122.77,-4.13 -183.15,-9.55 -16.61,-1.49 -14.8,-0.66 -15.47,-15.22l0.37 -164.41c0,-44.03 -12.54,-90.37 37.43,-90.37zm-91.59 260.97c-71.74,-2.58 -209.95,-41.04 -263.31,-67.95 -37.39,-18.86 -72.8,-39.83 -72.36,-93.16 1.35,-164.39 39.27,-240.53 209.77,-290.12 15.39,-4.48 54.84,-11.78 72.56,-10.6 29.01,1.93 58.09,71.38 68.65,96.46 8.44,20.03 20.96,41.06 26.83,59.18 -3.13,3.41 -0.52,0.9 -5.19,5.12l-16.57 15.14c-27.86,31.37 -20.4,69.42 -20.39,112.17 0,57.92 0,115.83 0,173.75zm555.28 -0.39c0,-59.89 0,-119.77 0,-179.66 0,-66.26 0.98,-107.38 -51.38,-127.88 5.3,-24.44 40.76,-92.99 53.33,-112.71 28.53,-44.75 55.02,-50 119.03,-31.92 177.59,50.14 209.76,125.32 214.28,285.13 1.68,59.39 -30.23,77.74 -69.95,98.34 -50.9,26.39 -195.53,67.6 -265.3,68.71zm-113.68 -314.53l-344.04 0.02 -70.65 -144.27c-32.45,-52.82 -58.52,-44.59 -106.28,-108.06 -59.44,-78.99 -96.1,-207.36 -88.53,-338.68 15.61,-270.99 169.37,-412.63 451.84,-412.73 187.1,-0.07 346.94,80.38 405.39,241.39 58.11,160.06 43.58,394.49 -60.32,517.02 -96.04,113.26 -74.39,11.16 -165.76,209.47 -7.65,16.61 -11.39,30.72 -21.65,35.85zm222.05 -197.25l-4 -2.13c86.21,-112.94 125.74,-238.25 117.21,-393.96 -4.65,-84.88 -12.57,-81.56 -23.08,-145.48 34.53,9.35 69.37,55.17 78,95.73 8,37.62 3.76,125.95 3.6,169.38 -0.41,114.97 1.97,231.48 -0.29,346.2 -9.77,-2.88 -27.62,-15.81 -39.68,-22.01 -66.22,-34.04 -74.94,-28.81 -127.38,-46.01 -0.68,-0.22 -1.65,-0.58 -2.25,-0.8 -0.58,-0.21 -1.66,-0.74 -2.12,-0.93zm-943.62 -52.57c-0.01,-95.64 0,-191.3 0,-286.95 0,-43.99 -4.71,-92.24 10.93,-130.38 11.35,-27.67 42.2,-64.1 70.52,-71.66 -10.91,67.86 -18.43,59.1 -23.31,150.02 -8.19,152.61 32.96,278.73 117.45,389.42l-48.16 14.49c-31.99,9.32 -60.57,21.4 -89.67,36.44 -11.09,5.73 -27.78,18.04 -37.65,20.94l-0.11 -122.32zm-110.88 394.16l0 25.22c0,58.86 55.45,100.37 95.63,121.94 136.93,73.52 394.83,98.79 560.24,98.79 177.9,0 430.84,-21.39 579.19,-95.61 42.53,-21.28 101.92,-64.35 101.92,-125.12 0,-220.82 -56.82,-209.37 -56.97,-258.36l0.25 -526.84c0.41,-69.1 -31.33,-118.15 -80.61,-155.88 -25.11,-19.22 -42.2,-23.05 -69.2,-31.71 -0.98,-0.31 -3.89,-1.12 -4.78,-1.52 -8.69,-3.89 -39.6,-61.41 -49.77,-76.36 -46.43,-68.26 -124.96,-120.95 -202.8,-147.21 -123.14,-41.54 -283.86,-41.84 -406.86,-0.8 -14.77,4.93 -27.77,10.02 -40.55,16.21 -6.57,3.18 -12.65,5.16 -19.79,8.59 -7.7,3.7 -11.74,6.83 -20.12,11.41l-68.15 48.52c-19.75,19.02 -39.84,38.64 -55.31,61.37 -4.37,6.43 -7.58,10.23 -11.82,16.56 -36.02,53.8 -19.6,55.87 -51.38,65.29 -48.91,14.5 -93.61,45.11 -117.18,90.93 -35.6,69.18 -25.18,115.28 -25.18,208.16l0.1 406.87c0.62,58.18 -56.85,54.61 -56.85,239.55z"/>
   <path class="fil1" d="M1309.57 744.35c-21.88,175.09 -133.44,283.39 -309.53,303.86 -199.49,23.19 -344.38,-76.81 -392.71,-217.8 -8.5,-24.8 -29.67,-103.07 -18.92,-128.1 4.44,-10.32 27.36,-29.85 40.34,-35.36 21.08,-8.94 45.15,-2.57 63.33,6.14 57.25,27.42 58.53,20.46 112,-4.24 50.11,-23.14 56.52,15.85 79.55,20.77 23.38,5 12.7,-3.01 26.28,14.94 26.85,35.49 85.16,-4.86 110.54,-11.58 26.77,-7.09 32.72,-1.84 60.25,-15.47 16.38,-8.11 38.7,-20.09 60.57,-12.16 18.29,6.62 25.89,26.34 50.05,24.92 30.64,-1.81 47.97,-59.22 103.68,-5.13 19.44,18.87 18.99,23.86 14.57,59.22zm-290.49 -246.05c35.49,-20.03 56.32,31.01 27.17,47.09 -18.63,10.27 -48.37,-5.01 -40.04,-33.22 3.52,-11.93 5.91,-9.94 12.87,-13.87zm-168.21 -111.66c-64.74,8.37 -105.68,9.72 -161.89,31.68 -47.83,18.69 -85.53,48.42 -109.53,85.81 -50.58,78.77 -60.96,221.9 -29.19,323.65 67.74,217.05 277.76,307.35 492.13,268.61 226.18,-40.87 339.3,-228.87 319.73,-449.83 -10.71,-120.98 -62.99,-195.02 -157.95,-229.95 -81.87,-30.12 -254.25,-42.78 -353.3,-29.97z"/>
   <path class="fil2" d="M1309.57 744.35c4.42,-35.36 4.87,-40.35 -14.57,-59.22 -55.71,-54.08 -73.04,3.33 -103.68,5.13 -24.16,1.42 -31.76,-18.3 -50.05,-24.92 -21.87,-7.92 -44.19,4.05 -60.57,12.16 -27.53,13.63 -33.49,8.38 -60.25,15.47 -25.38,6.72 -83.68,47.07 -110.54,11.58 -13.58,-17.95 -2.9,-9.94 -26.28,-14.94 -23.03,-4.93 -29.44,-43.92 -79.55,-20.77 -53.47,24.69 -54.74,31.66 -112,4.24 -18.18,-8.71 -42.25,-15.08 -63.33,-6.14 -12.98,5.51 -35.9,25.05 -40.34,35.36 -10.75,25.03 10.41,103.3 18.92,128.1 48.33,140.99 193.22,240.99 392.71,217.8 176.08,-20.47 287.65,-128.76 309.53,-303.86z"/>
   <path class="fil2" d="M850.87 386.64c99.05,-12.81 271.43,-0.15 353.3,29.97 94.95,34.93 147.24,108.97 157.95,229.95 19.56,220.96 -93.56,408.97 -319.73,449.83 -214.37,38.73 -424.39,-51.56 -492.13,-268.61 -31.76,-101.76 -21.39,-244.89 29.19,-323.65 24.01,-37.38 61.7,-67.12 109.53,-85.81 56.21,-21.96 97.15,-23.31 161.89,-31.68zm261.95 831.42c10.26,-5.12 14,-19.24 21.65,-35.85 91.36,-198.31 69.72,-96.21 165.76,-209.47 103.9,-122.52 118.43,-356.95 60.32,-517.02 -58.45,-161.01 -218.29,-241.46 -405.39,-241.39 -282.47,0.11 -436.24,141.75 -451.84,412.73 -7.56,131.32 29.1,259.69 88.53,338.68 47.75,63.47 73.83,55.24 106.28,108.06l70.65 144.27 344.04 -0.02z"/>
   <path class="fil2" d="M1226.5 1532.59c69.77,-1.11 214.4,-42.32 265.3,-68.71 39.72,-20.6 71.63,-38.94 69.95,-98.34 -4.51,-159.82 -36.68,-235 -214.28,-285.13 -64.01,-18.07 -90.5,-12.83 -119.03,31.92 -12.57,19.72 -48.03,88.27 -53.33,112.71 52.35,20.5 51.38,61.62 51.38,127.88 0,59.89 0,119.78 0,179.66z"/>
   <path class="fil2" d="M671.22 1532.99c0,-57.91 0,-115.83 0,-173.75 -0,-42.75 -7.46,-80.81 20.39,-112.17l16.57 -15.14c4.66,-4.22 2.06,-1.72 5.19,-5.12 -5.87,-18.12 -18.39,-39.15 -26.83,-59.18 -10.57,-25.08 -39.64,-94.53 -68.65,-96.46 -17.72,-1.18 -57.17,6.12 -72.56,10.6 -170.5,49.59 -208.42,125.73 -209.77,290.12 -0.44,53.33 34.97,74.3 72.36,93.16 53.36,26.91 191.56,65.37 263.31,67.95z"/>
   <path class="fil2" d="M762.81 1272.02c-49.97,0 -37.43,46.35 -37.43,90.37l-0.37 164.41c0.67,14.56 -1.14,13.73 15.47,15.22 60.38,5.42 122.14,9.53 183.15,9.55 48.29,0.02 241.85,-1.59 246.26,-14.54l2.44 -149.42c0,-69.26 12.47,-115.6 -37.43,-115.6l-372.08 0z"/>
   <path class="fil2" d="M1330.87 1018.69l4 2.13c0.45,0.18 1.54,0.72 2.12,0.93 0.6,0.22 1.57,0.58 2.25,0.8 52.44,17.2 61.16,11.96 127.38,46.01 12.06,6.2 29.91,19.13 39.68,22.01 2.26,-114.72 -0.11,-231.24 0.29,-346.2 0.16,-43.43 4.4,-131.76 -3.6,-169.38 -8.63,-40.56 -43.47,-86.38 -78,-95.73 10.51,63.92 18.43,60.6 23.08,145.48 8.53,155.71 -31,281.02 -117.21,393.96z"/>
   <path class="fil2" d="M391.25 968.24l0.11 122.32c9.87,-2.9 26.56,-15.2 37.65,-20.94 29.1,-15.04 57.68,-27.12 89.67,-36.44l48.16 -14.49c-84.49,-110.69 -125.64,-236.82 -117.45,-389.42 4.88,-90.92 12.4,-82.15 23.31,-150.02 -28.32,7.56 -59.17,43.99 -70.52,71.66 -15.64,38.15 -10.93,86.39 -10.93,130.38 0,95.65 -0.01,191.31 0,286.95z"/>
   <path class="fil2" d="M1019.08 498.3c-6.96,3.93 -9.35,1.94 -12.87,13.87 -8.33,28.21 21.41,43.49 40.04,33.22 29.16,-16.07 8.32,-67.12 -27.17,-47.09z"/>
  </g>
 </g>
</svg>
