<?xml version="1.0" encoding="UTF-8"?>
<!DOCTYPE svg PUBLIC "-//W3C//DTD SVG 1.1//EN" "http://www.w3.org/Graphics/SVG/1.1/DTD/svg11.dtd">
<!-- Creator: CorelDRAW 2020 (64 Bit) -->
<svg xmlns="http://www.w3.org/2000/svg" xml:space="preserve" width="3.3875mm" height="3.0206mm" version="1.1" style="shape-rendering:geometricPrecision; text-rendering:geometricPrecision; image-rendering:optimizeQuality; fill-rule:evenodd; clip-rule:evenodd"
viewBox="0 0 15.43 13.76"
 xmlns:xlink="http://www.w3.org/1999/xlink"
 xmlns:xodm="http://www.corel.com/coreldraw/odm/2003">
 <defs>
  <style type="text/css">
   <![CDATA[
    .fil0 {fill:#C3ADD1}
   ]]>
  </style>
 </defs>
 <g id="Camada_x0020_1">
  <metadata id="CorelCorpID_0Corel-Layer"/>
  <path class="fil0" d="M1.73 5.1l2.69 1.84 -1.49 4.11 4.44 -2.07c1.26,0.47 1.96,1.19 3.34,1.72l-0.66 -3.65c2.28,-1.62 2.58,-0.93 3.31,-2.78l-4.43 0.16 -1.44 -3.59c-1.92,1.25 -0.83,2.13 -2.05,3.06 -1.13,0.87 -2.43,0.04 -3.71,1.2z"/>
  <path class="fil0" d="M7.76 13.76c0.04,-0.08 1.13,-1.32 -0.39,-3.1 -1.25,1.17 -0.8,2.29 0.39,3.1z"/>
  <path class="fil0" d="M12.08 7.03c0.53,1.37 2.25,1.62 3.35,0.77 -0.48,-0.47 0.1,-0.21 -0.71,-0.53 -0,-0 -0.84,-0.2 -0.89,-0.21 -0.84,-0.17 -1.06,-0.3 -1.75,-0.03z"/>
  <path class="fil0" d="M10.18 2.66c1.24,-0.33 1.97,-1.58 1.93,-2.24 -0.07,-0.02 0.06,-1.12 -1.36,0.31 -0.77,0.77 -0.66,0.97 -0.57,1.93z"/>
  <path class="fil0" d="M4.64 2.78c-0.22,-1.52 -0.62,-2.33 -2.19,-2.26 0.23,0.73 0.35,0.93 0.74,1.43 1.03,1.34 -0.03,0.65 1.44,0.83z"/>
  <path class="fil0" d="M-0 8.57c0.53,0.24 0.1,0.49 1.43,0.23 1.56,-0.3 1,-0.43 1.31,-1.01 -0.94,-0.52 -2.13,-0.32 -2.73,0.77z"/>
 </g>
</svg>
