<?xml version="1.0" encoding="UTF-8"?>
<!DOCTYPE svg PUBLIC "-//W3C//DTD SVG 1.1//EN" "http://www.w3.org/Graphics/SVG/1.1/DTD/svg11.dtd">
<!-- Creator: CorelDRAW 2020 (64 Bit) -->
<svg xmlns="http://www.w3.org/2000/svg" xml:space="preserve" width="19.2009mm" height="19.2371mm" version="1.1" style="shape-rendering:geometricPrecision; text-rendering:geometricPrecision; image-rendering:optimizeQuality; fill-rule:evenodd; clip-rule:evenodd"
viewBox="0 0 2416.14 2420.7"
 xmlns:xlink="http://www.w3.org/1999/xlink"
 xmlns:xodm="http://www.corel.com/coreldraw/odm/2003">
 <defs>
  <style type="text/css">
   <![CDATA[
    .fil4 {fill:#C7E0E4}
    .fil5 {fill:#CB9969}
    .fil3 {fill:#CC9A65}
    .fil1 {fill:#EC9A60}
    .fil2 {fill:#ECBC5E}
    .fil0 {fill:#ECBC5E}
   ]]>
  </style>
 </defs>
 <g id="Camada_x0020_1">
  <metadata id="CorelCorpID_0Corel-Layer"/>
  <ellipse class="fil0" cx="1207.76" cy="1210.35" rx="1207.67" ry="1210.35"/>
  <path class="fil1" d="M115.87 733.15c62.78,43.92 150.59,64.29 228.58,78.07 98.67,17.43 186.19,22.03 284.03,38.12 141.44,23.25 271.84,138.67 540.17,60.2 403.99,-118.13 157.62,-49.54 397.02,-55.47l462.98 -32.75c24.54,-2.99 236.62,0.6 276.37,-50.91 2.76,2.93 8.64,1.48 10.09,6.59 9.37,33.16 -0.58,-2.05 17.35,13.19 -16.25,-47.2 -38.58,-94.16 -59.48,-135.73 -19.92,-39.61 -45.56,-97.51 -82.9,-124.09 -44.31,26.84 -172.56,47.87 -244.36,34.54 -97.94,-18.2 -142.97,-44.94 -249.59,-11.34 -75.02,23.63 -152.75,55.56 -236.61,52.59 -119.32,-4.22 -292.09,-11.38 -403,33.82 -54.31,22.13 -37.74,31.53 -119.15,30.14 -151.29,-2.6 -583.72,-147.83 -611.58,-241.96 -45.28,19.54 -35.5,24.78 -59.91,59.83 -17.97,25.81 -36.86,45.01 -56.17,71.79 -30.68,42.51 -78.79,120.74 -93.85,173.36z"/>
  <path class="fil2" d="M33.82 947.29c51.39,-4.61 108.07,11.61 152.69,24.75 56.98,16.77 82.93,38.52 139.46,52.13 114.62,27.62 200.69,27.55 303.83,69 205.39,82.52 404.76,129.66 609.28,5.55 45.85,-27.83 54.26,-46.77 114.82,-65.33 55.34,-16.95 90.15,-32.73 142.7,-49.49 118.99,-37.95 214.65,33.96 308.4,64.11 319.29,102.66 319.63,0.21 581.47,-82.48l-54 -175.34c-17.93,-15.24 -7.98,19.97 -17.35,-13.19 -1.45,-5.11 -7.34,-3.66 -10.09,-6.59 -39.75,51.52 -251.83,47.92 -276.37,50.91l-462.98 32.75c-239.4,5.93 6.97,-62.67 -397.02,55.47 -268.33,78.47 -398.73,-36.95 -540.17,-60.2 -97.85,-16.08 -185.37,-20.69 -284.03,-38.12 -77.99,-13.78 -165.8,-34.15 -228.58,-78.07 -33.45,24.68 -69.42,165.1 -82.04,214.13z"/>
  <path class="fil3" d="M1520.3 1361.79c32.82,-18.71 398.57,-45.09 455.56,60.27 41.59,76.91 -64.55,95.42 -105.45,148.57 -86.34,112.22 -30.06,59 -164.63,102.72 -105.6,34.32 -120.03,27.68 -216.81,-11.72 -78.8,-32.08 -173.53,-8.75 -215.38,-51.05 -68.48,-69.23 44.08,-126.14 92.35,-139.95 80.13,-22.95 86.68,-70.27 154.36,-108.85zm-1483.57 100.57l12.56 -52.42c15.7,23.03 216.21,125.13 251.56,140.67 128.96,56.7 198.2,51.27 348.92,54.71 126.49,2.88 232.44,75.34 329.57,72.25 82.6,-2.63 59.51,-60.83 141.83,-40.87 104.95,25.46 88.85,85.62 466.72,135.9 294.19,39.15 381.75,-168.4 532.11,-271.2 73.45,-50.21 61.12,-83.38 101.46,-103.21 14.66,-7.2 140.47,-24.21 178.58,-35.07l-8.72 66.81c22.94,-26.31 21.05,-92.87 22.74,-134.37 1.11,-27.46 2.2,-55.83 2.08,-83.26 -0.19,-36.15 1.38,-49.91 -11.84,-74.07l-7.47 74.18c-124.9,0.52 -135.86,125.5 -276.96,121.07 -48.03,-1.5 -135.3,-11.99 -179.14,-25.58 -55.23,-17.13 -86.31,-47.77 -139.04,-65.94 -68.42,-23.58 -309.49,-22.98 -369.24,19.2 -98.67,69.66 -138.07,164.19 -213.08,181.73 -73.75,17.25 -82.43,10.12 -149.23,51.74 -76.95,47.96 -86.13,14.57 -173.92,29.9 -163.62,28.56 -94.39,-32.3 -269.71,-108.26 -243.87,-105.64 -340.71,98.67 -611.75,-140.53l0.84 -107.8 -5.76 -70.05c-18.31,57.92 -11.98,322.65 26.89,364.47z"/>
  <path class="fil2" d="M36.73 1462.35c-0.86,48.28 21.82,143.67 48.17,176.5 24.07,-34.33 -1.76,-1.8 23.13,-21.61 25.59,16.67 95.07,33.69 130.94,50.36 38.43,17.87 87.3,42.76 126.17,63.95 376.51,205.25 367.5,63.4 582.35,57.05 113.81,-3.35 522.83,116.49 658.73,94.65 57.97,-9.31 85.64,-25.54 150.78,-28.1 106.15,-4.17 227.06,2.11 312.6,-63.43 60.7,-46.52 124.5,-235.24 307.67,-268.54 14.12,-44.82 17.29,-49.01 14.04,-93.26l8.72 -66.81c-38.12,10.86 -163.93,27.87 -178.58,35.07 -40.34,19.83 -28.01,53 -101.46,103.21 -150.36,102.79 -237.92,310.35 -532.11,271.2 -377.87,-50.28 -361.78,-110.45 -466.72,-135.9 -82.32,-19.96 -59.23,38.24 -141.83,40.87 -97.13,3.08 -203.08,-69.37 -329.57,-72.25 -150.71,-3.45 -219.96,1.99 -348.92,-54.71 -35.35,-15.54 -235.85,-117.64 -251.56,-140.67l-12.56 52.42z"/>
  <path class="fil2" d="M325.8 428.17c27.86,94.12 460.29,239.35 611.58,241.96 81.42,1.4 64.84,-8 119.15,-30.14 110.91,-45.2 283.68,-38.04 403,-33.82 83.86,2.97 161.58,-28.95 236.61,-52.59 106.62,-33.6 151.66,-6.86 249.59,11.34 71.8,13.33 200.05,-7.7 244.36,-34.54 -8.58,-42.48 -49.09,-80.01 -77.88,-109.46 -31.43,-32.19 -63.92,-77.01 -102.08,-99.23 -33.46,9.36 -159.82,14.66 -209.02,19.03 -67.71,6.01 -143.58,18.49 -203.97,31.67 -64.84,14.18 -116.74,38.27 -182.61,46.51 -80.07,10.03 -127.48,-4.34 -211.36,17.47 -154.56,40.19 -246.15,-9.49 -383.85,-42.14 -62.2,-14.74 -129.57,-28.95 -193.46,-45 -57.86,-14.52 -128.69,-37.51 -180.08,-45.8 -2.38,1.43 -5.91,1.08 -6.91,4.67l-89.04 82.94c-3.71,4.05 -11.14,12.66 -14.17,17.25 -10.66,16.12 -3.72,4.23 -9.87,19.91z"/>
  <path class="fil4" d="M9.84 1097.88l5.76 70.05c43.56,5.5 87.08,25.9 139.84,37.31 195.01,42.17 357.31,13.54 431.37,48.6 145.16,68.71 120.11,20.3 230.72,48.95 48.23,12.5 94.5,33.2 151.12,40.18 274.82,33.91 236.09,-117.66 396.1,-172.12 99.74,-33.95 235.5,-169.39 441.73,-60.89 101.11,53.19 346.34,124.49 470.8,78.87 52.72,-19.32 78.63,-52.46 132.63,-66.01l-23.44 -157.31c-261.84,82.7 -262.18,185.14 -581.47,82.48 -93.75,-30.15 -189.41,-102.06 -308.4,-64.11 -52.55,16.76 -87.35,32.54 -142.7,49.49 -60.56,18.56 -68.97,37.5 -114.82,65.33 -204.52,124.11 -403.89,76.97 -609.28,-5.55 -103.13,-41.45 -189.21,-41.37 -303.83,-69 -56.54,-13.62 -82.48,-35.36 -139.46,-52.13 -44.62,-13.14 -101.3,-29.36 -152.69,-24.75l-23.98 150.6z"/>
  <path class="fil2" d="M15.6 1167.94l-0.84 107.8c271.04,239.2 367.88,34.89 611.75,140.53 175.33,75.95 106.09,136.82 269.71,108.26 87.78,-15.33 96.97,18.06 173.92,-29.9 66.79,-41.63 75.48,-34.49 149.23,-51.74 75.01,-17.54 114.41,-112.07 213.08,-181.73 59.75,-42.18 300.82,-42.78 369.24,-19.2 52.72,18.17 83.81,48.81 139.04,65.94 43.84,13.59 131.11,24.08 179.14,25.58 141.1,4.43 152.06,-120.55 276.96,-121.07l7.47 -74.18 5.62 -15.4c-54,13.55 -79.91,46.7 -132.63,66.01 -124.46,45.62 -369.69,-25.68 -470.8,-78.87 -206.23,-108.49 -341.99,26.94 -441.73,60.89 -160.01,54.46 -121.28,206.03 -396.1,172.12 -56.61,-6.98 -102.88,-27.68 -151.12,-40.18 -110.61,-28.65 -85.56,19.76 -230.72,-48.95 -74.07,-35.06 -236.37,-6.43 -431.37,-48.6 -52.76,-11.41 -96.28,-31.81 -139.84,-37.31z"/>
  <path class="fil2" d="M321.45 2022.34c121.85,-16.06 380.02,172.87 572.71,190.8 96.77,9.01 144.31,-26.29 234.41,-34.74 88.19,-8.27 172.07,9 266.77,0.42 237.74,-21.57 422.33,-113.45 674.26,-120.81 25.66,-13.36 25.66,-14.72 45.59,-40.14 15.04,-19.18 21.06,-29.89 36.77,-48.64 30.74,-36.68 55.67,-63.87 74.76,-106.9 -23.43,-23.91 8.09,-9.71 -31.08,-11.2l-94.26 26.25c-42.75,18.86 -68.67,33.41 -107.07,52.07 -79.75,38.74 -153.68,47.73 -268.73,44.04 -138.51,-4.45 -160.39,-5.8 -281.58,25.77 -315.73,82.25 -235.17,-49.34 -517.47,-30.68 -276.86,18.3 -308.86,-35.61 -518.31,-97.55 -71.64,-21.18 -98.05,-11.83 -188.78,-47.97 -49.13,-19.57 -29.18,-22.94 -46.53,-3.81 5.88,32.15 4.56,22.71 27.34,55.66 12.46,18.02 23.32,35.27 34.45,50.93 31.02,43.59 50.67,67.79 86.76,96.5z"/>
  <path class="fil1" d="M84.9 1638.85c14.85,62.78 46.09,142.07 87.98,180.41 17.35,-19.13 -2.59,-15.75 46.53,3.81 90.73,36.14 117.14,26.79 188.78,47.97 209.45,61.94 241.45,115.84 518.31,97.55 282.3,-18.66 201.74,112.92 517.47,30.68 121.19,-31.57 143.07,-30.23 281.58,-25.77 115.05,3.69 188.98,-5.3 268.73,-44.04 38.4,-18.66 64.33,-33.21 107.07,-52.07l94.26 -26.25c39.17,1.48 7.65,-12.71 31.08,11.2 52.4,-53.88 128.06,-241.19 150.56,-339.15 -183.17,33.31 -246.96,222.02 -307.67,268.54 -85.54,65.55 -206.44,59.27 -312.6,63.43 -65.13,2.55 -92.8,18.79 -150.78,28.1 -135.9,21.83 -544.93,-98 -658.73,-94.65 -214.85,6.34 -205.84,148.2 -582.35,-57.05 -38.87,-21.19 -87.74,-46.08 -126.17,-63.95 -35.88,-16.67 -105.35,-33.69 -130.94,-50.36 -24.89,19.81 0.94,-12.72 -23.13,21.61z"/>
  <path class="fil4" d="M445.78 303.4c51.39,8.29 122.22,31.28 180.08,45.8 63.89,16.04 131.26,30.26 193.46,45 137.7,32.65 229.28,82.33 383.85,42.14 83.88,-21.81 131.3,-7.44 211.36,-17.47 65.87,-8.24 117.77,-32.33 182.61,-46.51 60.39,-13.19 136.25,-25.66 203.97,-31.67 49.2,-4.37 175.56,-9.66 209.02,-19.03 -21.52,-37.56 -18.84,-27.13 -48.53,-48.26 -21.08,-15 -32.54,-27.47 -53.23,-42.52 -29.9,-21.76 -87.27,-59 -127.84,-75.69 -84.76,25.96 -51.78,58.27 -262.73,80.84 -134.83,14.42 -52.64,6.72 -141.69,30.91 -92.39,25.09 -218.19,17.31 -309.63,-11.92 -60.63,-19.39 -298.47,3.74 -406.16,-96.19 -55.96,15.47 -186.58,113.5 -214.55,144.56z"/>
  <path class="fil4" d="M623.36 2260.06c149.3,8.62 235,97.12 487.28,75.77 87.78,-7.42 175.65,-19.57 262.93,-26 103.75,-7.65 184.16,12.99 281.45,14.41 82.52,-27.41 163.76,-71.36 227.59,-112.7 56.47,-36.57 165.69,-114.6 186.98,-153.53 -251.93,7.36 -436.52,99.25 -674.26,120.81 -94.7,8.58 -178.58,-8.68 -266.77,-0.42 -90.1,8.46 -137.64,43.75 -234.41,34.74 -192.69,-17.93 -450.87,-206.86 -572.71,-190.8 26.94,52.96 210.84,200.51 301.92,237.71z"/>
  <path class="fil2" d="M660.33 158.84c107.69,99.93 345.53,76.8 406.16,96.19 91.44,29.23 217.24,37.01 309.63,11.92 89.05,-24.19 6.86,-16.48 141.69,-30.91 210.95,-22.56 177.97,-54.88 262.73,-80.84 -43.63,-32.6 -174.29,-94.09 -235.86,-89.56 -59.49,29.17 -93.43,13.59 -160.4,38.34 -65.21,24.1 -84.72,40.34 -163.47,28.22 -61.97,-9.53 -124.5,-9.85 -182.88,-22.1 -46.77,-9.8 -102.49,-33.11 -148.02,-46.12 -51.53,-5.71 -194.57,57.87 -229.57,94.84z"/>
  <path class="fil2" d="M1704.26 1406.68c61.84,-1.02 92.46,16.76 137.05,40.13 26.41,84.11 1.57,126.11 -85.11,134.76 -94.93,9.46 -83.54,44.09 -211.67,14.26 -75.26,-17.53 -112.19,-75.92 -25.24,-121.08 80.02,-41.55 79.54,30.98 184.98,-68.06zm-183.96 -44.9c-67.69,38.58 -74.23,85.89 -154.36,108.85 -48.27,13.82 -160.83,70.72 -92.35,139.95 41.85,42.31 136.58,18.98 215.38,51.05 96.78,39.4 111.21,46.03 216.81,11.72 134.57,-43.72 78.29,9.5 164.63,-102.72 40.9,-53.15 147.04,-71.66 105.45,-148.57 -56.99,-105.36 -422.74,-78.99 -455.56,-60.27z"/>
  <path class="fil5" d="M1101.28 2408.88l196.72 -1.55c44.63,-21.73 127.36,-19.79 182.66,-32.14 58.8,-13.14 124.45,-25.37 174.37,-50.96 -97.3,-1.42 -177.7,-22.06 -281.45,-14.41 -87.28,6.43 -175.15,18.57 -262.93,26 -252.29,21.35 -337.98,-67.15 -487.28,-75.77 135.5,103.12 415.75,123.46 469.46,144.51 2.3,0.89 5.74,2.69 8.46,4.32z"/>
  <path class="fil3" d="M889.9 64c45.53,13.01 101.25,36.32 148.02,46.12 58.37,12.24 120.9,12.57 182.88,22.1 78.75,12.12 98.26,-4.13 163.47,-28.22 66.97,-24.75 100.91,-9.17 160.4,-38.34l-64.05 -24.93c-162.73,-33.84 -395.75,-50.26 -551.26,1.85l-39.46 21.43z"/>
  <path class="fil1" d="M1704.26 1406.68c-105.44,99.04 -104.96,26.51 -184.98,68.06 -86.95,45.16 -50.02,103.55 25.24,121.08 128.13,29.84 116.74,-4.79 211.67,-14.26 86.69,-8.64 111.53,-50.65 85.11,-134.76 -44.58,-23.37 -75.21,-41.15 -137.05,-40.13z"/>
 </g>
</svg>
