<?xml version="1.0" encoding="UTF-8"?>
<!DOCTYPE svg PUBLIC "-//W3C//DTD SVG 1.1//EN" "http://www.w3.org/Graphics/SVG/1.1/DTD/svg11.dtd">
<!-- Creator: CorelDRAW 2020 (64 Bit) -->
<svg xmlns="http://www.w3.org/2000/svg" xml:space="preserve" width="105.612mm" height="105.612mm" version="1.1" style="shape-rendering:geometricPrecision; text-rendering:geometricPrecision; image-rendering:optimizeQuality; fill-rule:evenodd; clip-rule:evenodd"
viewBox="0 0 4075.86 4075.86"
 xmlns:xlink="http://www.w3.org/1999/xlink"
 xmlns:xodm="http://www.corel.com/coreldraw/odm/2003">
 <defs>
  <style type="text/css">
   <![CDATA[
    .fil1 {fill:#1D3557}
    .fil0 {fill:#A8DADC}
   ]]>
  </style>
 </defs>
 <g id="Camada_x0020_1">
  <metadata id="CorelCorpID_0Corel-Layer"/>
  <path class="fil0" d="M-0 1921.48c0,658.37 153.45,1110.5 606.5,1567.3 349.54,352.46 863.34,566.86 1377.7,587.08l158.27 0c251.64,-9.93 499.4,-67.97 723.82,-180.89 450.36,-226.62 803.62,-528.55 1015.3,-1003.24 115.24,-258.49 180.34,-536.58 194.28,-816.11l0 -105.98c-12.01,-231.16 -94.4,-567.34 -174.89,-746.68 -223.28,-497.35 -532.59,-788.05 -1008.97,-1028.96 -236.96,-119.82 -497.77,-183 -761.87,-194.01l-169.15 0c-497.17,20.81 -990.7,222.82 -1344.74,577.41 -339.09,339.62 -616.24,829.41 -616.24,1344.07z"/>
  <g id="_1659321879008">
   <path class="fil1" d="M2050.18 1493.25c18.15,-478.72 700.96,-466.94 773.51,-47.97 -54.4,-1.77 -81.1,-3.45 -126.06,15.72 76.1,7.17 129.41,18.66 178.6,56.27 34.1,26.09 78.25,87.55 80.15,154.2l-309.04 212.09 -73.8 -69.68c9.85,46.54 23.16,64.74 35.39,101.25 -28.67,13.12 -68.3,42.57 -100.06,61.78l-517.51 303.49c-42.53,23.19 -176.37,99.6 -219.46,109.74l31.98 -49.76c-109.35,64.39 -173.67,91.83 -319.52,30.3 35.28,71.15 95.54,83.85 125.58,103.71l-187.34 80.68c-47.55,-121.84 -113.57,-214.91 -22.7,-356.01 22.37,-34.73 79.07,-76.28 141.33,-92.98 79.7,-21.39 125.81,-3.36 197.4,15.97 -32.14,-38.79 -95.31,-66.07 -145.1,-72.23 -82.91,-10.27 -102.17,7.77 -168.01,24.43 -43.3,-48.24 -54.96,-177.38 41.19,-240.95 41.61,-27.51 103.9,-37.08 151.24,-17.28 65.55,27.4 43.15,80.37 68.46,110.01 11.64,-39.73 23.77,-53.61 12.21,-104.2 80.88,1.27 120.77,-64.47 126.84,-66.72 -66.07,-4.51 -82.74,26.34 -177.73,-3.13 -85.7,-26.58 -77.9,-29.74 -172.33,-15.23 -8.86,-102.12 -12.54,-144.63 41.14,-224.66 27.27,-40.66 93.22,-90.17 166.49,-105.19 6.84,99.93 4.37,134.36 56.35,210.08 25.2,36.71 84,93.66 153.28,105.16 -280.39,-249.76 -57.26,-544.58 163.81,-509.38 -34.82,122.57 -63.64,152.29 -6.31,280.5zm827.47 -343.75l77.66 121.93c102.98,-20.77 414.2,-168.42 521.02,-121.99 5.67,13.55 5.43,-15.65 3.84,20.24 -2.42,54.62 -151.28,199.15 -185.57,227.48 -25.11,20.74 -26.91,23.89 -53.45,50.09l-185.79 150.78c-59.32,-75.76 -2.73,-51 -114.32,-162.94 -30.52,-30.61 -17.24,-87.82 -89.33,-195.89 -135.6,-203.27 -462.93,-267.81 -679.89,-143.58 -99.84,57.17 -34.67,14.18 -140.97,8.71 -52.97,-2.73 -117.97,15.5 -160.56,35.34 -37.36,17.4 -92.76,57.82 -112.21,77.85 -72.89,75.06 -8.13,66.72 -102.07,89.07 -107.16,25.49 -186.02,91.66 -226.33,153.04 -82.26,125.26 -62.79,165.55 -51.48,319.21 -94.87,58.95 -105.09,194.66 -67.29,301.92 19.98,56.69 19.85,37.49 -12.3,85.82 -91.77,137.97 -29.62,310.33 28.73,429.08 -79.6,43.25 -501,198.4 -587.07,149.75 -23.55,-73.68 227.56,-282.25 274.03,-327.03l166.58 -135.96c12.01,-14.61 42.85,-78.03 56.78,-99.53 18.04,-27.86 3.21,-68.68 -19.54,-101.55 -63.79,38.51 -226.76,167.79 -285.64,220.52 -14.17,12.69 -20.6,15.07 -34.15,26.65 -22.84,19.5 -34.42,35.42 -57.55,54.54 -88.3,73 -299.18,292.78 -258.33,425.21 34.94,113.25 224.9,94.73 346.93,69.77 590.93,-120.87 1726.99,-769.98 2243.21,-1188.12l128.11 -105.39c46.35,-42.6 81.26,-62.93 116.45,-108.07 22.03,-28.25 26.61,-27.7 57.5,-54.71 42.28,-36.95 253.94,-287.11 130.56,-382.76 -151.12,-117.15 -574.88,56.79 -727.54,110.53z"/>
   <path class="fil0" d="M1772.59 1995.14c153.19,87.95 176.16,81.26 312.17,40.74 -115.15,157.05 -228.87,78.24 -312.17,-40.74zm446.29 48.6c67.86,-51.69 197.87,-68.98 201.23,-280.06 61.32,91.77 12.75,310.36 -201.23,280.06zm-237.85 -316.46c44.95,14.51 77.85,27.22 132.87,17.75 22.14,-3.81 43.71,-10.4 62.18,-22.89 28.25,-19.08 16.5,-21.61 45.77,-38.05 -11.4,48.14 -27.42,64.24 -51.26,90.71 34.49,46.93 55.51,28.52 71.69,116.99l-17.93 -14.84c-147.54,-134.41 -189.04,-49.11 -243.33,-149.67zm589.18 45.49c1.15,-55.57 17.19,-104.31 54.07,-121.17 52.26,-23.88 110.14,-2.05 139.14,26.53 -106.63,-1.58 -150.48,25.29 -193.21,94.64zm-333.44 -214.71c223.42,56.73 254.27,28.3 378.66,-91.17 -13.7,72.62 -88.33,143.37 -155.36,167.67 -89.77,32.54 -191.45,-17.45 -223.3,-76.5zm107.96 -232.73c14.36,-31.11 48.72,-75.17 107.28,-66.68 45.1,6.55 70.7,48.97 86.5,82.47 -94.1,-39.07 -74.04,-63.47 -193.77,-15.79zm-294.56 167.92c-57.34,-128.22 -28.51,-157.94 6.31,-280.5 -221.07,-35.2 -444.2,259.63 -163.81,509.38 -69.29,-11.5 -128.09,-68.45 -153.28,-105.16 -51.98,-75.73 -49.5,-110.15 -56.35,-210.08 -73.27,15.02 -139.22,64.53 -166.49,105.19 -53.68,80.03 -50,122.54 -41.14,224.66 94.43,-14.51 86.63,-11.35 172.33,15.23 95,29.47 111.66,-1.37 177.73,3.13 -6.06,2.25 -45.96,67.99 -126.84,66.72 11.56,50.58 -0.56,64.47 -12.21,104.2 -25.32,-29.64 -2.91,-82.6 -68.46,-110.01 -47.34,-19.8 -109.63,-10.23 -151.24,17.28 -96.14,63.57 -84.48,192.71 -41.19,240.95 65.83,-16.66 85.1,-34.69 168.01,-24.43 49.78,6.16 112.96,33.44 145.1,72.23 -71.59,-19.33 -117.7,-37.36 -197.4,-15.97 -62.26,16.7 -118.96,58.26 -141.33,92.98 -90.87,141.1 -24.85,234.17 22.7,356.01l187.34 -80.68c-30.04,-19.86 -90.3,-32.56 -125.58,-103.71 145.85,61.54 210.16,34.09 319.52,-30.3l-31.98 49.76c43.08,-10.14 176.93,-86.55 219.46,-109.74l517.51 -303.49c31.76,-19.21 71.39,-48.66 100.06,-61.78 -12.23,-36.51 -25.54,-54.72 -35.39,-101.25l73.8 69.68 309.04 -212.09c-1.9,-66.65 -46.06,-128.11 -80.15,-154.2 -49.18,-37.62 -102.49,-49.1 -178.6,-56.27 44.96,-19.17 71.67,-17.49 126.06,-15.72 -72.55,-418.96 -755.36,-430.75 -773.51,47.97z"/>
   <path class="fil1" d="M2871.28 2000.46c18.67,23.12 70.29,29.93 26.81,141.43 -77.18,197.88 -228.97,178.18 -377.33,139.25 11.67,21.38 0.04,3.57 12.94,18.24 1.78,2.03 7.44,7.67 9.43,9.46l71.19 41.07c42.11,16.78 80.8,19.91 130.18,17.62 -16.95,133.8 -108.6,226.76 -246.92,239.16 -171.06,15.33 -236.96,-68.51 -301.42,-175.04 -0.45,76.77 36.81,151.02 87.49,196.75 10.56,9.53 16,11.42 28.81,22.74l19.49 20.89c0.92,-1.61 3.41,4.07 4.77,6.33 -73.33,33.48 -122.31,83.65 -230.45,23.68 -105.16,-58.32 -95.86,-153.87 -113.52,-184.41l-104.42 54.33c40.01,47.06 118.39,194 -13.82,214.12 -56.1,8.54 -114.46,3.05 -167.78,-12.71 -49.47,-14.62 -96.18,-48.98 -130.73,-55.84l-90.73 51.94c0.96,0.88 3.36,3.28 4.56,4.35l29.1 22.9c157.12,108.92 390.83,129.26 537.36,32.17 35.58,-23.58 8.47,-22.96 60.59,-9.16 59.52,15.77 96.05,20.27 158.47,3.47 45.93,-12.36 87.29,-36.28 113.4,-58.95 65.53,-56.88 11.83,-43.72 117.16,-52.47 320.56,-26.63 337.17,-323.3 348.36,-345.23 8.69,-17.03 188.21,-134.13 164.88,-346.27 -9.34,-84.94 -41.42,-37.06 1.07,-120.85 -45.37,31.18 -102.52,63.81 -148.94,101.02z"/>
   <path class="fil0" d="M1992.76 2517.65c17.66,30.53 8.36,126.09 113.52,184.41 108.14,59.97 157.12,9.8 230.45,-23.68 -1.36,-2.27 -3.85,-7.94 -4.77,-6.33l-19.49 -20.89c-12.81,-11.32 -18.25,-13.21 -28.81,-22.74 -50.68,-45.74 -87.94,-119.98 -87.49,-196.75 64.47,106.52 130.37,190.37 301.42,175.04 138.32,-12.4 229.97,-105.36 246.92,-239.16 -49.38,2.29 -88.07,-0.85 -130.18,-17.62l-71.19 -41.07c-1.99,-1.79 -7.65,-7.43 -9.43,-9.46 -12.89,-14.68 -1.27,3.14 -12.94,-18.24 148.36,38.92 300.15,58.63 377.33,-139.25 43.48,-111.5 -8.14,-118.31 -26.81,-141.43l-646.74 392.22c-75.6,43.15 -163.21,76.86 -231.78,124.97z"/>
   <path class="fil0" d="M1576 2717.55c34.55,6.86 81.26,41.21 130.73,55.84 53.32,15.77 111.68,21.25 167.78,12.71 132.21,-20.12 53.83,-167.06 13.82,-214.12l-312.33 145.57z"/>
   <path class="fil1" d="M2236.77 1558.06c31.85,59.05 133.53,109.04 223.3,76.5 67.02,-24.3 141.66,-95.05 155.36,-167.67 -124.39,119.46 -155.24,147.9 -378.66,91.17z"/>
   <path class="fil1" d="M2218.88 2043.74c213.99,30.3 262.55,-188.29 201.23,-280.06 -3.36,211.08 -133.37,228.36 -201.23,280.06z"/>
   <path class="fil1" d="M1981.03 1727.28c54.3,100.56 95.79,15.26 243.33,149.67l17.93 14.84c-16.18,-88.47 -37.2,-70.06 -71.69,-116.99 23.83,-26.47 39.85,-42.57 51.26,-90.71 -29.27,16.44 -17.52,18.97 -45.77,38.05 -18.48,12.48 -40.04,19.08 -62.18,22.89 -55.03,9.46 -87.92,-3.24 -132.87,-17.75z"/>
   <path class="fil1" d="M1772.59 1995.14c83.3,118.98 197.03,197.78 312.17,40.74 -136.02,40.53 -158.98,47.21 -312.17,-40.74z"/>
   <path class="fil1" d="M2570.21 1772.77c42.73,-69.36 86.58,-96.23 193.21,-94.64 -29,-28.57 -86.88,-50.41 -139.14,-26.53 -36.89,16.86 -52.93,65.61 -54.07,121.17z"/>
   <path class="fil1" d="M2344.74 1325.32c119.74,-47.67 99.68,-23.28 193.77,15.79 -15.8,-33.5 -41.39,-75.93 -86.5,-82.47 -58.56,-8.49 -92.91,35.57 -107.28,66.68z"/>
  </g>
 </g>
</svg>
