<?xml version="1.0" encoding="UTF-8"?>
<!DOCTYPE svg PUBLIC "-//W3C//DTD SVG 1.1//EN" "http://www.w3.org/Graphics/SVG/1.1/DTD/svg11.dtd">
<!-- Creator: CorelDRAW 2020 (64 Bit) -->
<svg xmlns="http://www.w3.org/2000/svg" xml:space="preserve" width="105.612mm" height="105.612mm" version="1.1" style="shape-rendering:geometricPrecision; text-rendering:geometricPrecision; image-rendering:optimizeQuality; fill-rule:evenodd; clip-rule:evenodd"
viewBox="0 0 10194.73 10194.73"
 xmlns:xlink="http://www.w3.org/1999/xlink"
 xmlns:xodm="http://www.corel.com/coreldraw/odm/2003">
 <defs>
  <style type="text/css">
   <![CDATA[
    .fil0 {fill:#1D3557}
    .fil1 {fill:#A8DADC}
   ]]>
  </style>
 </defs>
 <g id="Camada_x0020_1">
  <metadata id="CorelCorpID_0Corel-Layer"/>
  <path class="fil0" d="M-0 4806.09c0,1646.75 383.82,2777.63 1517,3920.21 874.29,881.58 2159.42,1417.86 3445.97,1468.43l395.86 0c629.4,-24.83 1249.12,-170.01 1810.45,-452.46 1126.47,-566.84 2010.06,-1322.05 2539.51,-2509.35 288.24,-646.55 451.08,-1342.12 485.94,-2041.3l0 -265.07c-30.04,-578.2 -236.12,-1419.06 -437.44,-1867.63 -558.47,-1244 -1332.13,-1971.11 -2523.68,-2573.67 -592.7,-299.71 -1245.04,-457.74 -1905.64,-485.26l-423.09 0c-1243.56,52.06 -2477.98,557.33 -3363.52,1444.23 -848.14,849.46 -1541.36,2074.56 -1541.36,3361.85z"/>
  <path class="fil1" d="M5128.01 3734.98c45.4,-1197.4 1753.28,-1167.93 1934.74,-120 -136.06,-4.43 -202.85,-8.64 -315.32,39.32 190.35,17.94 323.69,46.66 446.71,140.75 85.28,65.25 195.72,218.98 200.48,385.7l-772.97 530.48 -184.59 -174.29c24.64,116.4 57.93,161.93 88.53,253.26 -71.7,32.81 -170.83,106.47 -250.26,154.52l-1294.42 759.11c-106.38,58 -441.15,249.12 -548.92,274.48l79.98 -124.46c-273.52,161.05 -434.39,229.69 -799.19,75.78 88.24,177.95 238.96,209.73 314.11,259.4l-468.58 201.81c-118.93,-304.75 -284.07,-537.54 -56.78,-890.47 55.96,-86.86 197.77,-190.79 353.5,-232.57 199.34,-53.5 314.69,-8.4 493.74,39.95 -80.39,-97.03 -238.4,-165.26 -362.92,-180.68 -207.38,-25.68 -255.56,19.43 -420.22,61.1 -108.3,-120.65 -137.46,-443.67 103.02,-602.68 104.08,-68.82 259.87,-92.74 378.28,-43.22 163.96,68.55 107.92,201.01 171.24,275.16 29.12,-99.37 59.45,-134.1 30.53,-260.62 202.3,3.19 302.08,-161.24 317.25,-166.88 -165.26,-11.27 -206.94,65.87 -444.55,-7.84 -214.35,-66.48 -194.85,-74.39 -431.04,-38.09 -22.15,-255.43 -31.37,-361.77 102.9,-561.93 68.22,-101.69 233.18,-225.54 416.44,-263.1 17.11,249.95 10.93,336.06 140.93,525.47 63.02,91.82 210.1,234.26 383.4,263.03 -701.32,-624.7 -143.21,-1362.14 409.74,-1274.09 -87.09,306.57 -159.19,380.91 -15.77,701.61zm2069.71 -859.81l194.24 304.97c257.59,-51.95 1036.02,-421.27 1303.2,-305.13 14.18,33.88 13.59,-39.13 9.6,50.62 -6.06,136.63 -378.38,498.11 -464.16,568.98 -62.8,51.88 -67.32,59.76 -133.68,125.3l-464.71 377.14c-148.39,-189.5 -6.82,-127.56 -285.93,-407.56 -76.34,-76.57 -43.11,-219.65 -223.43,-489.96 -339.18,-508.42 -1157.9,-669.86 -1700.58,-359.12 -249.72,142.99 -86.72,35.46 -352.61,21.78 -132.49,-6.82 -295.08,38.77 -401.6,88.39 -93.45,43.53 -232.01,144.62 -280.67,194.73 -182.32,187.75 -20.33,166.87 -255.31,222.78 -268.03,63.77 -465.29,229.27 -566.12,382.8 -205.74,313.31 -157.05,414.08 -128.77,798.43 -237.3,147.46 -262.85,486.89 -168.3,755.17 49.97,141.78 49.65,93.78 -30.75,214.66 -229.53,345.09 -74.08,776.21 71.86,1073.24 -199.09,108.18 -1253.12,496.24 -1468.41,374.56 -58.9,-184.3 569.18,-705.97 685.41,-817.99l416.66 -340.08c30.04,-36.55 107.19,-195.16 142.02,-248.96 45.12,-69.68 8.04,-171.79 -48.88,-253.99 -159.54,96.33 -567.17,419.67 -714.46,551.58 -35.44,31.74 -51.53,37.69 -85.43,66.65 -57.13,48.78 -86.1,88.6 -143.96,136.42 -220.85,182.59 -748.33,732.33 -646.14,1063.55 87.4,283.27 562.54,236.93 867.77,174.51 1478.07,-302.32 4319.64,-1925.91 5610.82,-2971.79l320.43 -263.59c115.93,-106.55 203.24,-157.4 291.27,-270.3 55.1,-70.67 66.55,-69.29 143.82,-136.85 105.76,-92.42 635.18,-718.14 326.55,-957.39 -377.98,-293.02 -1437.91,142.04 -1819.75,276.45z"/>
  <path class="fil0" d="M4433.69 4990.35c383.18,219.98 440.61,203.26 780.82,101.9 -288.01,392.81 -572.47,195.7 -780.82,-101.9zm1116.27 121.55c169.74,-129.3 494.93,-172.53 503.33,-700.5 153.39,229.53 31.9,776.29 -503.33,700.5zm-594.92 -791.55c112.43,36.3 194.71,68.07 332.34,44.4 55.39,-9.52 109.32,-26.01 155.54,-57.24 70.66,-47.72 41.28,-54.05 114.48,-95.18 -28.52,120.4 -68.59,160.68 -128.21,226.88 86.27,117.38 138.85,71.34 179.31,292.61l-44.84 -37.12c-369.02,-336.19 -472.82,-122.84 -608.63,-374.36zm1473.7 113.78c2.87,-138.98 42.98,-260.91 135.25,-303.09 130.71,-59.73 275.48,-5.12 348.02,66.35 -266.7,-3.96 -376.4,63.25 -483.27,236.73zm-834.01 -537.05c558.82,141.9 635.99,70.78 947.11,-228.03 -34.26,181.63 -220.95,358.61 -388.58,419.38 -224.53,81.39 -478.88,-43.64 -558.53,-191.35zm270.04 -582.12c35.93,-77.8 121.86,-188.02 268.32,-166.78 112.81,16.37 176.83,122.49 216.35,206.28 -235.36,-97.73 -185.18,-158.74 -484.68,-39.5zm-736.77 420.02c-143.41,-320.7 -71.32,-395.04 15.77,-701.61 -552.95,-88.05 -1111.06,649.39 -409.74,1274.09 -173.3,-28.77 -320.37,-171.21 -383.4,-263.03 -130.01,-189.41 -123.82,-275.52 -140.93,-525.47 -183.26,37.56 -348.22,161.41 -416.44,263.1 -134.27,200.16 -125.05,306.5 -102.9,561.93 236.19,-36.3 216.69,-28.39 431.04,38.09 237.61,73.71 279.29,-3.44 444.55,7.84 -15.16,5.64 -114.95,170.07 -317.25,166.88 28.92,126.52 -1.41,161.25 -30.53,260.62 -63.32,-74.14 -7.29,-206.61 -171.24,-275.16 -118.41,-49.52 -274.2,-25.6 -378.28,43.22 -240.48,159 -211.31,482.02 -103.02,602.68 164.66,-41.67 212.85,-86.78 420.22,-61.1 124.52,15.42 282.53,83.64 362.92,180.68 -179.05,-48.35 -294.4,-93.45 -493.74,-39.95 -155.73,41.78 -297.54,145.71 -353.5,232.57 -227.29,352.93 -62.16,585.73 56.78,890.47l468.58 -201.81c-75.15,-49.66 -225.87,-81.44 -314.11,-259.4 364.8,153.92 525.67,85.27 799.19,-75.78l-79.98 124.46c107.77,-25.36 442.54,-216.49 548.92,-274.48l1294.42 -759.11c79.43,-48.04 178.56,-121.71 250.26,-154.52 -30.6,-91.33 -63.88,-136.86 -88.53,-253.26l184.59 174.29 772.97 -530.48c-4.76,-166.72 -115.2,-320.44 -200.48,-385.7 -123.02,-94.09 -256.36,-122.82 -446.71,-140.75 112.47,-47.96 179.26,-43.75 315.32,-39.32 -181.47,-1047.93 -1889.34,-1077.4 -1934.74,120z"/>
  <path class="fil1" d="M7181.79 5003.66c46.7,57.82 175.81,74.86 67.06,353.75 -193.04,494.95 -572.7,445.67 -943.78,348.31 29.19,53.48 0.11,8.92 32.36,45.63 4.46,5.08 18.61,19.18 23.58,23.66l178.07 102.73c105.33,41.96 202.1,49.8 325.62,44.08 -42.4,334.67 -271.64,567.18 -617.61,598.21 -427.86,38.35 -592.69,-171.37 -753.94,-437.81 -1.12,192.03 92.08,377.73 218.83,492.13 26.41,23.83 40.02,28.56 72.06,56.89l48.76 52.24c2.3,-4.02 8.52,10.17 11.93,15.84 -183.41,83.73 -305.92,209.23 -576.41,59.22 -263.03,-145.88 -239.76,-384.88 -283.93,-461.25l-261.19 135.9c100.08,117.72 296.13,485.24 -34.57,535.57 -140.32,21.35 -286.29,7.64 -419.66,-31.8 -123.73,-36.58 -240.56,-122.51 -326.99,-139.66l-226.93 129.91c2.39,2.21 8.41,8.2 11.4,10.87l72.79 57.28c393,272.44 977.57,323.31 1344.07,80.46 88.99,-58.98 21.2,-57.44 151.56,-22.91 148.87,39.43 240.23,50.69 396.37,8.68 114.88,-30.91 218.32,-90.75 283.64,-147.45 163.91,-142.28 29.59,-109.35 293.05,-131.23 801.8,-66.61 843.33,-808.65 871.34,-863.51 21.73,-42.59 470.77,-335.48 412.4,-866.11 -23.37,-212.46 -103.6,-92.7 2.66,-302.28 -113.47,77.98 -256.42,159.6 -372.53,252.67z"/>
  <path class="fil0" d="M4984.38 6297.27c44.17,76.37 20.9,315.37 283.93,461.25 270.49,150.01 393,24.51 576.41,-59.22 -3.41,-5.67 -9.63,-19.86 -11.93,-15.84l-48.76 -52.24c-32.04,-28.32 -45.65,-33.05 -72.06,-56.89 -126.75,-114.4 -219.95,-300.1 -218.83,-492.13 161.24,266.44 326.08,476.16 753.94,437.81 345.97,-31.02 575.21,-263.54 617.61,-598.21 -123.52,5.72 -220.28,-2.11 -325.62,-44.08l-178.07 -102.73c-4.97,-4.48 -19.12,-18.58 -23.58,-23.66 -32.25,-36.71 -3.17,7.85 -32.36,-45.63 371.08,97.36 750.74,146.64 943.78,-348.31 108.75,-278.89 -20.36,-295.93 -67.06,-353.75l-1617.66 981.04c-189.1,107.94 -408.23,192.25 -579.75,312.57z"/>
  <path class="fil0" d="M3941.97 6797.28c86.42,17.15 203.25,103.08 326.99,139.66 133.38,39.43 279.35,53.15 419.66,31.8 330.7,-50.33 134.65,-417.85 34.57,-535.57l-781.22 364.11z"/>
  <path class="fil1" d="M5594.73 3897.08c79.66,147.71 334,272.75 558.53,191.35 167.63,-60.78 354.32,-237.75 388.58,-419.38 -311.13,298.81 -388.29,369.93 -947.11,228.03z"/>
  <path class="fil1" d="M5549.97 5111.9c535.23,75.79 656.71,-470.97 503.33,-700.5 -8.4,527.97 -333.59,571.2 -503.33,700.5z"/>
  <path class="fil1" d="M4955.04 4320.36c135.81,251.52 239.61,38.17 608.63,374.36l44.84 37.12c-40.47,-221.28 -93.05,-175.23 -179.31,-292.61 59.62,-66.2 99.69,-106.48 128.21,-226.88 -73.21,41.13 -43.82,47.45 -114.48,95.18 -46.22,31.23 -100.15,47.72 -155.54,57.24 -137.63,23.67 -219.91,-8.11 -332.34,-44.4z"/>
  <path class="fil1" d="M4433.69 4990.35c208.35,297.59 492.81,494.71 780.82,101.9 -340.21,101.37 -397.65,118.09 -780.82,-101.9z"/>
  <path class="fil1" d="M6428.74 4434.14c106.87,-173.48 216.57,-240.69 483.27,-236.73 -72.54,-71.47 -217.31,-126.09 -348.02,-66.35 -92.26,42.17 -132.38,164.1 -135.25,303.09z"/>
  <path class="fil1" d="M5864.77 3314.96c299.49,-119.24 249.32,-58.23 484.68,39.5 -39.52,-83.8 -103.54,-189.91 -216.35,-206.28 -146.47,-21.24 -232.4,88.98 -268.32,166.78z"/>
 </g>
</svg>
