<?xml version="1.0" encoding="UTF-8"?>
<!DOCTYPE svg PUBLIC "-//W3C//DTD SVG 1.1//EN" "http://www.w3.org/Graphics/SVG/1.1/DTD/svg11.dtd">
<!-- Creator: CorelDRAW 2020 (64 Bit) -->
<svg xmlns="http://www.w3.org/2000/svg" xml:space="preserve" width="10.8364mm" height="10.8483mm" version="1.1" style="shape-rendering:geometricPrecision; text-rendering:geometricPrecision; image-rendering:optimizeQuality; fill-rule:evenodd; clip-rule:evenodd"
viewBox="0 0 293.87 294.2"
 xmlns:xlink="http://www.w3.org/1999/xlink"
 xmlns:xodm="http://www.corel.com/coreldraw/odm/2003">
 <defs>
  <style type="text/css">
   <![CDATA[
    .str0 {stroke:#EB534E;stroke-width:5.42;stroke-miterlimit:22.9256}
    .fil1 {fill:#D04D47}
    .fil0 {fill:#EB534E}
   ]]>
  </style>
 </defs>
 <g id="Camada_x0020_1">
  <metadata id="CorelCorpID_0Corel-Layer"/>
  <path class="fil0 str0" d="M86.18 251.55c2.33,-1.08 2.91,-4.06 10.7,-0.82 6.5,2.7 4.53,3.4 6.47,7.7 -7.4,2.67 -14.41,1.2 -17.17,-6.89zm37.58 -18.6c5.07,-3.61 8.81,-6.73 18.28,-5.27 15.43,2.38 15.17,22.25 -8.33,18.4 -9.13,-1.49 -8.79,-4.95 -9.95,-13.14zm104.05 13.25c-1.72,-11.47 5.41,-22.07 18.68,-18.81 -0.03,8.99 -8.18,18.16 -18.68,18.81zm-145.58 -44.31c13.15,-5.13 15.37,8.5 14.52,20.8 -12.31,-2.39 -21.81,-7.81 -14.52,-20.8zm99.81 11.98c-7.04,-17.97 18.86,-25.87 25.28,-18.47 6.35,7.32 -7.34,28.52 -25.28,18.47zm-143.12 -18.6c12.05,3.53 14.83,6.66 14.79,19.19 -5.7,-1.63 -7.91,-2.07 -10.99,-5.86 -2.93,-3.61 -3.68,-7.1 -3.8,-13.33zm102.17 -8.82c-13.32,7.08 -15.66,15.63 -30.46,2.35 -2.54,-2.28 -1.34,-0.09 -3.63,-3.38 -13.89,-19.86 19.77,-33.48 31.14,-14.55 3.05,5.07 2.53,8.18 2.96,15.58zm108.71 -13.04c-3.29,-10.32 -5.84,-25.71 6.96,-28.04 3.18,10.49 4.27,24.06 -6.96,28.04zm-166.36 -14.71c-17.03,-1.6 -16.34,-17.1 -10.36,-28.25 8.16,-0.2 9.71,-0.41 11.57,8.74 1.87,9.22 0.49,11.67 -1.2,19.51zm-53.99 -2.47c-0.72,-0.26 -8.77,1.2 -8.5,-12.51 0.24,-12.21 9.8,-12.59 9.9,-12.63 4.4,8.75 5.69,16.22 -1.4,25.14zm171.56 -1.94c-17.91,3.14 -22.66,-10.94 -13.13,-23.25 13.37,-1.9 14.37,2 18.6,12.62l-5.46 10.63zm29.15 -29.13c-2.58,-8.76 3.59,-10.36 3.64,-10.43 5.63,5.36 7.12,6.97 4.59,15.56 -6.28,-1.2 -6.14,2 -8.24,-5.12zm-73.35 -22.75c3.78,4.67 8.54,7.82 7.18,14.89 -1.45,7.54 -6.13,10.14 -14.99,8.94 -14.15,-1.93 -19.2,-24.66 7.81,-23.82zm66.72 -40.61c13.87,-4.53 21.01,10.28 17.29,22.76 -13.26,-0.8 -20.91,-9.59 -17.29,-22.76zm-61.05 -3.39c12.71,-5.14 28.77,-5.19 27.31,14.04 -11.14,8.09 -22.83,6.79 -28.92,-4.63l1.61 -9.41zm-73.37 1.92c15.88,-12.26 18.72,-6.25 24.78,-1.65 -1.27,16.26 -11.03,16.42 -24.97,15.9l0.2 -14.24zm-51.35 24.77c-3.15,-12.69 5.62,-20.55 15.83,-23.18 2.07,10.38 -1.85,24.99 -15.83,23.18zm163.88 -47.12c-12.18,-1.58 -10.78,0.69 -15.55,-9.16 0.03,-0.01 -0.23,-6.41 9.49,-0.74 5.72,3.33 4.54,6.32 6.06,9.9zm-90.62 -9.16c2.04,-8.11 2.09,-7.61 11.68,-9.51 8.38,-1.66 10.69,-1.64 17.76,0.09 -3.98,13.16 -17,15.49 -29.44,9.42zm6.83 -23.18c-81.22,17.18 -126.1,98.16 -112.87,169.27 13.87,74.5 99.34,129.04 171.93,114.14 112.98,-23.18 160.62,-190.17 56.8,-260.1 -28.32,-19.08 -72.71,-32.44 -115.86,-23.31z"/>
  <path class="fil1" d="M141.1 186.46c-0.43,-7.4 0.09,-10.51 -2.96,-15.58 -11.37,-18.93 -45.03,-5.3 -31.14,14.55 2.29,3.28 1.09,1.1 3.63,3.38 14.81,13.28 17.14,4.73 30.46,-2.35z"/>
  <path class="fil1" d="M182.05 213.87c17.95,10.05 31.64,-11.15 25.28,-18.47 -6.42,-7.4 -32.32,0.5 -25.28,18.47z"/>
  <path class="fil1" d="M162.48 58.41l-1.61 9.41c6.09,11.42 17.78,12.72 28.92,4.63 1.45,-19.23 -14.6,-19.18 -27.31,-14.04z"/>
  <path class="fil1" d="M156.81 102.41c-27.01,-0.83 -21.96,21.9 -7.81,23.82 8.85,1.2 13.54,-1.39 14.99,-8.94 1.36,-7.06 -3.4,-10.22 -7.18,-14.89z"/>
  <path class="fil1" d="M133.71 246.09c23.49,3.85 23.76,-16.02 8.33,-18.4 -9.46,-1.46 -13.21,1.66 -18.28,5.27 1.17,8.18 0.83,11.64 9.95,13.14z"/>
  <path class="fil1" d="M201.01 154.29l5.46 -10.63c-4.23,-10.63 -5.23,-14.52 -18.6,-12.62 -9.53,12.31 -4.78,26.39 13.13,23.25z"/>
  <path class="fil1" d="M89.12 60.33l-0.2 14.24c13.94,0.52 23.7,0.37 24.97,-15.9 -6.06,-4.6 -8.89,-10.61 -24.78,1.65z"/>
  <path class="fil1" d="M83.44 158.7c1.69,-7.84 3.07,-10.29 1.2,-19.51 -1.86,-9.15 -3.4,-8.94 -11.57,-8.74 -5.98,11.15 -6.67,26.66 10.36,28.25z"/>
  <path class="fil1" d="M223.53 61.8c-3.62,13.17 4.03,21.96 17.29,22.76 3.72,-12.48 -3.43,-27.29 -17.29,-22.76z"/>
  <path class="fil1" d="M111.03 28.83c12.45,6.07 25.46,3.73 29.44,-9.42 -7.07,-1.72 -9.38,-1.75 -17.76,-0.09 -9.59,1.9 -9.64,1.4 -11.68,9.51z"/>
  <path class="fil1" d="M82.24 201.89c-7.29,12.99 2.21,18.41 14.52,20.8 0.85,-12.3 -1.37,-25.93 -14.52,-20.8z"/>
  <path class="fil1" d="M37.76 85.11c13.97,1.81 17.9,-12.79 15.83,-23.18 -10.21,2.63 -18.98,10.49 -15.83,23.18z"/>
  <path class="fil1" d="M29.45 156.23c7.09,-8.92 5.8,-16.39 1.4,-25.14 -0.1,0.04 -9.66,0.42 -9.9,12.63 -0.27,13.71 7.78,12.25 8.5,12.51z"/>
  <path class="fil1" d="M249.81 173.42c11.23,-3.98 10.14,-17.55 6.96,-28.04 -12.79,2.33 -10.25,17.71 -6.96,28.04z"/>
  <path class="fil1" d="M227.81 246.2c10.5,-0.66 18.65,-9.82 18.68,-18.81 -13.27,-3.25 -20.4,7.34 -18.68,18.81z"/>
  <path class="fil1" d="M53.72 214.47c0.04,-12.54 -2.74,-15.66 -14.79,-19.19 0.12,6.23 0.87,9.72 3.8,13.33 3.08,3.79 5.29,4.23 10.99,5.86z"/>
  <path class="fil1" d="M96.88 250.74c-7.79,-3.24 -8.37,-0.27 -10.7,0.82 2.75,8.08 9.76,9.55 17.17,6.89 -1.94,-4.31 0.03,-5 -6.47,-7.7z"/>
  <path class="fil1" d="M186.1 28.83c4.77,9.84 3.37,7.57 15.55,9.16 -1.52,-3.58 -0.34,-6.57 -6.06,-9.9 -9.72,-5.67 -9.46,0.73 -9.49,0.74z"/>
  <path class="fil1" d="M238.4 130.29c2.52,-8.59 1.04,-10.2 -4.59,-15.56 -0.05,0.07 -6.22,1.67 -3.64,10.43 2.1,7.12 1.96,3.92 8.24,5.12z"/>
 </g>
</svg>
