<?xml version="1.0" encoding="UTF-8"?>
<!DOCTYPE svg PUBLIC "-//W3C//DTD SVG 1.1//EN" "http://www.w3.org/Graphics/SVG/1.1/DTD/svg11.dtd">
<!-- Creator: CorelDRAW 2020 (64 Bit) -->
<svg xmlns="http://www.w3.org/2000/svg" xml:space="preserve" width="7.2004mm" height="7.0727mm" version="1.1" style="shape-rendering:geometricPrecision; text-rendering:geometricPrecision; image-rendering:optimizeQuality; fill-rule:evenodd; clip-rule:evenodd"
viewBox="0 0 48.15 47.29"
 xmlns:xlink="http://www.w3.org/1999/xlink"
 xmlns:xodm="http://www.corel.com/coreldraw/odm/2003">
 <defs>
  <style type="text/css">
   <![CDATA[
    .str2 {stroke:#B5884D;stroke-width:0.51;stroke-miterlimit:22.9256}
    .str1 {stroke:#CC9255;stroke-width:0.51;stroke-miterlimit:22.9256}
    .str0 {stroke:#E5AB73;stroke-width:0.51;stroke-miterlimit:22.9256}
    .fil3 {fill:#B5884D}
    .fil2 {fill:#CC9255}
    .fil0 {fill:#DBA468}
    .fil1 {fill:#E5AB73}
   ]]>
  </style>
 </defs>
 <g id="Camada_x0020_1">
  <metadata id="CorelCorpID_0Corel-Layer"/>
  <path class="fil0" d="M17.32 37.65l6.91 1.05c-0.59,1.98 -1.03,1.76 -3.27,1.13 -2.46,-0.69 -3.05,-1.89 -3.64,-2.18zm8.59 -9.52c-0.96,2.48 -0.8,3.24 -6.13,2.04 -4.52,-1.01 -3.62,-0.63 -4.62,-3.17 4.37,0.59 6.14,1.64 10.75,1.13zm-12.16 -15.49c1.86,0.41 2.77,0.04 3.75,1.34 -1.71,0.97 -3.64,0.86 -3.75,-1.34zm-12.01 3.03c1.46,1.87 -0.83,0.45 1.21,2.59 0.12,0.12 0.51,0.43 0.66,0.53 0.11,0.08 0.25,0.17 0.38,0.25 0.13,0.08 0.27,0.16 0.4,0.24l5.05 1.56c2.77,0.17 3.25,-0.56 4.02,-1.2 -1.43,-1.75 0.2,-0.82 -2.81,-1.39 -0.72,-0.14 -2.08,-0.25 -2.92,-0.31 2.08,-2.77 -4.3,-0.23 4.07,-0.81 4.15,-0.29 -1.7,-1.28 6,-0.05 0.25,0.04 7.1,0.48 9.28,1.27 0.19,0.07 0.42,0.5 0.55,0.34 0.14,-0.16 0.38,0.24 0.55,0.38 -0.78,1.51 -0.47,1.74 -4.51,1.9 -5.02,0.2 -3.56,-0.45 -3.28,-0.79l-2.08 0.35c0.07,0.13 0.22,0.32 0.25,0.39l0.57 1c-1.21,1.56 1.8,1.68 -1.91,1.13 1.79,1.37 0.56,-0.06 1.42,1.73 -1.89,-0.03 -3.6,-0.44 -4.93,-0.99 -0.53,1.87 2.62,0.95 -5.89,0.95 0.39,1.58 0.51,2.82 0.54,4.98 -2.27,0.08 -2.93,-0.36 -4.26,0.44l0.61 1.78c-2.42,-0.73 -0.91,-0.04 -1.43,-0.98 -1.92,0 -1.51,-0.51 -1.46,1.31 8.53,21.46 45.37,21.1 46.33,-8.67 0.92,-28.69 -41,-31.07 -46.39,-7.93z"/>
  <path class="fil1 str0" d="M1.87 16.28c0.04,4.17 0.48,2.46 3.35,5.05 -0.29,0.14 -0.26,0.44 -1.33,0.44 -1.61,-0 0.03,0.18 -1.27,-0.37 -1.74,-0.73 -0.18,-0.65 -2.17,-0.94 -0.36,2.69 -0.31,6.43 0.93,8.46l2.7 1.24c1.33,-0.8 1.99,-0.37 4.26,-0.44 -0.03,-2.16 -0.15,-3.4 -0.54,-4.98 8.51,0 5.36,0.92 5.89,-0.95l0.04 -1.09 3.47 0.35c3.71,0.55 0.7,0.42 1.91,-1.13l-0.57 -1c-0.03,-0.06 -0.17,-0.25 -0.25,-0.39 -4.14,-0.83 -2.56,-0.79 -3.07,-1.46 1.4,-0.83 1.15,-0.8 3.06,-0.29 2.37,0.64 1.41,0.33 2.08,1.4 -0.29,0.34 -1.74,0.99 3.28,0.79 4.04,-0.16 3.73,-0.39 4.51,-1.9 -0.17,-0.14 -0.41,-0.55 -0.55,-0.38 -0.13,0.16 -0.37,-0.27 -0.55,-0.34 -2.18,-0.79 -9.02,-1.23 -9.28,-1.27 -7.69,-1.23 -1.85,-0.24 -6,0.05 -8.37,0.59 -1.99,-1.95 -4.07,0.81 0.83,0.06 2.19,0.18 2.92,0.31 3.01,0.57 1.37,-0.36 2.81,1.39 -0.77,0.64 -1.25,1.37 -4.02,1.2l-5.05 -1.56c-0.13,-0.07 -0.27,-0.16 -0.4,-0.24 -0.12,-0.08 -0.26,-0.16 -0.38,-0.25 -0.14,-0.1 -0.54,-0.41 -0.66,-0.53 -2.05,-2.14 0.53,-0.86 -0.93,-2.73l-0.15 0.76z"/>
  <path class="fil2 str1" d="M25.91 28.13c-4.61,0.5 -6.38,-0.54 -10.75,-1.13 1,2.55 0.11,2.16 4.62,3.17 5.33,1.2 5.16,0.44 6.13,-2.04z"/>
  <path class="fil3" d="M0.21 20.35c2,0.29 0.68,0.32 2.42,1.05 1.31,0.55 -0.34,0.37 1.27,0.37 1.07,0 1.04,-0.3 1.33,-0.44 -2.87,-2.59 -3.54,-0.98 -3.58,-5.15 -1.01,1.5 -1.13,2.09 -1.43,4.16z"/>
  <path class="fil3 str2" d="M17.32 37.65c0.59,0.29 1.18,1.48 3.64,2.18 2.24,0.63 2.68,0.86 3.27,-1.13l-6.91 -1.05z"/>
  <path class="fil3 str2" d="M18.3 20.53l2.08 -0.35c-0.67,-1.07 0.29,-0.76 -2.08,-1.4 -1.92,-0.52 -1.66,-0.54 -3.06,0.29 0.51,0.67 -1.08,0.63 3.07,1.46z"/>
  <path class="fil3 str2" d="M13.69 23.78c1.32,0.55 3.04,0.96 4.93,0.99 -0.86,-1.78 0.37,-0.36 -1.42,-1.73l-3.47 -0.35 -0.04 1.09z"/>
  <path class="fil2" d="M1.82 32.34c-0.02,-0.91 -0.1,-1.23 -0.01,-1.35 0.09,-0.13 0.38,-0.03 1.39,-0.03 0.53,0.95 -0.89,0.29 1.58,1.04l-0.63 -1.81 -3.16 -1.45 0.84 3.61z"/>
  <path class="fil3 str2" d="M17.49 13.97c-0.97,-1.3 -1.88,-0.92 -3.75,-1.34 0.1,2.2 2.04,2.31 3.75,1.34z"/>
 </g>
</svg>
