<?xml version="1.0" encoding="UTF-8"?>
<!DOCTYPE svg PUBLIC "-//W3C//DTD SVG 1.1//EN" "http://www.w3.org/Graphics/SVG/1.1/DTD/svg11.dtd">
<!-- Creator: CorelDRAW 2020 (64 Bit) -->
<svg xmlns="http://www.w3.org/2000/svg" xml:space="preserve" width="14.6403mm" height="8.1062mm" version="1.1" style="shape-rendering:geometricPrecision; text-rendering:geometricPrecision; image-rendering:optimizeQuality; fill-rule:evenodd; clip-rule:evenodd"
viewBox="0 0 141.94 78.59"
 xmlns:xlink="http://www.w3.org/1999/xlink"
 xmlns:xodm="http://www.corel.com/coreldraw/odm/2003">
 <defs>
  <style type="text/css">
   <![CDATA[
    .str2 {stroke:#F0902F;stroke-width:0.74;stroke-miterlimit:22.9256}
    .str3 {stroke:#F27229;stroke-width:0.74;stroke-miterlimit:22.9256}
    .str0 {stroke:#F4BA17;stroke-width:0.74;stroke-miterlimit:22.9256}
    .str1 {stroke:#F9CD1A;stroke-width:0.74;stroke-miterlimit:22.9256}
    .fil0 {fill:#9D624A}
    .fil3 {fill:#F0902F}
    .fil4 {fill:#F27229}
    .fil1 {fill:#F4BA17}
    .fil2 {fill:#F9CD1A}
   ]]>
  </style>
 </defs>
 <g id="Camada_x0020_1">
  <metadata id="CorelCorpID_0Corel-Layer"/>
  <g id="_2253343218992">
   <path class="fil0" d="M126.37 67.48c1.77,-1.24 1.49,-0.51 2.97,-2.91 0.52,-0.84 0.82,-1.92 1.31,-2.74 1.5,-2.51 2.81,-2.54 5.31,-3.96 1.03,-9.3 3.43,-4.67 -2.07,-15.98l-10.85 -9.75c-6.08,-3.68 -9.78,-4.86 -14.11,-0.26 -5.02,5.34 -8.78,1.02 -12.08,7.65 -1.4,2.8 -1.34,4.98 -2.88,7.79 -5.86,10.69 0.82,11.92 6.76,19.54 10.48,13.45 15.45,4.99 23.21,2.15l2.46 -1.52z"/>
   <path class="fil1 str0" d="M135.95 57.87c-2.5,1.43 -3.8,1.45 -5.31,3.96 -0.49,0.81 -0.78,1.9 -1.31,2.74 -1.49,2.4 -1.2,1.67 -2.97,2.91l1.69 2.59c-24.91,14.08 -28.02,-0.71 -35.94,-2.8 -4.86,-1.28 -8.1,-1.26 -10.02,-6.49l3.37 -0.69c-6.92,-4.27 -2.59,0.15 -9.15,-5.85l5.37 -2.3c-2.67,-2.33 -3.65,-3.31 -4.26,-7.04l6.33 0.4c-1.58,-10.53 -6.46,-11.17 -8.23,-12.38 2.82,-2.32 10.31,-3.36 13.9,-1.64 2.47,-0.15 -2.13,-5.34 -2.08,-8.7 8.12,0.76 5.34,4.52 11.71,5.07l-3.16 -8.09c13,2.06 8.95,4.64 16.5,5.12 8.69,0.55 9.44,2.74 14.34,7.83 4.41,4.58 12.66,4.05 12.55,19.41 -0.03,3.59 -1.23,4.33 -2.26,8.09 -3.94,-3.04 -1.18,2 -1.08,-2.13zm-68.65 -0.9c1.59,0.47 2.72,0.89 3.62,1.83 1.68,1.76 0.16,0.1 0.29,1.15 0.12,1.02 -1.45,-0.83 0.43,1.34 6.65,7.66 13.98,4.05 21.42,9.83 1.69,1.32 1.66,1.69 3.64,2.94 12.15,7.62 31.48,4.13 36.78,-5.33 0.88,-1.57 1.05,-2.48 1.83,-3.89 1.31,-2.36 1.39,-1.72 2.98,-3.59 5.84,-6.87 3.61,-22.33 -4.47,-27.64 -2.47,-1.62 -5.21,-2.49 -7.59,-4.67 -2.45,-2.25 -3.33,-4.6 -6.04,-7.11 -5.03,-4.65 -12.23,-3.94 -16.42,-8.14l1.18 3.61 -7.07 -2.37c-7.63,-0.33 -7.82,-1.76 -12.79,-2.52 1.33,4.97 1.48,-0.19 1.62,4.63l-9.32 -0.27c0.57,3.46 1.32,3.77 2.8,5.58 -3.76,-0.61 -7.78,-1.73 -11.54,-0.11 1.77,3.62 0.97,0.24 6.96,5.71 -7.99,0.21 -7.53,-1.59 -13.74,-2.91 0.68,4.25 2.13,6.22 5.59,9.36 0.17,0.16 0.72,0.59 0.87,0.73 2.04,1.92 -0.42,-1.72 0.96,1.07 -1.71,0.83 -4.56,-0.18 -6.71,-0.42 0.62,3.2 0.55,2.54 2.3,5.22 1.09,1.68 1.62,2.13 2.52,4.2 2.4,5.54 -0.93,-1.7 0.54,3.18 0.72,2.38 1.86,0.94 2.2,3.79 -3.39,0.24 -2.69,-0.72 -6.72,-0.13 1.47,3.47 -0.05,0.66 1.65,2.71 0.13,0.16 0.31,0.3 0.45,0.46 0.13,0.15 0.32,0.29 0.45,0.42l1.34 1.35z"/>
   <path class="fil2 str1" d="M126.37 67.48l-2.46 1.52c-7.76,2.84 -12.72,11.3 -23.21,-2.15 -5.93,-7.62 -12.62,-8.85 -6.76,-19.54 1.54,-2.81 1.49,-4.99 2.88,-7.79 3.3,-6.63 7.06,-2.31 12.08,-7.65 4.33,-4.6 8.03,-3.42 14.11,0.26l10.85 9.75c5.5,11.31 3.1,6.69 2.07,15.98 -0.1,4.13 -2.86,-0.92 1.08,2.13 1.02,-3.76 2.23,-4.5 2.26,-8.09 0.11,-15.35 -8.14,-14.83 -12.55,-19.41 -4.9,-5.09 -5.65,-7.28 -14.34,-7.83 -7.54,-0.48 -3.5,-3.06 -16.5,-5.12l3.16 8.09c-6.36,-0.55 -3.59,-4.31 -11.71,-5.07 -0.06,3.36 4.55,8.55 2.08,8.7 -3.59,-1.72 -11.08,-0.69 -13.9,1.64 1.77,1.21 6.65,1.86 8.23,12.38l-6.33 -0.4c0.6,3.73 1.59,4.71 4.26,7.04l-5.37 2.3c6.56,6 2.23,1.58 9.15,5.85l-3.37 0.69c1.93,5.23 5.17,5.21 10.02,6.49 7.92,2.09 11.03,16.88 35.94,2.8l-1.69 -2.59z"/>
   <path class="fil3 str2" d="M65.22 9.93l1.03 2.38c-19.82,0.74 -8.39,0.83 -18.91,-2.56 0.74,3.5 -0.51,1.47 2.44,3.73 4.58,3.51 4.07,2.25 7.86,3.67l2.85 1.82c-5.06,1.41 -6.95,1.16 -11.8,0.41 1.08,2.85 1.11,2.33 2.82,4.47 -6.31,0.02 -9.21,-6.5 -14.89,-2.42 5.22,2.33 4.25,1.17 9,6.14 1.21,1.27 1.08,3.89 4,6.51l-6.4 -1.27c4.44,9.26 8.1,6.42 9.74,11.99 2.4,3.16 -2.14,-1.09 3.41,4.76 1.09,1.15 0.87,1.21 1.81,2.32 2,2.37 5.01,3.94 9.13,5.1l-1.34 -1.35c-0.13,-0.14 -0.32,-0.27 -0.45,-0.42 -0.14,-0.15 -0.31,-0.3 -0.45,-0.46 -1.7,-2.04 -0.17,0.76 -1.65,-2.71 4.03,-0.59 3.32,0.37 6.72,0.13 -0.34,-2.85 -1.48,-1.41 -2.2,-3.79 -1.47,-4.88 1.86,2.36 -0.54,-3.18 -0.89,-2.06 -1.42,-2.52 -2.52,-4.2 -1.75,-2.68 -1.68,-2.02 -2.3,-5.22 2.15,0.23 5,1.24 6.71,0.42 -1.37,-2.79 1.09,0.85 -0.96,-1.07 -0.15,-0.14 -0.7,-0.57 -0.87,-0.73 -3.46,-3.13 -4.91,-5.11 -5.59,-9.36 6.21,1.32 5.75,3.12 13.74,2.91 -5.99,-5.46 -5.19,-2.09 -6.96,-5.71 3.76,-1.62 7.78,-0.5 11.54,0.11 -1.49,-1.8 -2.23,-2.12 -2.8,-5.58l9.32 0.27c-0.14,-4.83 -0.29,0.34 -1.62,-4.63 4.98,0.76 5.16,2.2 12.79,2.52 -6.07,-6.07 -19.12,-6.22 -20.32,-5.81l-0.97 0.5c-4,2.04 -8.77,-1.57 -12.08,-2.35l0.7 2.65z"/>
   <path class="fil4 str3" d="M46.12 39.12c0.09,0.2 0.24,0.27 0.27,0.59 0.03,0.32 0.21,0.46 0.25,0.6 0.06,0.18 0.41,1.7 0.47,1.97 3.24,0.57 3.15,0.79 5.85,2.53 -1.65,-5.57 -5.31,-2.73 -9.74,-11.99l6.4 1.27c-2.92,-2.62 -2.79,-5.24 -4,-6.51 -4.75,-4.97 -3.78,-3.82 -9,-6.14 5.68,-4.08 8.58,2.44 14.89,2.42 -1.71,-2.14 -1.73,-1.63 -2.82,-4.47 4.85,0.75 6.75,1 11.8,-0.41l-2.85 -1.82c-3.8,-1.42 -3.28,-0.16 -7.86,-3.67 -2.95,-2.26 -1.7,-0.23 -2.44,-3.73 10.52,3.4 -0.91,3.3 18.91,2.56l-1.03 -2.38c-0.32,-0.13 -1.97,-0.66 -2.82,-0.58 -4.21,0.41 1.64,0.17 -2.84,1.3 -1.44,-0.16 -6.51,-4.86 -9.66,-4.04l-1 0.42c-0.19,0.05 -0.41,0.15 -0.62,0.2l-7.41 0.66c-7.77,0.8 -2.87,4.09 -14.69,2.86l2.78 4.2c-8.41,-0.83 -9.44,-1.18 -17.68,0.11l2.95 1.22c6.94,2.29 4.52,2.98 9.25,5.62 -1.34,2.23 -3.85,0.55 0.96,3.68 2.49,1.62 4.14,1.94 6.95,2.27l-3.32 2.39c8.01,3.67 -2.1,1.49 18.04,8.89z"/>
   <path class="fil4" d="M9.51 23.64c0.63,-5.67 -4.81,-4.6 -9.51,-4.84 1.51,2.66 4.74,6.08 9.51,4.84z"/>
   <path class="fil4" d="M35.75 44.14c0.01,-0.03 2.06,0.51 -0.1,-2.44 -1.47,-2.02 -6.92,-1.16 -9.02,-1 3.59,1.42 4.03,4.41 9.12,3.44z"/>
   <path class="fil4" d="M31.87 0.9c2.55,1.77 4.95,3.07 8.08,1.55 -1.61,-3.22 -5.63,-2.74 -8.08,-1.55z"/>
  </g>
 </g>
</svg>
