<?xml version="1.0" encoding="UTF-8"?>
<!DOCTYPE svg PUBLIC "-//W3C//DTD SVG 1.1//EN" "http://www.w3.org/Graphics/SVG/1.1/DTD/svg11.dtd">
<!-- Creator: CorelDRAW 2020 (64 Bit) -->
<svg xmlns="http://www.w3.org/2000/svg" xml:space="preserve" width="12.8182mm" height="11.389mm" version="1.1" style="shape-rendering:geometricPrecision; text-rendering:geometricPrecision; image-rendering:optimizeQuality; fill-rule:evenodd; clip-rule:evenodd"
viewBox="0 0 170.78 151.73"
 xmlns:xlink="http://www.w3.org/1999/xlink"
 xmlns:xodm="http://www.corel.com/coreldraw/odm/2003">
 <defs>
  <style type="text/css">
   <![CDATA[
    .str0 {stroke:#506EB5;stroke-width:1.02;stroke-miterlimit:22.9256}
    .fil0 {fill:#506EB5}
    .fil1 {fill:#699ACB}
    .fil2 {fill:#8D8D8D}
   ]]>
  </style>
 </defs>
 <g id="Camada_x0020_1">
  <metadata id="CorelCorpID_0Corel-Layer"/>
  <path class="fil0 str0" d="M40.98 122.71c1.9,-5.58 3.09,-6.08 7.8,-8.47 7.28,-3.7 30.24,-13.68 35.56,-6.19 -6.98,3.87 -17.63,-0.06 -36.88,11.62 -1.52,0.92 -4.42,2.19 -6.48,3.04zm73.77 -30.18c6.74,-2.44 27.22,-0.95 29.22,7.81 -5.38,0.03 -8.51,-2.77 -13.72,-4.34 -4.76,-1.43 -11.99,-0.68 -15.5,-3.48zm-110.71 -22.65c-0.18,-10.59 20.97,-20.66 28.83,-21.49 -1.7,5.04 0.41,1.77 -6.42,6.53 -3.14,2.2 -4.14,2.88 -7.49,4.8l-7.32 5.26c-2.06,1.85 -4.5,3.89 -7.6,4.9zm77.2 -36.09c10.66,-0.76 26.45,-2.59 32.95,6.58 -1.19,0.49 0.03,0.8 -3.55,0.76 -1.82,-0.02 -10.03,-2.74 -20.86,-3.41 -7.66,-0.47 -6.28,-0.97 -8.54,-3.93zm-27.19 -24.83c10.52,-6.45 37.05,-9.14 41.78,-0.1 -5.59,0.89 -16.12,-0.71 -22.91,-0.6 -4.43,0.07 -16.41,2.01 -18.87,0.7zm89.24 102.75c13.52,-25.76 11.84,-57.85 -4.86,-79.28 -6.78,-8.71 -15.7,-17.3 -27.54,-23.21 -17.11,-8.54 -21.9,-8 -42.9,-8.7l-2.11 0.36c-22.82,4.85 -35.21,10.81 -47.05,24.87 -35.69,42.38 -15.55,97.98 28.24,118.33 8.81,4.09 18.14,6.69 30.78,6.9 0.57,0.17 2.51,0.27 3.08,0.25 32.28,-0.37 52.28,-17.64 62.36,-39.52z"/>
  <path class="fil1" d="M40.98 122.71c2.06,-0.85 4.97,-2.12 6.48,-3.04 19.25,-11.67 29.9,-7.75 36.88,-11.62 -5.32,-7.49 -28.28,2.49 -35.56,6.19 -4.71,2.39 -5.91,2.89 -7.8,8.47z"/>
  <path class="fil1" d="M54.05 8.95c2.46,1.31 14.44,-0.63 18.87,-0.7 6.79,-0.11 17.31,1.5 22.91,0.6 -4.72,-9.05 -31.26,-6.35 -41.78,0.1z"/>
  <path class="fil1" d="M4.04 69.87c3.11,-1.01 5.54,-3.05 7.6,-4.9l7.32 -5.26c3.36,-1.92 4.35,-2.6 7.49,-4.8 6.83,-4.77 4.72,-1.49 6.42,-6.53 -7.86,0.83 -29.01,10.9 -28.83,21.49z"/>
  <path class="fil1" d="M114.19 40.37c-6.51,-9.17 -22.3,-7.34 -32.95,-6.58 2.26,2.97 0.88,3.46 8.54,3.93 10.83,0.66 19.04,3.39 20.86,3.41 3.58,0.05 2.36,-0.27 3.55,-0.76z"/>
  <path class="fil1" d="M143.97 100.34c-2.01,-8.76 -22.49,-10.26 -29.22,-7.81 3.51,2.79 10.74,2.04 15.5,3.48 5.2,1.57 8.34,4.36 13.72,4.34z"/>
  <path class="fil2" d="M169.94 143.76l-2.22 -1.73 -0.66 -7c-0.59,2.56 -0.19,2.1 -0.34,4.59 -0.07,1.14 -0.11,2.19 -0.34,3.31l-0.94 1.86c-1.4,-2.2 -0.56,0.56 -1.19,-2.9 -0.95,-5.22 2.02,-4.69 -1.96,-6.67 1.96,6.86 0.27,4.47 -0.11,10.06l8.59 0.91c-1.77,-1.85 -0.53,0.14 -0.84,-2.42z"/>
 </g>
</svg>
