<?xml version="1.0" encoding="UTF-8"?>
<!DOCTYPE svg PUBLIC "-//W3C//DTD SVG 1.1//EN" "http://www.w3.org/Graphics/SVG/1.1/DTD/svg11.dtd">
<!-- Creator: CorelDRAW 2020 (64 Bit) -->
<svg xmlns="http://www.w3.org/2000/svg" xml:space="preserve" width="42.9754mm" height="83.7608mm" version="1.1" style="shape-rendering:geometricPrecision; text-rendering:geometricPrecision; image-rendering:optimizeQuality; fill-rule:evenodd; clip-rule:evenodd"
viewBox="0 0 2354.44 4588.9"
 xmlns:xlink="http://www.w3.org/1999/xlink"
 xmlns:xodm="http://www.corel.com/coreldraw/odm/2003">
 <defs>
  <style type="text/css">
   <![CDATA[
    .fil0 {fill:#D9EA2B;fill-rule:nonzero}
   ]]>
  </style>
 </defs>
 <g id="Camada_x0020_1">
  <metadata id="CorelCorpID_0Corel-Layer"/>
  <path class="fil0" d="M226.69 4.81c-49.53,-3.26 -98.9,-4.65 -148.53,-4.81l0 29.91c49.01,0.16 97.77,1.53 146.67,4.75l1.86 -29.85zm-226.69 4582.74l0 -29.93c25.83,0.86 51.67,1.28 77.56,1.38l0 29.91c-25.89,-0.09 -51.73,-0.5 -77.56,-1.35zm226.19 -3.43c49.48,-3.3 98.75,-7.95 147.92,-14.45l-3.89 -29.65c-48.56,6.42 -97.21,11 -146.08,14.26l2.04 29.84zm294.61 -38.58c48.47,-9.47 97.18,-20.94 144.89,-33.81l-7.68 -28.89c-47.06,12.7 -95.1,24 -142.93,33.34l5.72 29.35zm287.19 -77.12c46.92,-15.83 93.53,-33.68 139.27,-52.71l-11.3 -27.64c-45.14,18.76 -91.1,36.38 -137.4,52l9.43 28.35zm274.83 -114.53c44.37,-22.03 88.48,-45.61 131.26,-70.66l-14.83 -25.87c-42.32,24.7 -85.68,47.94 -129.54,69.72l13.1 26.81zm257.69 -149.86c41.35,-27.97 81.38,-56.85 120.99,-87.3l-17.93 -23.78c-39.13,30.08 -78.7,58.63 -119.55,86.27l16.48 24.81zm236.19 -182.44c37.42,-32.94 73.59,-67.21 108.84,-102.52l-20.85 -21.2c-34.75,34.85 -70.5,68.7 -107.42,101.19l19.43 22.53zm210.87 -211.99c32.87,-37.58 64.39,-76.3 94.78,-115.97l-23.41 -18.24c-29.94,39.13 -61.12,77.38 -93.54,114.44l22.17 19.77zm181.88 -237.95c27.72,-41.63 54.07,-84.13 79.04,-127.5l-25.58 -14.97c-24.58,42.78 -50.67,84.79 -77.99,125.83l24.54 16.64zm149.63 -260c22.09,-45.12 42.47,-90.43 61.79,-136.84l-27.26 -11.52c-19.1,45.84 -39.21,90.59 -61.03,135.16l26.51 13.2zm114.51 -277.62c16.07,-47.43 30.54,-95.59 43.41,-144.01l-28.56 -7.66c-12.6,47.7 -27,95.34 -42.82,142.05l27.97 9.62zm77.28 -290.53c9.57,-49.36 17.77,-98.69 24.22,-148.57l-29.3 -3.79c-6.38,49.2 -14.45,97.84 -23.89,146.52l28.98 5.84zm38.74 -298.34c3.25,-50.18 4.67,-100.14 4.84,-150.42l-29.54 0c-0.16,49.64 -1.57,98.98 -4.78,148.51l29.49 1.91zm0.03 -300.93c-3.31,-50.13 -8.01,-99.96 -14.49,-149.78l-29.28 3.98c6.4,49.19 11.03,98.38 14.3,147.88l29.47 -2.08zm-38.67 -298.35c-9.85,-49.3 -20.93,-97.96 -33.85,-146.54l-28.5 7.85c12.72,48.02 23.67,95.98 33.41,144.71l28.94 -6.02zm-77.22 -290.55c-16.12,-47.64 -33.65,-94.19 -52.66,-140.71l-27.26 11.52c18.77,45.97 36.08,91.92 52.01,138.98l27.91 -9.8zm-114.45 -277.64c-21.95,-44.91 -45.66,-89.21 -70.56,-132.51l-25.49 15.13c24.57,42.77 47.95,86.4 69.63,130.75l26.43 -13.36zm-149.56 -260.03c-27.71,-41.6 -56.74,-82.33 -87.08,-122.01l-23.29 18.4c29.94,39.16 58.58,79.35 85.93,120.4l24.45 -16.8zm-181.83 -237.99c-32.84,-37.5 -66.77,-74.28 -102.01,-109.49l-20.71 21.32c34.76,34.94 68.18,70.96 100.67,108.06l22.05 -19.9zm-210.82 -212.03c-37.58,-33.01 -75.64,-64.44 -115.1,-95.12l-17.93 23.78c38.99,30.32 76.6,61.37 113.73,93.99l19.3 -22.65zm-236.14 -182.5c-41.24,-27.84 -83.48,-54.14 -126.41,-79.21l-14.68 25.97c42.37,24.71 84.06,50.7 124.75,78.17l16.34 -24.92zm-257.66 -149.92c-44.49,-22.09 -89.72,-42.77 -135.55,-61.85l-11.13 27.71c45.2,18.79 89.87,39.25 133.73,61.04l12.94 -26.9zm-274.71 -114.55c-46.91,-16.11 -94.52,-30.46 -142.38,-43.38l-7.51 28.94c47.2,12.74 94.19,26.91 140.46,42.79l9.43 -28.35zm-287.27 -77.22c-48.75,-9.58 -97.44,-17.7 -146.68,-24.16l-3.71 29.68c48.63,6.38 96.72,14.41 144.85,23.87l5.53 -29.39z"/>
 </g>
</svg>
