<?xml version="1.0" encoding="UTF-8"?>
<!DOCTYPE svg PUBLIC "-//W3C//DTD SVG 1.1//EN" "http://www.w3.org/Graphics/SVG/1.1/DTD/svg11.dtd">
<!-- Creator: CorelDRAW 2020 (64 Bit) -->
<svg xmlns="http://www.w3.org/2000/svg" xml:space="preserve" width="4.0583mm" height="4.0468mm" version="1.1" style="shape-rendering:geometricPrecision; text-rendering:geometricPrecision; image-rendering:optimizeQuality; fill-rule:evenodd; clip-rule:evenodd"
viewBox="0 0 13 12.97"
 xmlns:xlink="http://www.w3.org/1999/xlink"
 xmlns:xodm="http://www.corel.com/coreldraw/odm/2003">
 <defs>
  <style type="text/css">
   <![CDATA[
    .str0 {stroke:#B68C6A;stroke-width:0.24;stroke-miterlimit:22.9256}
    .fil1 {fill:#B68C6A}
    .fil0 {fill:#B68C6A}
    .fil3 {fill:#D3A874}
    .fil2 {fill:#D4B28D}
   ]]>
  </style>
 </defs>
 <g id="Camada_x0020_1">
  <metadata id="CorelCorpID_0Corel-Layer"/>
  <ellipse class="fil0 str0" cx="6.5" cy="6.48" rx="6.38" ry="6.36"/>
  <path class="fil1" d="M2.45 7.84c1.26,-0.35 0.92,0.15 1.17,0.56 -0.27,0.44 -0.12,1.29 -1.84,0.38 0.01,-0.43 -0.13,-0.72 0.66,-0.93zm2.28 0.09c0.2,-0.86 1.06,-1.2 2.07,-0.62 -0.24,0.47 0.04,0.58 -0.92,0.73 -0.51,0.08 -0.7,-0.02 -1.15,-0.11zm-1.66 -4.53c-0.06,-1.39 1.66,-1.63 2.9,-1.74 -0.09,1.34 -1.64,2.58 -2.9,1.74zm-2.95 3.05c1.19,-0.55 0.35,-0.2 1.2,-1.27l3.61 0.14c0.03,-0.06 0.12,0.05 0.18,0.09 -0.64,0.89 -1.27,0.76 -2.31,1.24 -0.76,0.35 -1.34,0.99 -1.81,1.4l-0.69 -0.2c0.28,1.45 0.75,2.61 1.97,3.28 1.27,-0.7 3.45,-1.66 5.34,-1.17 0.03,1.24 -1.9,2.08 -3,2.39 0.31,0.26 -0.04,0.13 0.53,0.32 0.2,0.07 0.52,0.13 0.73,0.15 0.65,0.07 1.29,-0.01 1.94,-0.05 2.04,-0.6 3.43,-1.21 4.2,-3.06 -1.42,0.19 -1.52,1 -2.43,0.58 0.3,-0.54 1.33,-1.23 1.76,-1.47 0.08,0.05 0.23,0.14 0.28,0.17l0.6 0.31c0.57,-0.93 0.96,-2.9 0.38,-3.82 -0.4,0.88 -0.16,0.77 -0.71,1.56 -0.68,0.11 -0.73,-0.04 -1.34,0.17 -0.89,0.32 -1.45,1.35 -3.2,0.82 -0.05,-0.94 0.2,-1.11 0.64,-1.64 0.72,-0.87 0.27,-0.49 1.37,-0.87 1.75,-0.6 1.16,-1.83 3.03,-1.2 -0.21,-0.67 -0.32,-1.01 -0.65,-1.5 -0.11,-0.16 -0.22,-0.3 -0.35,-0.44l-0.43 -0.42c-0.03,-0.03 -0.1,-0.09 -0.16,-0.14l-0.14 0.79 -1.52 0.42 -1.34 1.05c-0.86,0.72 -1.73,1.39 -2.32,-0.3 0.75,-1.23 0.69,-0.45 1.48,-1.22 0.52,-1.51 0.66,-1.46 2.2,-1.65 -0.59,-0.61 -0.42,-0.54 -2.01,-0.79l-0.74 -0c-3.64,-0 -6.05,2.82 -6.3,6.33z"/>
  <path class="fil2" d="M12.6 5.48l-0.21 -1.16c-1.87,-0.62 -1.29,0.61 -3.03,1.2 -1.1,0.38 -0.65,0 -1.37,0.87 -0.44,0.53 -0.68,0.71 -0.64,1.64 1.76,0.53 2.31,-0.49 3.2,-0.82 0.6,-0.22 0.66,-0.06 1.34,-0.17 0.54,-0.8 0.31,-0.69 0.71,-1.56z"/>
  <path class="fil2" d="M2.27 11.13c0.31,0.42 0.02,0.14 0.42,0.47 0.03,0.02 0.43,0.31 0.49,0.35 0.71,0.41 0.66,0.37 1.42,0.39 1.1,-0.3 3.03,-1.15 3,-2.39 -1.88,-0.49 -4.06,0.47 -5.34,1.17z"/>
  <path class="fil2" d="M0.12 6.45l0.19 1.41 0.69 0.2c0.46,-0.41 1.05,-1.05 1.81,-1.4 1.04,-0.48 1.67,-0.35 2.31,-1.24 -0.06,-0.04 -0.15,-0.15 -0.18,-0.09l-3.61 -0.14c-0.85,1.06 -0.01,0.72 -1.2,1.27z"/>
  <path class="fil2" d="M6.98 2.56c-0.79,0.78 -0.73,-0.01 -1.48,1.22 0.58,1.68 1.46,1.02 2.32,0.3l1.34 -1.05 -0.23 -0.91 -1.94 0.44z"/>
  <path class="fil3" d="M6.98 2.56l1.94 -0.44 0.23 0.91 1.52 -0.42 0.14 -0.79c-0.47,-0.43 -0.8,-0.83 -1.63,-0.91 -1.54,0.19 -1.68,0.14 -2.2,1.65z"/>
  <path class="fil3" d="M3.07 3.4c1.25,0.84 2.81,-0.4 2.9,-1.74 -1.24,0.12 -2.95,0.36 -2.9,1.74z"/>
  <path class="fil3" d="M1.79 8.77c1.71,0.91 1.57,0.07 1.84,-0.38 -0.25,-0.41 0.09,-0.9 -1.17,-0.56 -0.79,0.22 -0.66,0.51 -0.66,0.93z"/>
  <path class="fil3" d="M12.01 9.71l0.21 -0.41 -0.6 -0.31c-0.05,-0.03 -0.2,-0.12 -0.28,-0.17 -0.42,0.24 -1.46,0.93 -1.76,1.47 0.91,0.42 1.01,-0.39 2.43,-0.58z"/>
  <path class="fil3" d="M4.73 7.93c0.45,0.09 0.64,0.19 1.15,0.11 0.96,-0.14 0.68,-0.26 0.92,-0.73 -1.01,-0.58 -1.86,-0.25 -2.07,0.62z"/>
 </g>
</svg>
