<?xml version="1.0" encoding="UTF-8"?>
<!DOCTYPE svg PUBLIC "-//W3C//DTD SVG 1.1//EN" "http://www.w3.org/Graphics/SVG/1.1/DTD/svg11.dtd">
<!-- Creator: CorelDRAW 2020 (64 Bit) -->
<svg xmlns="http://www.w3.org/2000/svg" xml:space="preserve" width="9.5934mm" height="9.615mm" version="1.1" style="shape-rendering:geometricPrecision; text-rendering:geometricPrecision; image-rendering:optimizeQuality; fill-rule:evenodd; clip-rule:evenodd"
viewBox="0 0 43.89 43.99"
 xmlns:xlink="http://www.w3.org/1999/xlink"
 xmlns:xodm="http://www.corel.com/coreldraw/odm/2003">
 <defs>
  <style type="text/css">
   <![CDATA[
    .fil0 {fill:black}
   ]]>
  </style>
 </defs>
 <g id="Camada_x0020_1">
  <metadata id="CorelCorpID_0Corel-Layer"/>
  <g id="_2384426629216">
   <path class="fil0" d="M30.23 35.79l10.84 0c0,0.69 0.09,1.02 0.09,1.73l0 3.64 -10.93 0 0 -5.37zm-13.75 -8.2l10.93 0 0 13.57 -10.93 0 0 -13.57zm-13.75 12.02l0 -5.65 10.93 0 0 7.19 -10.84 0c0,-0.64 -0.09,-0.89 -0.09,-1.55zm10.93 -13.2l0 4.83 -12.38 0c-0.76,0 -1.27,0.52 -1.27,1.27l0 10.29c0,0.56 0.62,1.18 1.18,1.18l41.52 0c0.56,0 1.18,-0.63 1.18,-1.18l0 -8.47c0,-0.93 -0.61,-1.37 -1.55,-1.37l-12.11 0 0 -6.56c0,-0.89 -0.4,-1.64 -1.37,-1.64l-13.84 0c-0.95,0 -1.37,0.69 -1.37,1.64z"/>
   <path class="fil0" d="M21.85 4.65l0.18 0c0.06,0.26 1.76,3.71 1.95,3.97 0.3,0.42 1.62,0.56 2.35,0.66l2.63 0.38c-0.15,0.54 -2.66,2.61 -3.06,3.22 -0.48,0.74 -0.16,1.64 -0.04,2.52 0.06,0.45 0.34,2.49 0.46,2.73 -0.61,-0.16 -3.77,-2.19 -4.46,-2.19 -0.58,0 -1.8,0.72 -2.31,0.97 -0.77,0.39 -1.51,0.73 -2.25,1.12 0.18,-0.77 0.3,-1.81 0.43,-2.58 0.13,-0.8 0.45,-1.9 0.12,-2.52 -0.23,-0.44 -2.85,-3.03 -2.85,-3.13 -0.01,-0.23 0.36,-0.16 1.12,-0.24l2.66 -0.35c0.57,-0.08 0.76,-0.15 1.1,-0.45 0.48,-0.43 1.27,-2.35 1.54,-3.02 0.16,-0.39 0.33,-0.63 0.44,-1.11zm-11.38 4.01c0,1.01 1.05,1.57 1.66,2.16 0.7,0.67 2.64,2.74 3.34,3.21l-0.78 4.5c-0.09,0.52 -0.38,1.89 -0.36,2.22 0.07,0.93 0.79,1.3 1.68,1.3 0.59,0 5.66,-2.92 6.03,-2.95 0.55,-0.04 5.16,2.95 6.27,2.95 1.96,0 1.4,-1.97 1.21,-3.12l-0.85 -4.89c0.57,-0.38 1.9,-1.85 2.48,-2.44 0.76,-0.76 2.25,-1.98 2.25,-2.75 0,-1.69 -1.66,-1.55 -3.2,-1.81 -5,-0.85 -3.95,-0.02 -5.15,-2.41l-1.67 -3.43c-0.47,-0.94 -1.18,-1.58 -2.28,-0.91 -0.67,0.41 -2.43,4.85 -3.06,5.87 -0.26,0.41 -1.09,0.38 -1.94,0.52 -0.68,0.12 -1.54,0.24 -2.21,0.34 -1.38,0.19 -3.45,0.21 -3.45,1.65z"/>
  </g>
 </g>
</svg>
