<?xml version="1.0" encoding="UTF-8"?>
<!DOCTYPE svg PUBLIC "-//W3C//DTD SVG 1.1//EN" "http://www.w3.org/Graphics/SVG/1.1/DTD/svg11.dtd">
<!-- Creator: CorelDRAW 2020 (64 Bit) -->
<svg xmlns="http://www.w3.org/2000/svg" xml:space="preserve" width="18.2454mm" height="14.0686mm" version="1.1" style="shape-rendering:geometricPrecision; text-rendering:geometricPrecision; image-rendering:optimizeQuality; fill-rule:evenodd; clip-rule:evenodd"
viewBox="0 0 1270.57 979.71"
 xmlns:xlink="http://www.w3.org/1999/xlink"
 xmlns:xodm="http://www.corel.com/coreldraw/odm/2003">
 <defs>
  <style type="text/css">
   <![CDATA[
    .str0 {stroke:#F9C378;stroke-width:5.31;stroke-miterlimit:22.9256}
    .fil9 {fill:#1D1D1D}
    .fil1 {fill:#E7E6D7}
    .fil5 {fill:#E8E6D9}
    .fil8 {fill:#EECA91}
    .fil2 {fill:#F5BB6B}
    .fil3 {fill:#F6B767}
    .fil4 {fill:#F6BB75}
    .fil7 {fill:#F6C688}
    .fil11 {fill:#F7C996}
    .fil6 {fill:#F9C378}
    .fil0 {fill:#F9C378}
    .fil10 {fill:#F9E7D0}
   ]]>
  </style>
 </defs>
 <g id="Camada_x0020_1">
  <metadata id="CorelCorpID_0Corel-Layer"/>
  <ellipse class="fil0 str0" cx="615.27" cy="489.85" rx="490.54" ry="487.2"/>
  <path class="fil1" d="M129.85 412.28c25.21,8.8 40.09,30.4 58.15,45.17l300.26 206.78c31.69,17.76 109.89,48.7 132,67.88 31.8,3.89 117.24,45.96 164.21,60.74 27,8.49 58.59,17.4 82.37,24.09 25.67,7.23 65.82,12.95 86.74,22.87l43.61 7.43c10.71,-14.93 -4.55,-6.59 33.64,-14.69 26.82,-5.69 10.42,4.81 18.81,-10.82l-40.74 11.6 -17.61 -35.15c25.4,-0.09 14.5,-4.25 21.38,-5.75 0.94,-0.2 2.56,-0.88 3.49,-0.97l6.99 0.22c1.65,0.36 10.51,5.54 12.94,6.44l-0.03 -27.07c5.93,9.24 -1.83,10.27 43.32,7.35l12.15 -3.86c-26.09,2.81 -18,-3.17 -33.03,14.16l91.93 9.42 -30.15 -29.09 12.49 -6.29c-37.95,4.59 -67.66,5.9 -111.99,5.9 41.59,-17.28 64.86,7.9 94.28,-16.36l-87.45 -2.86c-113.7,-18.33 -222.56,-58.38 -313.4,-98.08 -63.55,-17.32 -251.91,-125.05 -303.02,-157.28 -48.34,-30.49 -214.6,-148.84 -253.73,-203.71 -0.81,-1.14 -2.04,-3.15 -3.03,-4.75 -3.59,-22.26 -49.09,-61.48 -24.66,-101.25 17.79,-28.95 70.43,-25.9 111.3,-22.02 1.36,-0.87 3.06,-2.15 3.95,-2.81 0.86,-0.66 2.83,-2.01 3.86,-2.81l17.18 -14.52c11.89,6.4 3.42,-0.33 14.32,10.62l27.41 32.03c14.85,18.93 19.9,25.46 38.17,44.06 30.13,30.65 52.31,50.21 79.63,79.69 27.3,29.46 50.8,49.07 89.36,69.32 50.31,26.41 73.06,80.63 206.53,118.57 134.19,38.15 62.58,6.34 180.15,61.62l179.9 55.85 5.08 -13.6c-157.43,-31.92 -197.76,-74.07 -287.76,-94.56 -100.41,-22.86 -181.4,-55.17 -255.06,-124.15l-9.9 -2.12c-12.3,0 -9.54,2.15 -3.48,-9.05 -52.31,-17.77 -106.61,-80.79 -137.14,-112.1 -18.86,-19.32 -43.09,-37.28 -62.14,-61.86 -13.78,-17.79 -42.86,-47.24 -49.4,-67.68l12.35 -18.29c0.54,-2.63 1.71,-3.15 2.58,-4.71 -54.56,-12.77 -113.5,-24.52 -172.44,-21.56 -205.6,10.33 -110.1,202.24 -38.04,274.92 16.25,16.4 39.15,33.3 43.67,53.12z"/>
  <path class="fil2" d="M343.45 87.26c53.2,68.36 114.63,159.8 181.44,203.8l10.91 6.85c10.61,7.27 6.32,5.08 17.02,12.56 38.26,26.77 29.71,11.38 25.73,33.67 25.53,-3.31 22.67,6.58 67.65,14.87 52.07,9.59 94.45,75.95 167.08,90.77 46.53,9.5 87.14,30.17 136.73,39.06l148.61 23.2 -6.29 -106.35 -210.6 -46.2c-98.37,-33.11 -247.75,-125.87 -309.25,-198.04 -21.49,-25.22 -32.49,-37.59 -56.7,-67.43l-59.15 -64.56c-22.86,7.09 -41.3,14.19 -62.48,24.09 -10.08,4.71 -18.52,8.96 -27.42,13.91 -18.69,10.4 -12.01,2.6 -23.29,19.78z"/>
  <path class="fil2" d="M241.07 162.31c-2.31,4.58 -6.3,12.12 -8.09,14.97l21.31 25.72c5.32,9.16 6.72,11.55 13.27,21.59 11.54,17.7 24.04,30.22 28.68,48.33 21.32,2.6 13.82,2.23 27.92,19.04 12.42,14.81 13.73,11.12 18.5,29.34 21.9,6.09 44.54,41.84 69.62,65.24 27.19,25.38 128.03,94.26 165.04,105.79 128.44,40.01 99.99,57.65 176.78,95.3 48.84,23.94 188.06,79.99 242.58,93.1 17.12,4.12 44.14,3.5 54.05,16.14 16.21,-21.48 23.78,-53.86 30.81,-82.95l-179.9 -55.85c-117.57,-55.27 -45.97,-23.47 -180.15,-61.62 -133.47,-37.94 -156.22,-92.15 -206.53,-118.57 -38.56,-20.25 -62.06,-39.86 -89.36,-69.32 -27.32,-29.48 -49.51,-49.04 -79.63,-79.69 -18.27,-18.6 -23.32,-25.13 -38.17,-44.06l-27.41 -32.03c-10.9,-10.95 -2.43,-4.22 -14.32,-10.62l-17.18 14.52c-1.04,0.81 -3,2.15 -3.86,2.81 -0.88,0.66 -2.58,1.94 -3.95,2.81z"/>
  <path class="fil3" d="M189.97 241.38l47.99 65.79c22.89,39.92 19.38,33.69 55.26,63.34 134.11,110.81 48.33,49.86 202.67,150.86 23.95,15.67 46.25,30.07 72.5,45.74 40.63,24.24 118.31,43.01 145.83,84.21 90.84,39.71 199.69,79.76 313.4,98.08l21.79 -47.95c-62.51,0.7 -161.03,-40.47 -211.07,-63.49 -145.75,-67.01 -41.39,-9.57 -175.1,-95.12 -59.55,-38.11 -170.08,-43.98 -294.89,-182.9 -4.53,-5.03 -15.29,-16.32 -17.01,-18.57 -9.13,-11.85 -7.39,-5.39 -8.67,-20.09 -22.11,-3.52 -13.98,-2.69 -28.36,-19.51 -13.08,-15.29 -14.1,-10.24 -18.06,-28.86 -16.43,-3.83 -12.02,-0.82 -24.11,-17.49 -5.56,-7.67 -7.83,-11.48 -14.04,-20.88 -10.82,-16.41 -22.67,-31.38 -29.78,-52.28 -12.94,16.28 -28.46,36.58 -38.34,59.12z"/>
  <path class="fil3" d="M126.69 530.93l19.58 3.43c15.47,27.68 20.43,17.42 35.61,46.09 15.22,18.06 42.61,30.88 69.75,49.28 30.06,20.38 41.53,41.36 64.23,59.6 36.86,29.6 89,41.06 120.31,62.47 15.79,10.79 21.52,18.35 35.91,28.64 107.26,76.72 160.53,73.5 252.31,118.95 91.61,45.36 21.12,11.56 96.93,36.68 17.01,-5.63 63.72,-31.43 78.19,-46.33 5.3,-5.46 4.7,-5.94 6.46,-8.57l-115.45 -26.34c-111.35,-17.35 -109.51,-36.1 -188.17,-74.37 -3.5,-1.7 -8.03,-3.74 -11.23,-5.4l-15.41 -8.82c-18.64,-11.33 -28.36,-17.81 -46.43,-29.25l-61.23 -41.66c-53.34,-30.7 -24.5,-7.31 -56.86,-24.25 -33,-17.26 -47.9,-33.78 -68.77,-50.38 -17.72,-14.08 -28,-11.23 -48.45,-27.03 -59.92,-46.32 -73.75,-73.52 -118.14,-105.43 -26.1,-18.75 -8.92,-25.61 -43.27,-30.89l-3.15 -20.34c-7.48,23.61 -4.36,78.91 -2.72,93.94z"/>
  <path class="fil3" d="M206.45 767.95c17.81,2.38 59.39,37.72 78.36,53.11 30.65,24.86 35.56,41.38 69.85,53.62 40.15,14.34 57.16,11.78 87.21,36.91l79.5 46.19c-7.97,7.58 11.36,5.68 -12.77,6.6 56.27,20.88 227.63,22.28 269.45,-15.03 -25.1,6.86 -30.83,1.02 -70.38,-4.49 -25.26,-3.52 -70.68,-18.59 -94.29,-33.98 -43.54,-28.39 -14.61,-14.19 -76.21,-39.4 -45.08,-18.45 -163.15,-79.95 -191.32,-111.12l-4.24 -9.4c-33.67,-4.18 -31.99,-15.19 -47.4,-35.01 -26.4,-33.94 -101.8,-66.59 -111.76,-114.11l-51.58 -35.27c9.99,66.04 40.88,161.77 75.58,201.4z"/>
  <path class="fil4" d="M129.4 436.99l3.15 20.34c34.35,5.28 17.17,12.14 43.27,30.89 44.39,31.91 58.22,59.11 118.14,105.43 20.45,15.81 30.74,12.95 48.45,27.03 20.88,16.6 35.77,33.12 68.77,50.38 32.36,16.94 3.52,-6.46 56.86,24.25l61.23 41.66c18.07,11.45 27.79,17.92 46.43,29.25l15.41 8.82c3.2,1.66 7.73,3.7 11.23,5.4 78.66,38.27 76.82,57.01 188.17,74.37l115.45 26.34c19.94,-5.36 21.68,-7.03 29.76,-28.15 -17.51,-9.78 -52.99,-12.19 -78.9,-21.53 -27.81,-10.04 -53.61,-22.95 -79.91,-31.63 -69.14,-22.81 -106.98,-30.15 -156.65,-67.74 -22.11,-19.17 -100.31,-50.12 -132,-67.88l-300.26 -206.78c-18.06,-14.76 -32.95,-36.37 -58.15,-45.17l-0.45 24.71z"/>
  <path class="fil5" d="M1092.46 594.32c26.41,20.03 49.17,44.92 66.2,77.75 28.91,55.77 -7.76,65.81 -43.6,80.19 -29.42,24.26 -52.68,-0.91 -94.28,16.36 44.33,0 74.04,-1.31 111.99,-5.9l-12.49 6.29 30.15 29.09 -91.93 -9.42c15.03,-17.33 6.94,-11.35 33.03,-14.16l-12.15 3.86c-45.15,2.92 -37.39,1.89 -43.32,-7.35l0.03 27.07c-2.43,-0.91 -11.29,-6.08 -12.94,-6.44l-6.99 -0.22c-0.93,0.09 -2.55,0.77 -3.49,0.97 -6.88,1.5 4.02,5.65 -21.38,5.75l17.61 35.15 40.74 -11.6c-8.39,15.63 8.02,5.13 -18.81,10.82 -38.19,8.11 -22.93,-0.24 -33.64,14.69 74.22,6.27 169.67,20.29 236.32,-25.02l19.6 -13.57c0.53,-0.33 2.01,-1.2 3.06,-1.71 9.62,-29.9 21.09,-56.81 9.54,-94.55 -14.85,-48.54 -67.63,-110.45 -100.56,-141.13 -12.4,-11.55 -20.06,-16.12 -32.28,-26.89 -13.25,-11.68 -20.41,-20.45 -34.25,-32.32l-6.17 82.28z"/>
  <path class="fil3" d="M473.27 27.7l54.72 60.36c28.49,34.93 82.39,100.52 119.44,128.15 46.43,34.63 193.55,114.54 235.6,129.39 31.52,11.14 173.72,44.14 205.53,46.01l-17.61 -60.19c-15.85,15.86 19.86,10.08 -20.72,12.65 -41.14,-1.8 -55.64,-14.07 -83.36,-26.27 -76.96,-33.84 -64.09,2.34 -152.81,-66.56 -0.86,-0.66 -2.14,-1.82 -3.04,-2.45 -0.93,-0.65 -2.37,-1.61 -3.35,-2.23l-11.68 -5.81c-41.15,-21.82 -47.37,-21.66 -77.21,-48.31 -14.64,-13.08 -15.71,-10.1 -29.84,-23.47 -5.94,-5.61 -8.93,-9.11 -14.14,-15.84 -22.91,-29.56 -18.92,-13.2 -43.29,-32.97l-16.78 -17.79c-0.87,-0.75 -2.26,-1.81 -3.18,-2.53 -27.95,-21.62 -12.72,-0.88 -35.7,-31.32 -20.29,-26.86 -37.51,-44.31 -40.75,-60.78 -22.49,5.63 -47.43,8.07 -61.85,19.96z"/>
  <path class="fil4" d="M1045.64 280.61c-9.12,-23.41 -22.52,-43.27 -35.31,-61.66 -6.21,-8.94 -13.98,-19.74 -19.79,-27.4 -11,-14.5 -12.7,-14.39 -26.27,-22.99 -15.65,11.52 -25.01,2.93 -40.11,-3 -45.59,-17.91 -19.73,2.39 -80.52,-32.4 -20.56,-11.76 -18.78,-8.18 -36.32,-16.85 -14.87,-7.35 -5.24,-3.93 -18.2,-11.86 -10.42,-6.37 -10.39,-4.28 -19.63,-10.6l-37.56 -44.71c-28.04,-44.48 -59.92,-30.59 -27.99,-33.89l-19.23 -7.05 -17.29 11.66c17.28,11.04 19.88,9.41 28.77,24.25 21.1,35.21 18.36,21.49 29.73,46.48 -28.44,-13.33 -23,-12.21 -48.2,-46.43 -27.53,-37.39 -26.11,1.77 -38.59,-37.88 25.64,4.34 8.7,5.89 33.6,3.66 -7.71,-4.72 7.07,-0.74 -12.45,-5.48 -6.97,-1.7 -15.21,-2.47 -22.37,-2.88 -15.49,-0.9 -33.29,-0.08 -48.88,0.41 10.61,17.15 64.42,77.33 90.3,93.52 99.92,62.49 68.75,59.03 102.42,81.14 22.63,14.86 37.97,19.19 55.22,32.74 30.13,23.66 29.38,17.43 67.69,27.59 51.55,13.67 71.28,46.56 140.98,43.64z"/>
  <path class="fil6" d="M535.11 7.74c3.23,16.47 20.46,33.92 40.75,60.78 22.97,30.44 7.74,9.69 35.7,31.32 0.92,0.72 2.31,1.78 3.18,2.53l16.78 17.79c24.37,19.76 20.38,3.41 43.29,32.97 5.22,6.73 8.2,10.23 14.14,15.84 14.13,13.36 15.2,10.39 29.84,23.47 29.85,26.66 36.07,26.5 77.21,48.31l11.68 5.81c0.98,0.62 2.42,1.58 3.35,2.23 0.9,0.63 2.18,1.79 3.04,2.45 88.73,68.9 75.86,32.72 152.81,66.56 27.72,12.19 42.22,24.46 83.36,26.27 40.58,-2.57 4.87,3.21 20.72,-12.65l-20.47 -41.11c-48.75,14.43 -98.4,-24.94 -137.97,-38.19 -24.69,-8.27 -52.89,-11.85 -70.29,-23.98l-62.19 -38.27c-27.94,-16.77 -25.26,-28.39 -48.68,-45.63 -41.11,-30.24 -69.33,-40.36 -108.42,-86.3 -15.92,-18.71 -36.89,-30.64 -43.73,-55.33l-44.09 5.14z"/>
  <path class="fil7" d="M625.29 414.44c0.17,18.25 -19.31,7.67 41.49,30.25 91.08,33.83 71.44,29.27 181.05,51.27 88.64,17.79 130.73,56.68 240.18,66.34l-0.36 31.25 4.81 0.77 6.17 -82.28 -148.61 -23.2c-49.58,-8.89 -90.2,-29.56 -136.73,-39.06 -72.63,-14.83 -115.01,-81.18 -167.08,-90.77 -44.98,-8.29 -42.12,-18.18 -67.65,-14.87 0.31,4.83 -8.66,11.73 25.21,22.11 15.8,4.85 26.98,5.22 40.31,8.4 55.17,13.16 65.01,69.1 188.95,97.56 -50.86,-1.19 -109.76,-22.3 -156.9,-43.14 -0.15,-0.07 -22.34,-10.81 -25.13,-11.79l-25.7 -2.83z"/>
  <path class="fil6" d="M341.61 750.94l4.24 9.4c28.16,31.17 146.24,92.67 191.32,111.12 61.6,25.22 32.67,11.01 76.21,39.4 23.61,15.4 69.03,30.46 94.29,33.98 39.55,5.52 45.28,11.35 70.38,4.49 15.03,0.48 8.42,4.89 17.17,-5.59 -37.98,-2.88 -32.42,-4.71 -61.22,-23.99 -45.83,-30.7 -116.75,-38.98 -182.3,-77.37 -39.31,-23.02 -77.37,-40.08 -108.74,-68.09 -18.04,-16.11 -88.73,-51.95 -113.74,-57.06 -25.53,-2.44 -1.5,-12.96 -10.4,4.26 25.95,22.6 31.32,0.75 22.79,29.45z"/>
  <path class="fil8" d="M154.43 285.58c0.99,1.6 2.21,3.61 3.03,4.75 39.14,54.87 205.4,173.22 253.73,203.71 51.1,32.23 239.46,139.96 303.02,157.28 -27.52,-41.2 -105.19,-59.97 -145.83,-84.21 -26.25,-15.67 -48.55,-30.07 -72.5,-45.74 -154.34,-101 -68.56,-40.05 -202.67,-150.86 -35.88,-29.64 -32.37,-23.42 -55.26,-63.34l-47.99 -65.79c-10.08,11.62 -7.11,11.8 -13.93,23.77 -15.1,26.51 0.38,12.86 -21.6,20.43z"/>
  <path class="fil2" d="M1086.61 600.33l1.04 -6.78 0.36 -31.25c-109.45,-9.66 -151.55,-48.55 -240.18,-66.34 -109.61,-22 -89.97,-17.44 -181.05,-51.27 -60.8,-22.58 -41.32,-12 -41.49,-30.25 -8.53,-0.14 -5.54,0.67 -14.64,-2.27l-40.33 -24.87c-34.93,-26.13 -22.63,-13.29 -26.52,-5.68 73.66,68.98 154.64,101.29 255.06,124.15 89.99,20.49 130.33,62.64 287.76,94.56z"/>
  <path class="fil6" d="M964.27 168.56c-3.52,-9.71 1.36,-1.41 -5.24,-10.7 -3.64,-5.12 -6.57,-7.82 -10.96,-12.12 -50.06,-49 -93.64,-81.41 -161.83,-109.22 -4.4,-1.79 -13.66,-5.11 -17.01,-6.83l-12.32 -7.79c-1.01,-0.68 -2.74,-2.03 -4.05,-3.12 -26.02,3.18 -21.24,-7.46 -48.92,-3.52 -31.94,3.29 -0.05,-10.59 27.99,33.89l37.56 44.71c9.24,6.32 9.21,4.23 19.63,10.6 12.96,7.92 3.32,4.51 18.2,11.86 17.53,8.66 15.76,5.08 36.32,16.85 60.79,34.78 34.93,14.48 80.52,32.4 15.1,5.93 24.46,14.52 40.11,3z"/>
  <path class="fil2" d="M307.5 105.64c-0.91,1.41 -2.42,3.5 -2.79,4.15l-5.58 12.27c23.59,6.66 7.62,-0.6 25.18,16.55l56.5 55.32c0.86,0.95 2.02,2.28 2.88,3.25l55.64 62.51c5.42,6.87 8.88,12.12 15.7,19.11 8.48,8.69 12.6,11.24 21.8,19.8l142.03 105.84c9.12,9.42 2.14,-1.55 6.43,10.01l25.7 2.83c2.79,0.97 24.98,11.72 25.13,11.79 47.14,20.84 106.04,41.95 156.9,43.14 -123.94,-28.45 -133.78,-84.39 -188.95,-97.56 -13.32,-3.18 -24.51,-3.55 -40.31,-8.4 -33.86,-10.38 -24.9,-17.28 -25.21,-22.11 -11.48,-0.25 -8.37,-0.68 -14.25,-3.11l-34.05 -25.4c-47.33,-30.15 -60.83,-36.71 -95.35,-81.32 -15.04,-19.44 -15.59,-12.31 -29.19,-35.7l-74.11 -107.01 -24.09 14.03z"/>
  <path class="fil9" d="M1081.52 613.93c-7.03,29.09 -14.6,61.47 -30.81,82.95l-1.32 4.58 -21.79 47.95 87.45 2.86c35.84,-14.37 72.51,-24.42 43.6,-80.19 -17.03,-32.83 -39.79,-57.72 -66.2,-77.75l-4.81 -0.77 -1.04 6.78 -5.08 13.6z"/>
  <path class="fil10" d="M130.86 566.55l51.58 35.27 146.78 115.41c25.01,5.11 95.7,40.95 113.74,57.06 31.37,28.01 69.43,45.08 108.74,68.09 65.55,38.39 136.47,46.68 182.3,77.37 28.8,19.28 23.24,21.11 61.22,23.99l26.1 -7.69c-75.81,-25.12 -5.32,8.68 -96.93,-36.68 -91.78,-45.45 -145.06,-42.23 -252.31,-118.95 -14.39,-10.29 -20.12,-17.85 -35.91,-28.64 -31.3,-21.41 -83.45,-32.86 -120.31,-62.47 -22.71,-18.24 -34.17,-39.23 -64.23,-59.6 -27.14,-18.39 -54.53,-31.21 -69.75,-49.28 -19.4,-8.1 -8.15,-2.61 -25.56,-14.47 -14.83,-10.1 -6.66,-6.89 -27.95,-14.14l2.5 14.71z"/>
  <path class="fil10" d="M1049.39 701.46l1.32 -4.58c-9.91,-12.64 -36.92,-12.03 -54.05,-16.14 -54.51,-13.11 -193.73,-69.16 -242.58,-93.1 -76.8,-37.65 -48.34,-55.29 -176.78,-95.3 -37.01,-11.53 -137.85,-80.42 -165.04,-105.79 -25.08,-23.41 -47.72,-59.15 -69.62,-65.24 1.28,14.7 -0.46,8.24 8.67,20.09 1.73,2.25 12.49,13.54 17.01,18.57 124.81,138.92 235.33,144.78 294.89,182.9 133.7,85.55 29.35,28.11 175.1,95.12 50.04,23.02 148.57,64.19 211.07,63.49z"/>
  <path class="fil10" d="M456.64 29.47l59.15 64.56c24.21,29.84 35.21,42.21 56.7,67.43 61.5,72.17 210.88,164.92 309.25,198.04l210.6 46.2 -3.78 -14.08c-31.81,-1.87 -174.01,-34.87 -205.53,-46.01 -42.05,-14.85 -189.17,-94.76 -235.6,-129.39 -37.05,-27.63 -90.95,-93.22 -119.44,-128.15l-54.72 -60.36 -16.62 1.77z"/>
  <path class="fil9" d="M154.43 285.58c21.98,-7.57 6.5,6.08 21.6,-20.43 6.82,-11.97 3.85,-12.16 13.93,-23.77 9.88,-22.53 25.4,-42.83 38.34,-59.12l4.67 -4.99c1.79,-2.84 5.79,-10.39 8.09,-14.97 -40.86,-3.88 -93.51,-6.93 -111.3,22.02 -24.43,39.77 21.07,78.99 24.66,101.25z"/>
  <path class="fil2" d="M530.41 370.44c-5.7,-20.7 6.53,-1.82 -15.31,-21.69l-138.59 -138.52c-10.93,-14.52 -15.45,-16.32 -28.42,-30.04 -16.28,-17.24 -45.72,-48.66 -66.36,-51.39 6.54,20.44 35.62,49.89 49.4,67.68 19.05,24.58 43.28,42.53 62.14,61.86 30.54,31.3 84.84,94.32 137.14,112.1z"/>
  <path class="fil10" d="M1050.48 290.31l-4.84 -9.71c-69.7,2.92 -89.44,-29.97 -140.98,-43.64 -38.31,-10.16 -37.56,-3.93 -67.69,-27.59 -17.25,-13.54 -32.6,-17.88 -55.22,-32.74 -33.67,-22.11 -2.5,-18.65 -102.42,-81.14 -25.88,-16.19 -79.69,-76.37 -90.3,-93.52l-9.83 0.63c6.84,24.69 27.81,36.62 43.73,55.33 39.09,45.94 67.31,56.06 108.42,86.3 23.42,17.24 20.74,28.86 48.68,45.63l62.19 38.27c17.4,12.14 45.6,15.72 70.29,23.98 39.58,13.25 89.22,52.62 137.97,38.19z"/>
  <path class="fil7" d="M578.55 344.14c3.98,-22.29 12.53,-6.9 -25.73,-33.67 -10.7,-7.49 -6.41,-5.29 -17.02,-12.56l-10.91 -6.85c-66.81,-44 -128.25,-135.44 -181.44,-203.8l-11.85 4.35 74.11 107.01c13.6,23.38 14.15,16.26 29.19,35.7 34.52,44.6 48.02,51.16 95.35,81.32l34.05 25.4c5.88,2.44 2.78,2.86 14.25,3.11z"/>
  <path class="fil11" d="M281.73 128.8c20.63,2.72 50.08,34.15 66.36,51.39 12.97,13.73 17.49,15.52 28.42,30.04l138.59 138.52c21.84,19.87 9.61,0.99 15.31,21.69 -6.06,11.2 -8.82,9.05 3.48,9.05l9.9 2.12c3.89,-7.6 -8.41,-20.45 26.52,5.68l40.33 24.87c9.1,2.94 6.11,2.13 14.64,2.27 -4.29,-11.57 2.69,-0.6 -6.43,-10.01l-142.03 -105.84c-9.2,-8.56 -13.31,-11.11 -21.8,-19.8 -6.82,-6.98 -10.28,-12.24 -15.7,-19.11l-55.64 -62.51c-0.86,-0.97 -2.02,-2.29 -2.88,-3.25l-56.5 -55.32c-17.56,-17.14 -1.59,-9.88 -25.18,-16.55l5.58 -12.27c0.38,-0.65 1.89,-2.74 2.79,-4.15l-10.84 0.17c-0.87,1.56 -2.04,2.08 -2.58,4.71l-12.35 18.29z"/>
  <path class="fil10" d="M247.34 815.03c18.8,8.75 36.02,23.13 49.92,34.45 83.2,67.76 39.74,22.67 110.84,54.71l37.42 27.31c0.93,1.09 2.17,2.28 3.01,3.45l6.59 14.73 53.49 14.69c24.13,-0.93 4.8,0.98 12.77,-6.6l-79.5 -46.19c-30.06,-25.13 -47.07,-22.57 -87.21,-36.91 -34.3,-12.24 -39.21,-28.76 -69.85,-53.62 -18.96,-15.38 -60.54,-50.72 -78.36,-53.11 14.91,18.41 24.83,33 40.89,47.08z"/>
  <path class="fil8" d="M935.72 853.01l17.87 -13.2c-20.92,-9.92 -61.07,-15.64 -86.74,-22.87 -23.79,-6.69 -55.38,-15.6 -82.37,-24.09 -46.98,-14.78 -132.41,-56.85 -164.21,-60.74 49.67,37.58 87.51,44.92 156.65,67.74 26.3,8.68 52.1,21.59 79.91,31.63 25.91,9.35 61.39,11.75 78.9,21.53z"/>
  <path class="fil7" d="M341.61 750.94c8.53,-28.7 3.16,-6.85 -22.79,-29.45 8.9,-17.22 -15.13,-6.71 10.4,-4.26l-146.78 -115.41c9.97,47.52 85.36,80.17 111.76,114.11 15.41,19.82 13.73,30.84 47.4,35.01z"/>
  <path class="fil4" d="M455.11 949.68l-6.59 -14.73c-0.84,-1.18 -2.08,-2.37 -3.01,-3.45l-37.42 -27.31c-71.09,-32.04 -27.63,13.04 -110.84,-54.71 -13.89,-11.32 -31.12,-25.7 -49.92,-34.45 11.61,22.76 22.36,26.81 42.01,42.43 17.8,14.15 27.55,22.1 47.01,35.54 28.71,19.83 81.6,47.44 118.75,56.69z"/>
  <path class="fil7" d="M684.71 8.2l-11.97 1.73c-24.9,2.24 -7.96,0.68 -33.6,-3.66 12.48,39.65 11.05,0.49 38.59,37.88 25.19,34.22 19.76,33.11 48.2,46.43 -11.37,-24.99 -8.63,-11.27 -29.73,-46.48 -8.89,-14.84 -11.5,-13.2 -28.77,-24.25l17.29 -11.66z"/>
  <path class="fil10" d="M296.23 272.92c-4.64,-18.11 -17.14,-30.63 -28.68,-48.33 -6.55,-10.05 -7.95,-12.44 -13.27,-21.59l-21.31 -25.72 -4.67 4.99c7.1,20.91 18.96,35.88 29.78,52.28 6.2,9.41 8.47,13.22 14.04,20.88 12.09,16.66 7.68,13.66 24.11,17.49z"/>
  <path class="fil11" d="M128.36 551.84c21.3,7.25 13.12,4.03 27.95,14.14 17.4,11.86 6.16,6.37 25.56,14.47 -15.18,-28.67 -20.15,-18.41 -35.61,-46.09l-19.58 -3.43 1.68 20.91z"/>
  <path class="fil10" d="M342.65 321.3c-4.76,-18.22 -6.07,-14.53 -18.5,-29.34 -14.11,-16.81 -6.6,-16.44 -27.92,-19.04 3.96,18.62 4.98,13.57 18.06,28.86 14.39,16.82 6.25,16 28.36,19.51z"/>
 </g>
</svg>
