<?xml version="1.0" encoding="UTF-8"?>
<!DOCTYPE svg PUBLIC "-//W3C//DTD SVG 1.1//EN" "http://www.w3.org/Graphics/SVG/1.1/DTD/svg11.dtd">
<!-- Creator: CorelDRAW 2020 (64 Bit) -->
<svg xmlns="http://www.w3.org/2000/svg" xml:space="preserve" width="30.9751mm" height="62.3154mm" version="1.1" style="shape-rendering:geometricPrecision; text-rendering:geometricPrecision; image-rendering:optimizeQuality; fill-rule:evenodd; clip-rule:evenodd"
viewBox="0 0 135.23 272.06"
 xmlns:xlink="http://www.w3.org/1999/xlink"
 xmlns:xodm="http://www.corel.com/coreldraw/odm/2003">
 <defs>
  <style type="text/css">
   <![CDATA[
    .str1 {stroke:#F5C93F;stroke-width:2.18;stroke-miterlimit:22.9256}
    .str0 {stroke:#F9A93E;stroke-width:0.87;stroke-miterlimit:22.9256}
    .fil3 {fill:#F5CA3F}
    .fil2 {fill:#F6D23C}
    .fil1 {fill:#F9BD3E}
    .fil0 {fill:#FAA93E}
   ]]>
  </style>
 </defs>
 <g id="Camada_x0020_1">
  <metadata id="CorelCorpID_0Corel-Layer"/>
  <g id="_2228291399552">
   <path class="fil0 str0" d="M1.64 16.27l0 13.55c1.18,-1.86 -0.44,-2.93 1.52,-4.69 0.63,-0.56 0.09,0.06 0.79,-0.71 2.35,-2.58 5.61,-8.69 7.25,-9.53 0.33,0.48 0.26,0.16 0.46,0.97l0.06 2.22c0.04,6.01 3.26,8.35 7.75,13.63l10.99 2.09c3.28,0.41 5.44,-0.82 7.33,-2.71 1.11,-1.11 1.38,-1.59 2.36,-2.82 1.14,-1.43 1.53,-1.99 3.05,-2.12 0.43,1 1.09,2.7 1.34,3.79 0.46,2.09 -0.13,2.54 0.7,4.44 1.53,3.5 -0.17,0.44 1.84,3.35 0.6,0.87 1.52,2.16 1.81,3.09 0.91,0.8 4.05,2.21 5.51,2.94l1.29 0.17 3 -2.63c2.58,-2.21 6.94,-4.93 10.58,-5.33 -0.33,3.35 -2.73,3.48 -1.98,7.7 0.28,1.56 0.65,2.7 0.98,4.45 0.29,1.48 0.22,3.19 0.41,5.01 1.06,0.93 2.24,1.76 3.49,2.85 0.55,0.48 3.08,2.93 3.61,3.14 5.48,0.64 8.95,-0.33 14.23,-0.33 0.16,2.93 -1.5,3.56 -1.2,8.2 0.2,3 1.21,4.91 1.22,8.1 0.13,1.32 2.8,5.77 3.43,6.38 2.01,-0.16 3.34,-1.81 7.72,-1.18 1.23,0.18 2.43,0.27 4.15,0.3 0.66,0.01 1.44,-0.02 2.08,0.04 2.16,0.2 1.79,0.57 2.1,0.86 -1.14,0.54 -2.83,1.32 -3.66,2.58l-4.83 14.44 1 1.1c4.03,-0.36 10.05,0.49 12.34,2.67 -1.82,1.86 -4.78,-0.33 -6.65,3.5 -1.43,2.92 -3.15,3.88 -3.03,7.39l1 10.49c1.75,0.85 0.91,1.04 2.57,1.47l3.02 0.92c1.64,0.6 4.73,0.76 5.26,2.71 -1.22,1.39 -3.75,0.23 -8.54,3.36l-2.36 1.9 0.06 5.81c-0.02,3.53 -1.28,4.58 1.96,7.9 1.57,1.61 5.7,2.89 5.5,4.65 -1.76,0.17 -4.18,-0.12 -5.58,0.74 -0.53,0.32 -0.97,0.78 -1.73,1.12l-2.51 1.05c-0.3,3.23 -1.73,7.33 -2.5,10.61 0.2,2.6 2.02,0.61 5.78,3.14 1.47,0.99 2.67,3.96 2.73,5.92 -1.44,0.01 -0.72,0.05 -1.97,-0.45 -0.08,-0.03 -0.17,-0.09 -0.26,-0.12 -3.95,-1.51 -6.7,0.58 -9.4,1.06 -0.91,1.48 -1.33,2.42 -2.11,4.2 -0.59,1.34 -1.52,3.03 -2.01,4.42 -0.56,4.1 2.16,4.31 4.39,6.09 -0.94,1.34 -5.23,2.35 -7.32,2.69 -1.53,0.25 -1.29,0.47 -2.67,0.86 -0.66,0.31 -1.85,2.23 -2.63,3.29 -0.8,1.09 -1.94,2.16 -2.46,3.43 -0.95,1.39 -0.35,2.11 0.23,3.13 0.35,0.61 0.56,0.96 0.81,1.43 0.04,0.08 0.09,0.17 0.13,0.25 1.03,1.99 0.99,3.24 3.21,5.59 0.92,0.97 0.7,0.11 1.12,1.32 -1.35,0.24 -2.44,0.12 -3.45,-0.49 -0.86,-0.52 -0.35,-0.22 -1.01,-0.85l-0.75 -0.73c-0.08,-0.07 -0.29,-0.27 -0.37,-0.34 -1.58,-1.42 -3.5,-2.01 -6.05,-2.19 -1.18,0.33 -1.35,0.95 -2.22,1.79 -0.69,0.67 -1.41,1.35 -2.27,2.15 -0.77,0.72 -3.82,3.28 -4.74,3.89 -0.49,1.72 -0.14,3.59 1.22,4.76l1.43 1.16c1.89,1.89 2.21,4.28 1.98,7.51 -2.26,0.06 -2.24,-0.52 -3.49,-1.98 -0.3,-0.35 -1.02,-1.18 -1.41,-1.48 -0.1,-0.07 -0.88,-0.68 -2.02,-0.87 -2.37,-0.39 -8.48,-0.58 -10.82,-0.1l-6.32 3.54c-0.49,4.82 -4.1,8.69 0.16,14.95 0.77,1.13 0.62,1.09 0.5,2.46 -2.03,-0.24 -4.03,-0.73 -5.41,-1.62 -1.84,-1.18 -5.97,-9.21 -13.03,-8.91 -2.66,0.2 -6.6,2.09 -9.31,2.09 -2.8,6.19 1.83,11.08 -3.35,16.65 -1,1.08 -2.93,2.51 -4.25,2.8 -0.09,-2.72 3.67,-6.72 -1.19,-11.65 -1.88,-1.9 -2.38,-1.67 -4.76,-2.92 -2.24,-1.18 -2.59,-2.6 -5.52,-2.3 0.07,1.23 0.26,2.33 -0.24,3.11l0 13.86c0.05,-0.09 0.11,-0.33 0.12,-0.28l0.4 -3.36c1.53,1.98 4.24,4.31 5.07,8.25 0.54,2.56 1.18,8.63 3.61,10.42 1.16,-1.24 0.7,-2.21 5.31,-5.8 1.05,-0.82 1.75,-1.67 2.93,-2.59 4.28,-3.36 5.89,-4.15 6.79,-10.07 0.46,-3.03 2.24,-6.48 4.47,-6.97 1.12,0.5 4.93,4.48 5.9,5.51 5.62,6.01 14.15,6.46 21.74,4.45 7.15,-1.9 0.96,-4.11 -0.21,-5.77 -1.04,-1.46 -0.81,-3.94 -1.46,-5.9 -0.4,-1.23 -5.5,-9.22 1.98,-8.96 7.99,0.28 10.1,5.39 11.44,6.97 1.31,1.55 4.28,4.51 6.68,4.15 0.71,-2.2 -0.18,-7.8 2.13,-13.3 1.97,-4.67 2.38,-8.11 2.17,-13.76 3.7,1.48 5.32,4.25 14.3,5.71 4.03,0.66 14.98,-0.1 15.54,-4.12 -1.4,-0.92 -3.9,-0.66 -6.33,-2.15 -1.54,-0.95 -3.03,-2.72 -4.25,-4.22 -1.83,-2.27 -6.61,-6.78 -6.04,-11.01 5.23,-4.81 8.25,-2.27 15.5,-2.49 -0.55,-2.86 -4.81,-2.18 -4.35,-13.91 0.1,-2.5 0.54,-2.87 2.37,-3.84 12.52,-6.62 14.39,3.22 17.65,2.98 0.87,-5.77 -1.72,-8.39 -2.51,-10.16 -0.47,-1.06 -0.66,-2.26 -1.03,-3.38 -0.74,-2.23 -1.84,-4.15 -3.03,-5.81 -2.12,-2.95 -3.35,-1.87 -5.4,-3.37 0.08,-3.32 4.01,-5.83 6.19,-7.36 2.76,-1.93 5.33,-3.96 8.12,-5.45l0.15 -1.23c-5.9,-2.03 -4.87,-0.88 -7.25,-1.72 -2.05,-0.72 -4.47,-2.23 -4.86,-4.46 5.36,-5.07 5.13,-8.93 12.2,-12.62 2.65,-1.38 3.97,-0.94 7.08,-1.3 -0.79,-5.56 -9.74,-5.36 -10.95,-5.62 -3.16,-0.69 -3.42,-1.82 -5.15,-3.31 -1.37,-1.18 -3.69,-2.07 -4.89,-3.62 0.62,-1.19 1.23,-1.1 2.77,-4.26 3.14,-6.42 6.01,-7.45 13.64,-8.12 0.57,-2.64 -4.87,-8.15 -6.29,-9.1 -3.17,-2.12 -8.51,-2.25 -11.52,-4.16 0.06,-2.48 1.51,-3.8 2.6,-5.19 1.5,-1.92 2.05,-1.57 2.97,-4.76 0.79,-2.73 1.04,-3.3 2.51,-5.21 0.88,-1.15 2.91,-3.39 3.23,-4.75 -5.04,-1.55 -6.53,2.76 -12.81,2.21 -2.92,-0.25 -3.55,-1.43 -5.82,-2.3 -1.73,-0.67 -4.88,-0.75 -6.29,-1.79 -1.13,-2.5 -0.71,-8.99 -0.27,-12.03 0.35,-2.48 3.22,-7.68 2.92,-8.99 -1.67,-0.38 -4.01,0.07 -5.95,-0.06 -1.93,-0.13 -3.95,-0.55 -5.88,-0.67 -3.68,-0.23 -9.71,2.19 -11.34,-0.76 -3.89,-7.02 6.2,-13.51 1.03,-22 -2.29,-0.03 -2.54,2.05 -5.33,3.15 -3.04,1.19 -8.65,-0.51 -14.14,2.76 -1.68,1 -3.49,3.1 -5.9,2.94 -6.48,-3.34 -1.31,-16.77 -6.25,-19.88 -2.17,-0.46 -2.17,4.06 -9.19,5.57 -2.35,0.5 -3.5,0.67 -5.61,1.71l-5.05 2.81c-1.39,-1.6 -6.29,-8.43 -7.02,-10.8 -0.69,-2.22 -0.2,-4.67 -1.27,-7.51 -0.83,-2.2 -2.02,-4.76 -3.88,-5.29 -4.76,5.4 -3.85,9.9 -13.48,12.15 -0.13,1.39 0.13,2.65 -0.46,3.63z"/>
   <path class="fil1" d="M1.89 239.47c2.93,-0.3 3.28,1.12 5.52,2.3 2.37,1.25 2.88,1.01 4.76,2.92 4.87,4.93 1.1,8.93 1.19,11.65 1.33,-0.29 3.25,-1.73 4.25,-2.8 5.18,-5.57 0.55,-10.46 3.35,-16.65 -3.37,0.72 -5.81,1.1 -9.37,1.56 -1.55,0.2 -0.69,0.32 -2.24,0.47 -3.34,0.32 -6.7,-0.46 -7.47,0.56z"/>
   <path class="fil1" d="M30.28 234.79c7.07,-0.3 11.2,7.73 13.03,8.91 1.38,0.89 3.38,1.37 5.41,1.62 0.12,-1.36 0.27,-1.33 -0.5,-2.46 -4.26,-6.27 -0.65,-10.14 -0.16,-14.95 -0.41,0.08 -12.54,5.54 -15.49,6.04 -0.35,0.06 -0.95,0.11 -1.25,0.2 -1.41,0.47 -0.52,0.17 -1.05,0.64z"/>
   <path class="fil1" d="M1.64 29.82l0 3.97c0.05,-0.07 0.12,-0.26 0.13,-0.21 0.01,0.05 0.1,-0.18 0.11,-0.23 0.11,-0.46 0.11,-0.38 0.15,-0.91 0.06,-0.83 -0.03,-1.22 0.09,-2.15 5.17,-1.04 12.18,0.77 17.36,1.44 -4.5,-5.28 -7.71,-7.62 -7.75,-13.63l-0.06 -2.22c-0.21,-0.81 -0.13,-0.5 -0.46,-0.97 -1.64,0.84 -4.89,6.95 -7.25,9.53 -0.7,0.77 -0.16,0.15 -0.79,0.71 -1.97,1.76 -0.34,2.83 -1.52,4.69z"/>
   <path class="fil1" d="M93.47 81.47l2.11 4.04c1.7,4.36 3.27,5.66 4.8,11.72 0.4,1.59 -0.09,0.61 0.64,1.28l4.83 -14.44c0.83,-1.26 2.52,-2.04 3.66,-2.58 -0.31,-0.29 0.06,-0.66 -2.1,-0.86 -0.64,-0.06 -1.42,-0.03 -2.08,-0.04 -1.72,-0.02 -2.91,-0.12 -4.15,-0.3 -4.38,-0.62 -5.71,1.02 -7.72,1.18z"/>
   <path class="fil1" d="M54.41 43.75c0.25,0.26 6.68,3.48 9.13,5.46l5.16 3.91c-0.19,-1.83 -0.13,-3.53 -0.41,-5.01 -0.34,-1.76 -0.71,-2.89 -0.98,-4.45 -0.75,-4.22 1.65,-4.35 1.98,-7.7 -3.64,0.4 -8.01,3.12 -10.58,5.33l-3 2.63 -1.29 -0.17z"/>
   <path class="fil1" d="M30.47 33.8c1.21,1.3 1.73,0.61 4.54,1.62l9.11 3.38c1.25,0.53 3.79,1.8 4.78,2.01 -0.29,-0.94 -1.21,-2.23 -1.81,-3.09 -2.01,-2.91 -0.31,0.15 -1.84,-3.35 -0.83,-1.9 -0.24,-2.35 -0.7,-4.44 -0.24,-1.09 -0.91,-2.79 -1.34,-3.79 -1.52,0.14 -1.91,0.7 -3.05,2.12 -0.98,1.24 -1.25,1.72 -2.36,2.82 -1.89,1.89 -4.05,3.12 -7.33,2.71z"/>
   <path class="fil1" d="M104.68 113.15c-0.13,-3.51 1.59,-4.46 3.03,-7.39 1.88,-3.83 4.84,-1.64 6.65,-3.5 -2.29,-2.17 -8.31,-3.03 -12.34,-2.67l-1 -1.1c-0.01,1.41 1.66,5.18 2.05,7.11l1.05 5.55c0.2,1.13 -0.07,1.32 0.56,1.99z"/>
   <path class="fil1" d="M97.69 175.44c2.7,-0.49 5.45,-2.57 9.4,-1.06 0.09,0.03 0.18,0.08 0.26,0.12 1.25,0.51 0.53,0.47 1.97,0.45 -0.07,-1.96 -1.26,-4.93 -2.73,-5.92 -3.76,-2.53 -5.57,-0.55 -5.78,-3.14 -0.81,1.08 -1.08,3.35 -1.56,4.51 -0.55,1.32 -1.41,3.95 -1.57,5.05z"/>
   <path class="fil1" d="M105.63 134.01l2.36 -1.9c4.79,-3.14 7.32,-1.97 8.54,-3.36 -0.53,-1.94 -3.63,-2.1 -5.26,-2.71l-3.02 -0.92c-1.66,-0.43 -0.82,-0.62 -2.57,-1.47l-0.05 10.36z"/>
   <path class="fil1" d="M103.32 155.27l2.51 -1.05c0.77,-0.34 1.2,-0.8 1.73,-1.12 1.4,-0.86 3.82,-0.57 5.58,-0.74 0.2,-1.75 -3.93,-3.04 -5.5,-4.65 -3.23,-3.31 -1.98,-4.37 -1.96,-7.9 -0.74,0.77 -0.67,0.72 -0.81,3.65 -0.19,4.21 -0.46,7.76 -1.57,11.81z"/>
  </g>
  <path class="fil2" d="M44.26 211.79c-0.25,-2.71 -1.51,-8.3 2.72,-8.92 0.04,-0.52 0.02,-1.2 0.23,-1.68 0.64,-1.47 0.74,0.25 3.57,-2.83l4.45 -3.83c1.69,-1.61 5.03,-4.66 6.85,-5.64 1.86,-1.01 5.13,-1.52 6.72,-0.11l1.81 1.92c0.05,0.05 0.15,0.13 0.19,0.18 0.88,0.82 0.45,7.39 -0.13,7.8l-9.18 9.7c-1.92,1.07 -0.34,-0.48 -2.57,1.41 -2.57,2.18 -4.18,2.03 -5.36,2.36 -1.74,0.49 -0.86,0.74 -4.66,0.68 -3.29,-0.05 -0.03,-0.69 -4.64,-1.03zm-21.82 -21.13c-3.04,0.12 -3.25,0.66 -3.25,0.66l-0.15 0.27c-4.05,0.31 -1.63,0.58 -7.95,0.58l-0.88 -1.27c-1.07,-1.95 -0.21,-3.35 1.56,-4.28 2.1,-1.09 1.28,-0.07 2.36,-1.61l8.69 -1.67c1.21,0.09 1.51,0.31 2.89,0.32l0.17 3.78 -2.72 2.24c-0.4,0.42 -0.32,0.5 -0.7,0.98zm33.83 -39.22l5.89 -0.13c-0.25,6.14 0.43,4.18 -1.64,8.03 -0.01,0.02 -0.37,0.53 -0.43,0.6l-0.55 0.62c-0.06,0.07 -0.12,0.16 -0.18,0.23 -0.05,0.07 -0.12,0.17 -0.17,0.24 -0.05,0.07 -0.11,0.17 -0.16,0.24l-0.3 0.46c-0.13,0.17 -0.96,1.03 -1.06,1.12 -2.37,2.1 -1.79,1.85 -4.2,1.85l-0.84 -1.07c-1.29,-2.05 0.06,-3.38 0.06,-3.39 0.65,-1.83 -0.33,-1.17 0.93,-2.99 2.68,-3.86 -0.37,-1.04 2.36,-3.13l0.29 -2.7zm26.87 0.28c-0.81,-1.21 -0.57,-0.92 -0.72,-2.41 -0.16,-1.58 -0.28,-2.21 -0.06,-4.06 0.38,-3.26 -0.3,-2.17 0.57,-6.36 0.15,-0.71 0.12,-0.97 0.19,-1.69 0.11,-1.28 0.21,-2.65 0.25,-4.26 0.08,-3.23 0.31,-2.17 0.57,-3.51 0.77,-4.05 1.33,-3.86 2.85,-5.88 0.7,0 1.44,-0.08 2.1,0.11l1.3 0.64c1.48,0.95 0.6,0.89 1.48,2.25 1.54,2.39 0.21,-0.43 2.01,3.61 1.72,3.87 -1.13,10.4 -1.33,14.9 -1.41,1.05 -0.8,0.11 -1.34,1.92 -0.51,1.73 0.06,0.97 -1.48,1.86l-0.25 2.52c-5.93,0.63 -0.3,1.23 -5.52,1.23l-0.61 -0.88zm-32.17 -49.22c0.76,1.09 0.55,0.12 1.11,1.6l0.75 7.22c-1.71,0.16 -4.58,0.71 -5.79,-0.72 -0.35,-0.42 -0.46,-0.9 -1,-1.21 -0.51,-0.29 -1.25,-0.32 -1.84,-0.41l-0.21 -2.64 -1.41 -0.64 -0.49 -4.92c0,-0.72 0.52,-1.77 0.79,-2.27 3.27,-0.22 3.62,-0.28 5.72,1.05 0.07,0.04 0.16,0.09 0.23,0.14 2.09,1.3 0.8,0.89 2.14,2.81zm20.79 -11.71c-1.57,-0.62 -4.51,-4.53 -4.51,-4.54 -1.49,-1.43 -1.61,-1.01 -2.11,-2.49 -1.03,-3.09 -0.78,-0.41 -1.94,-2.9 -0.79,-1.7 -1.89,-6.25 -1.72,-7.25 0.23,-1.35 0.4,-0.24 0.89,-3.66l5.49 -0.07c0.6,0.76 0.99,1.59 2.22,2.54 2.27,1.73 0.73,0.86 2.14,2.83l0.34 0.4c0.05,0.06 0.14,0.13 0.19,0.19 0.26,0.31 0.21,0.15 0.52,0.66 0.45,0.73 0.22,0.98 1.22,2.15l1.38 2.11c1.1,2.21 0.3,-0.88 2.09,2.82 0.38,0.78 3.27,3.83 1.02,6.71 -2.28,2.92 -5.22,0.92 -5.24,0.92 -0.69,-0.22 -1.35,-0.16 -1.97,-0.41zm-34.18 -19.43c0.57,1.1 -0.03,0.61 0.86,1.33 2.71,2.18 0.81,0.23 1.95,3.26l0.31 0.62c-0.77,0.79 -1.08,0.76 -1.61,1.98 -2.46,0.18 -5.35,0.56 -7.63,-0.43l-1.58 -0.64c-2.89,-1.38 1.18,-1.12 -3.96,-1.79l0.06 -4.79c1.19,-0.57 2.23,-1.07 4.02,-1.07 9.46,0.07 1.61,0.82 7.57,1.54zm-35.95 -41.06l0 18.2 2.66 -0.3 0.47 -1.94c3.72,-0.17 0.19,-2.25 13.18,-1.58 2.96,0.15 0.8,0.39 3.03,0.76 4.51,0.74 3.67,2.08 6.02,3.11 0.64,0.28 0.25,-0.11 1.02,0.39 0.11,2.76 0.08,4.08 -1.88,5.94 -0.34,0.33 -0.31,0.35 -0.61,0.58 -2.31,1.81 -8.57,1.08 -11.94,0.46 -5.25,-0.96 -1.44,-0.34 -3.44,-0.95 -1.82,-0.56 -2.64,0.43 -5.8,-0.83 -0.08,-0.03 -0.17,-0.09 -0.25,-0.12 -0.66,-0.22 -1.04,-0.18 -1.69,-0.22 -0.07,0.08 -0.18,0.17 -0.22,0.21l-0.54 0.57 0 159.62c2.18,0.04 2.45,0.32 3.61,1.44l2.36 2.6c0.46,0.65 0.46,3.68 -1.54,5.39l-1.17 0.78c-0.08,0.05 -0.17,0.11 -0.25,0.16 -0.08,0.05 -0.17,0.11 -0.24,0.16 -0.07,0.05 -0.16,0.11 -0.23,0.16l-2.54 1.27 0 19.06c0.52,-0.81 0.32,-1.93 0.25,-3.2 0.79,-1.05 4.25,-0.25 7.69,-0.58 1.59,-0.15 0.71,-0.28 2.3,-0.48 3.66,-0.47 6.18,-0.86 9.64,-1.6 2.8,0.01 6.85,-1.94 9.59,-2.15 0.54,-0.48 -0.37,-0.17 1.08,-0.65 0.31,-0.1 0.93,-0.15 1.28,-0.21 3.03,-0.52 15.53,-6.13 15.94,-6.22l6.51 -3.65c0.94,-1.29 0.1,-0.52 1.86,-1.1 2.15,-0.7 0.4,-0.03 1.62,-0.96 1.15,-0.88 2.12,-1.25 3.4,-2.26 1.16,-0.91 1.3,-0.61 3.43,-2.28 0.55,-0.43 1.08,-0.76 1.5,-1.1 0.62,-0.51 0.88,-0.99 1.69,-1.56 0.95,-0.63 4.09,-3.26 4.88,-4 0.88,-0.82 1.62,-1.53 2.33,-2.21 0.9,-0.87 1.07,-1.5 2.29,-1.84 0.74,-1.56 3.1,-3.77 5.07,-6.27 1.12,-1.42 0.05,-0.42 1.23,-1.07 0.54,-1.31 1.71,-2.41 2.54,-3.53 0.8,-1.09 2.03,-3.06 2.71,-3.38l4.38 -7.29c1.03,-1.82 -0,-1.65 1.39,-2.63 0.51,-1.44 1.46,-3.17 2.07,-4.55 0.81,-1.83 1.24,-2.79 2.18,-4.32 0.16,-1.13 1.05,-3.84 1.61,-5.19 0.5,-1.19 0.78,-3.53 1.61,-4.64 0.79,-3.38 2.26,-7.6 2.58,-10.92 1.14,-4.17 1.41,-7.82 1.61,-12.15 0.14,-3.01 0.07,-2.96 0.83,-3.75l-0.07 -5.98 0.05 -10.66 -1.03 -10.8c-0.64,-0.7 -0.37,-0.89 -0.57,-2.05l-1.08 -5.72c-0.4,-1.99 -2.12,-5.87 -2.11,-7.31 -0.75,-0.69 -0.25,0.32 -0.66,-1.32 -1.58,-6.23 -3.19,-7.57 -4.94,-12.06l-2.17 -4.16c-0.65,-0.63 -3.4,-5.21 -3.53,-6.57 -1.45,-0.5 -0.36,0.23 -2.15,-2.18 -0.16,-0.22 -0.65,-0.88 -0.8,-1.09 -0.42,-0.62 -0.35,-0.59 -0.78,-1.15l-10.71 -11.76c-0.04,-0.15 -0.15,-0.17 -0.22,-0.25 -0.55,-0.21 -3.16,-2.74 -3.72,-3.23 -1.28,-1.12 -2.5,-1.98 -3.59,-2.94l-5.31 -4.03c-2.52,-2.04 -9.14,-5.36 -9.4,-5.62 -1.5,-0.75 -4.73,-2.2 -5.67,-3.02 -1.02,-0.21 -3.63,-1.52 -4.92,-2.06l-9.38 -3.48c-2.89,-1.04 -3.43,-0.34 -4.67,-1.67l-11.31 -2.15c-5.33,-0.69 -12.55,-2.55 -17.87,-1.48 -0.13,0.96 -0.03,1.36 -0.1,2.21 -0.04,0.55 -0.04,0.47 -0.15,0.94 -0.01,0.06 -0.1,0.29 -0.11,0.24 -0.01,-0.05 -0.08,0.15 -0.13,0.22z"/>
  <path class="fil3 str1" d="M43.73 211.26c4.62,0.34 1.36,0.98 4.64,1.03 3.8,0.06 2.92,-0.19 4.66,-0.68 1.18,-0.33 2.79,-0.18 5.36,-2.36 2.23,-1.89 0.65,-0.34 2.57,-1.41l9.18 -9.7c0.57,-0.41 1.01,-6.98 0.13,-7.8 -0.05,-0.04 -0.14,-0.13 -0.19,-0.18l-1.81 -1.92c-1.59,-1.41 -4.85,-0.9 -6.72,0.11 -1.82,0.98 -5.16,4.03 -6.85,5.64l-4.45 3.83c-2.82,3.08 -2.93,1.36 -3.57,2.83 -0.21,0.48 -0.19,1.16 -0.23,1.68 -4.23,0.62 -2.97,6.21 -2.72,8.92z"/>
  <path class="fil3 str1" d="M83.21 152.06c5.22,0 -0.41,-0.6 5.52,-1.23l0.25 -2.52c1.54,-0.89 0.97,-0.14 1.48,-1.86 0.53,-1.81 -0.07,-0.88 1.34,-1.92 0.2,-4.49 3.05,-11.02 1.33,-14.9 -1.8,-4.05 -0.47,-1.22 -2.01,-3.61 -0.88,-1.36 0,-1.31 -1.48,-2.25l-1.3 -0.64c-0.65,-0.19 -1.4,-0.11 -2.1,-0.11 -1.52,2.02 -2.08,1.83 -2.85,5.88 -0.26,1.35 -0.49,0.28 -0.57,3.51 -0.04,1.6 -0.14,2.98 -0.25,4.26 -0.06,0.72 -0.04,0.98 -0.19,1.69 -0.87,4.19 -0.19,3.1 -0.57,6.36 -0.21,1.85 -0.1,2.48 0.06,4.06 0.15,1.49 -0.08,1.19 0.72,2.41l0.61 0.88z"/>
  <path class="fil3 str1" d="M1.09 47.96l0 6.08 0.54 -0.58c0.04,-0.04 0.15,-0.13 0.22,-0.21 0.66,0.03 1.04,-0.01 1.69,0.22 0.08,0.03 0.17,0.09 0.25,0.12 3.16,1.26 3.98,0.27 5.8,0.83 1.99,0.62 -1.81,-0.01 3.44,0.95 3.38,0.62 9.63,1.36 11.94,-0.46 0.29,-0.23 0.27,-0.25 0.61,-0.58 1.96,-1.87 1.99,-3.19 1.88,-5.94 -0.78,-0.51 -0.38,-0.11 -1.02,-0.39 -2.35,-1.02 -1.51,-2.37 -6.02,-3.11 -2.23,-0.37 -0.07,-0.6 -3.03,-0.76 -12.99,-0.67 -9.46,1.41 -13.18,1.58l-0.47 1.94 -2.66 0.3z"/>
  <path class="fil3 str1" d="M67.32 69.34l-5.49 0.07c-0.5,3.42 -0.67,2.31 -0.89,3.66 -0.17,1 0.93,5.54 1.72,7.25 1.16,2.49 0.91,-0.19 1.94,2.9 0.5,1.48 0.62,1.06 2.11,2.49 0,0 2.94,3.92 4.51,4.54 0.62,0.25 1.29,0.19 1.98,0.41 0.02,0 2.96,2 5.24,-0.92 2.26,-2.89 -0.64,-5.93 -1.02,-6.71 -1.78,-3.7 -0.98,-0.61 -2.09,-2.82l-1.38 -2.11c-1,-1.17 -0.77,-1.41 -1.22,-2.15 -0.31,-0.51 -0.26,-0.35 -0.52,-0.66 -0.05,-0.06 -0.14,-0.13 -0.19,-0.19l-0.34 -0.4c-1.41,-1.98 0.13,-1.1 -2.14,-2.83 -1.23,-0.94 -1.62,-1.78 -2.22,-2.54z"/>
  <path class="fil1" d="M77.42 55.83c0.07,0.08 0.18,0.1 0.22,0.25l10.71 11.76c0.43,0.56 0.36,0.53 0.78,1.15 0.15,0.22 0.64,0.88 0.8,1.09 1.79,2.41 0.71,1.67 2.15,2.18 -0.01,-3.28 -1.06,-5.24 -1.26,-8.33 -0.31,-4.77 1.41,-5.42 1.24,-8.44 -5.44,0 -9.01,0.99 -14.64,0.34z"/>
  <path class="fil3 str1" d="M41.55 100.25l0.49 4.92 1.41 0.64 0.21 2.64c0.6,0.09 1.33,0.13 1.84,0.41 0.54,0.3 0.65,0.79 1,1.21 1.21,1.43 4.08,0.88 5.79,0.72l-0.75 -7.22c-0.55,-1.48 -0.34,-0.51 -1.11,-1.6 -1.34,-1.92 -0.05,-1.51 -2.14,-2.81 -0.07,-0.04 -0.17,-0.09 -0.23,-0.14 -2.11,-1.32 -2.46,-1.27 -5.72,-1.05 -0.26,0.51 -0.79,1.55 -0.79,2.27z"/>
  <path class="fil3 str1" d="M21.91 190.13c0.38,-0.47 0.29,-0.55 0.7,-0.98l2.72 -2.24 -0.17 -3.78c-1.38,-0.01 -1.67,-0.23 -2.89,-0.32l-8.69 1.67c-1.07,1.54 -0.26,0.51 -2.36,1.61 -1.76,0.92 -2.62,2.32 -1.56,4.28l0.88 1.27c6.32,0 3.9,-0.27 7.95,-0.58l0.15 -0.27c0,0 0.21,-0.54 3.25,-0.66z"/>
  <path class="fil3 str1" d="M25.45 70.35l-0.06 4.79c5.14,0.67 1.07,0.41 3.96,1.79l1.58 0.64c2.28,1 5.17,0.61 7.63,0.43 0.53,-1.21 0.84,-1.18 1.61,-1.98l-0.31 -0.62c-1.15,-3.03 0.75,-1.08 -1.95,-3.26 -0.89,-0.72 -0.29,-0.23 -0.86,-1.33 -5.96,-0.72 1.9,-1.47 -7.57,-1.54 -1.79,0 -2.83,0.5 -4.02,1.07z"/>
  <path class="fil1" d="M55.38 225.92c2.41,-0.5 8.7,-0.3 11.14,0.1 1.18,0.19 1.98,0.82 2.08,0.89 0.41,0.3 1.14,1.16 1.45,1.52 1.29,1.51 1.27,2.1 3.59,2.04 0.24,-3.32 -0.09,-5.78 -2.04,-7.73l-1.47 -1.19c-1.4,-1.21 -1.76,-3.13 -1.26,-4.9 -0.8,0.56 -1.07,1.05 -1.69,1.56 -0.42,0.34 -0.95,0.67 -1.5,1.1 -2.12,1.67 -2.27,1.36 -3.43,2.28 -1.28,1.01 -2.25,1.38 -3.4,2.26 -1.22,0.94 0.53,0.26 -1.62,0.96 -1.76,0.58 -0.92,-0.18 -1.86,1.1z"/>
  <path class="fil3 str1" d="M55.45 153.61c-2.73,2.09 0.32,-0.74 -2.36,3.13 -1.26,1.82 -0.28,1.16 -0.93,2.99 -0,0.01 -1.35,1.33 -0.06,3.39l0.84 1.07c2.41,0 1.83,0.25 4.2,-1.85 0.11,-0.09 0.94,-0.96 1.06,-1.12l0.3 -0.46c0.05,-0.07 0.11,-0.17 0.16,-0.24 0.05,-0.07 0.11,-0.17 0.17,-0.24 0.05,-0.07 0.12,-0.16 0.18,-0.23l0.55 -0.62c0.06,-0.08 0.42,-0.58 0.43,-0.6 2.07,-3.85 1.39,-1.89 1.64,-8.03l-5.89 0.13 -0.29 2.7z"/>
  <path class="fil3 str1" d="M1.09 225.6l2.54 -1.27c0.07,-0.04 0.16,-0.11 0.23,-0.16 0.07,-0.05 0.16,-0.11 0.24,-0.16 0.08,-0.05 0.17,-0.11 0.25,-0.16l1.17 -0.77c1.99,-1.72 1.99,-4.75 1.54,-5.4l-2.36 -2.6c-1.16,-1.12 -1.43,-1.39 -3.61,-1.44l0 11.95z"/>
  <path class="fil1" d="M78.38 208.6c2.63,0.18 4.6,0.79 6.23,2.25 0.08,0.07 0.3,0.28 0.38,0.35l0.77 0.75c0.67,0.65 0.15,0.34 1.04,0.87 1.04,0.63 2.17,0.75 3.55,0.5 -0.43,-1.24 -0.2,-0.35 -1.15,-1.35 -2.29,-2.43 -2.24,-3.71 -3.3,-5.76 -0.04,-0.08 -0.09,-0.18 -0.14,-0.25 -0.26,-0.49 -0.48,-0.84 -0.84,-1.47 -0.6,-1.05 -1.21,-1.79 -0.24,-3.22 -1.18,0.65 -0.11,-0.35 -1.23,1.07 -1.97,2.5 -4.34,4.71 -5.07,6.27z"/>
  <path class="fil1" d="M89.93 194.35c1.42,-0.4 1.18,-0.63 2.75,-0.89 2.15,-0.35 6.56,-1.39 7.53,-2.77 -2.3,-1.83 -5.09,-2.04 -4.52,-6.27 -1.39,0.99 -0.36,0.81 -1.39,2.63l-4.38 7.29z"/>
 </g>
</svg>
