<?xml version="1.0" encoding="UTF-8"?>
<!DOCTYPE svg PUBLIC "-//W3C//DTD SVG 1.1//EN" "http://www.w3.org/Graphics/SVG/1.1/DTD/svg11.dtd">
<!-- Creator: CorelDRAW 2020 (64 Bit) -->
<svg xmlns="http://www.w3.org/2000/svg" xml:space="preserve" width="11.2049mm" height="11.5527mm" version="1.1" style="shape-rendering:geometricPrecision; text-rendering:geometricPrecision; image-rendering:optimizeQuality; fill-rule:evenodd; clip-rule:evenodd"
viewBox="0 0 191.54 197.49"
 xmlns:xlink="http://www.w3.org/1999/xlink"
 xmlns:xodm="http://www.corel.com/coreldraw/odm/2003">
 <defs>
  <style type="text/css">
   <![CDATA[
    .str1 {stroke:#72BE8A;stroke-width:3.42;stroke-miterlimit:22.9256}
    .str0 {stroke:#4784B0;stroke-width:1.3;stroke-miterlimit:22.9256}
    .str2 {stroke:#72BE8A;stroke-width:1.3;stroke-miterlimit:22.9256}
    .fil0 {fill:#4784B0}
    .fil2 {fill:#4785AB}
    .fil3 {fill:#509199}
    .fil4 {fill:#609EA2}
    .fil5 {fill:#6DB793}
    .fil1 {fill:#72BE8A}
    .fil6 {fill:#E56D57}
   ]]>
  </style>
 </defs>
 <g id="Camada_x0020_1">
  <metadata id="CorelCorpID_0Corel-Layer"/>
  <path class="fil0 str0" d="M149.14 159.13c0.41,-4.99 1.68,-7.55 4.17,-10.78 0.69,1.07 3.02,1.82 1.1,6.62 -1.87,4.67 -0.96,2.37 -5.26,4.17zm-110.41 -130.2c4.78,1.4 13.67,4.73 18.73,4.79 -1.46,-4.48 -2.45,-1.23 -1.34,-3.77 2.13,-4.84 10.01,1.28 11.47,1.57 -1.73,-4.86 -1.42,-0.29 -1.2,-4.58 0.19,-3.89 -0.42,-0.7 1.56,-3.19 8.84,2.5 3.2,6.03 3.1,6.21l4.72 -1.16c4.55,-2.56 1.26,2.79 2.62,-1.74l6.74 1.29 1.05 -5.05c13.28,-1.69 10.47,-0.92 19.91,1.63 9.97,2.69 5.89,-2.57 19.65,3.56l-15.53 15.94c-3.24,2.03 -7.72,2.39 -11.68,4.31 -6.12,2.97 -4.36,5.12 -10.17,5.31 -0.2,-7.12 0.02,-6.41 3.59,-10.49 2.3,-2.63 2.4,-0.8 4.64,-9.49l-5.46 -4.99c-2.26,1.04 -2.55,1.2 -5.45,1.89 -1.84,2.96 -1.66,2.38 -1.6,6.74l0.19 6.49 -7.61 5.09c-2.57,-1.88 -1.21,2.04 -2.74,-2.12l-4.19 -4.84 0.48 5.88 4.26 5.51c0.78,2.01 1.91,7.75 -1.22,8.85 -12.29,4.33 -6.55,3.44 -8.77,5.7 -2.89,2.94 -0.99,0.94 -5.78,2.94 -5.34,2.23 -8.74,5.98 -13.4,9.68 -4.9,3.89 -4.45,2.42 -6.22,9.64l-2.94 -5.26c-7.75,0.28 -16.9,0.6 -13.35,12.98 3.99,0.14 2.11,-0.95 7.55,-2.49 -2.85,9.63 -1.98,2.31 0.56,8.41l0.63 2.21c0.12,0.36 0.19,0.85 0.3,1.19l1.41 3.27c13.62,-1.69 6.56,-7.17 22.06,4 0.25,0.18 0.65,0.38 0.9,0.56 3.88,2.85 1.4,0.5 4.04,4.48 5.69,8.56 6.48,2.04 14.83,9.71 -0.08,7.32 -0.81,3.03 -1.99,7.76 -0.69,2.75 -0.56,5.22 -0.73,8.16 -3.49,4.06 -4.15,2.1 -5.63,7.36 -1.2,4.26 -1.71,7.48 -2.99,10.11 -5.12,10.54 -1.07,8.11 0.46,19.17 -6.72,-1.9 -6.67,-4.11 -12.22,-14.91 -4.46,-8.68 -3.99,-9.3 -6.14,-18.64 -2.01,-8.74 -5.9,-6.22 -10.21,-14.15 -6.25,-11.52 -1.66,-10.22 -0.17,-20.76 -0.34,-0.26 -0.83,-0.53 -1.08,-0.7 -0.25,-0.16 -0.74,-0.49 -1.04,-0.69 -6.53,-4.47 -3.19,-3.27 -7.26,-7.39 -3.23,-3.26 -5.92,-3.59 -10.42,-5.3 -0.91,-2.67 -0.79,-5.29 -1.58,-7.34 -1.94,-5.05 -2.76,-2 -3.61,-4.64 0.51,-12.73 -1.32,-17.99 6.64,-24.87 6.24,-5.4 11.27,-16.87 7.26,-20.12l-4.3 4.27c-2.31,2.74 -2.07,2.46 -3.78,4.92 -2.88,4.14 -4.86,7.49 -6.91,11.87 -26.6,56.78 8.3,141.01 101.77,132.62l2.57 -0.38c20.22,-4.54 36.45,-13.55 47.43,-25.31 10.38,-11.13 21.39,-26.99 25.52,-47.41 -3.97,-6.47 -3.7,-13.79 -8.82,-18.12 -3.95,-3.35 -4.35,-1.65 -9.72,-2.84 -5.14,-1.14 -5.81,-2.65 -8.57,-4.18 0.67,2.92 0.18,3.24 3.08,4.88l6.45 2.28c-1.04,6.8 -6.86,9.33 -14.83,11.34 0.37,0.25 0.9,0.46 1.19,0.59l5.93 2.3c-4.28,8.91 -3.8,6.08 -9.06,11.98 -4.92,5.52 -1.99,7.36 -2.23,15.52 -8.1,6.33 -2.38,3.47 -7.09,12.7 -3.3,6.46 -3.37,7.39 -11.33,7.89 -3.96,-4.11 -8,-12.18 -8.44,-19.26 -0.84,-13.46 3.24,1.55 -2.94,-18.76 -0.12,-0.38 -0.2,-0.85 -0.31,-1.19 -2.52,-8.22 -7.72,-3.77 -18.82,-4.81 -5.16,-10.81 -10.13,-14.85 2.04,-26.71 13.12,-12.79 2.9,-3.81 12.75,-9.05l-6.97 -0.62c-0.32,-9.78 1.12,-5.56 7.64,-8.2 -0.07,-13.24 -1.97,-6.37 -4.26,-10.89 4.88,-4.48 2.81,0.29 6.31,-6.25 2.29,3.29 1.69,4.82 2.61,8.77 5.02,-1.55 3.87,-2.41 7.76,-3.24 2.12,-0.46 4.46,-0.04 7.85,-0.68 1.44,-2.49 0.53,-1.62 2.86,-3.02 0.25,-6.64 -3.48,-3.06 2.14,-8.96 -9.44,5 -4.65,11.35 -9.17,10.04 -3.95,-1.14 -4.43,-2.37 -5.37,-6.57 8.76,-4.17 6.62,-7.37 15.9,-11.01 3.17,-0.25 10.23,9.5 25.83,0.77l2.11 -1.44c-17.68,-20.78 -28.48,-26.6 -60.98,-36.82l-3.14 -0.01c-29.94,-4.39 -50,8.3 -68.29,19.32z"/>
  <path class="fil1 str1" d="M115.9 87.75c1.13,-5.35 2.39,-6.02 8.49,-7.74 4.52,2.87 1.25,1.79 5.79,5.6 2.43,-4.58 0.06,0.14 -0.23,-3.35l0.48 -3.26c2.42,3.97 3.68,3.73 4.31,9.79 2.71,-1.71 -0.26,0.37 1.9,-1.73 0.24,-0.24 1.52,-1.06 1.68,-1.71 0.15,-0.6 0.61,-0.67 0.94,-0.98 1.45,8.44 0.84,3.09 7.64,6.14 -2.23,8.85 -5.57,4.12 -11.28,3.75 -5.09,-0.33 -2.02,2.68 -7.54,-0.16 -5.03,-2.59 -1.69,-1.03 -3.7,-5.96l-8.49 -0.39zm0 0c-9.85,5.24 0.37,-3.74 -12.75,9.05 -12.16,11.86 -7.2,15.9 -2.04,26.71 11.1,1.04 16.3,-3.41 18.82,4.81 0.11,0.35 0.19,0.82 0.31,1.19 6.17,20.32 2.1,5.31 2.94,18.76 0.44,7.08 4.48,15.15 8.44,19.26 7.95,-0.5 8.03,-1.43 11.33,-7.89 4.71,-9.23 -1.01,-6.37 7.09,-12.7 0.24,-8.16 -2.69,-10.01 2.23,-15.52 5.26,-5.9 4.78,-3.06 9.06,-11.98l-5.93 -2.3c-0.3,-0.13 -0.83,-0.34 -1.19,-0.59 7.97,-2.01 13.79,-4.54 14.83,-11.34l-6.45 -2.28c-2.9,-1.63 -2.41,-1.96 -3.08,-4.88 2.77,1.54 3.43,3.05 8.57,4.18 5.37,1.19 5.76,-0.51 9.72,2.84 5.12,4.33 4.85,11.65 8.82,18.12 4.25,-13.04 4.12,-30.06 0.63,-43.68 -1.7,-6.61 -3.58,-11.91 -6.61,-17.76 -3.39,-6.55 -6.08,-9.75 -9.49,-15.34l-2.11 1.44c-15.61,8.73 -22.66,-1.02 -25.83,-0.77 -9.28,3.64 -7.14,6.84 -15.9,11.01 0.94,4.2 1.42,5.43 5.37,6.57 4.52,1.31 -0.27,-5.04 9.17,-10.04 -5.62,5.9 -1.89,2.31 -2.14,8.96 -2.33,1.39 -1.42,0.52 -2.86,3.02 -3.39,0.64 -5.72,0.22 -7.85,0.68 -3.89,0.84 -2.74,1.7 -7.76,3.24 -0.92,-3.95 -0.32,-5.48 -2.61,-8.77 -3.5,6.54 -1.43,1.77 -6.31,6.25 2.29,4.52 4.18,-2.35 4.26,10.89 -6.51,2.64 -7.95,-1.58 -7.64,8.2l6.97 0.62z"/>
  <path class="fil1 str2" d="M38.89 28.83c-0.12,0.03 -0.7,0.18 -0.78,0.26 -5.72,5.65 -10.81,6.3 -13.8,13.53 4.01,3.26 -1.03,14.72 -7.26,20.12 -7.95,6.88 -6.12,12.14 -6.64,24.87 0.85,2.64 1.68,-0.41 3.61,4.64 0.78,2.04 0.66,4.67 1.58,7.34 4.5,1.72 7.2,2.04 10.42,5.3 4.07,4.12 0.73,2.92 7.26,7.39 0.29,0.2 0.79,0.52 1.04,0.69 0.26,0.17 0.74,0.43 1.08,0.7 -1.49,10.55 -6.09,9.25 0.17,20.76 4.31,7.93 8.2,5.42 10.21,14.15 2.15,9.35 1.68,9.97 6.14,18.64 5.55,10.8 5.51,13.01 12.22,14.91 -1.54,-11.07 -5.58,-8.63 -0.46,-19.17 1.28,-2.63 1.78,-5.85 2.99,-10.11 1.48,-5.25 2.15,-3.3 5.63,-7.36 0.17,-2.94 0.04,-5.4 0.73,-8.16 1.19,-4.73 1.91,-0.44 1.99,-7.76 -8.35,-7.67 -9.14,-1.15 -14.83,-9.71 -2.64,-3.98 -0.16,-1.63 -4.04,-4.48 -0.25,-0.18 -0.64,-0.38 -0.9,-0.56 -15.5,-11.17 -8.44,-5.7 -22.06,-4l-1.41 -3.27c-0.11,-0.34 -0.18,-0.83 -0.3,-1.19l-0.63 -2.21c-2.54,-6.1 -3.41,1.22 -0.56,-8.41 -5.44,1.54 -3.57,2.63 -7.55,2.49 -3.55,-12.38 5.6,-12.7 13.35,-12.98l2.94 5.26c1.77,-7.22 1.32,-5.75 6.22,-9.64 4.66,-3.69 8.06,-7.44 13.4,-9.68 4.79,-2 2.89,-0 5.78,-2.94 2.22,-2.26 -3.51,-1.37 8.77,-5.7 3.13,-1.1 1.99,-6.84 1.22,-8.85l-4.26 -5.51 -12.36 12.37c-0.18,-0.3 -0.39,-0.77 -0.46,-0.95 -3.61,-8.96 -6.61,-10.14 1.91,-14.01 14.63,-6.64 7.54,0.79 12.55,-11.96 2.32,2.66 3.61,-3.94 1.84,4.41l-3.66 3.76c2.11,-0.97 4.66,-2.58 4.72,-2.6l3.07 -0.2c0.16,-0.38 0.71,0.17 1.06,0.29 -0.03,0.3 -0.18,0.76 -0.22,0.88l-4.72 6.98c1.53,4.16 0.16,0.24 2.74,2.12l7.61 -5.09 -0.19 -6.49 -2.1 -1.31c-0.29,-0.17 -0.68,-0.43 -1.01,-0.61l-8.65 -3.18c-4.06,2.56 -1.7,2.91 -5.79,5.33 -2.04,-3.62 -3.18,4.35 -1.2,-4.84 0.68,-3.13 -0.37,-0.63 2.29,-1.57 -1.46,-0.29 -9.34,-6.41 -11.47,-1.57 -1.12,2.55 -0.12,-0.71 1.34,3.77 -4.92,-0.06 -13.16,-3.33 -18.04,-4.78 -0.12,-0.04 -0.41,-0.13 -0.53,-0.1z"/>
  <path class="fil1" d="M85.1 28.34l0.54 2.63c2.91,-0.69 3.2,-0.85 5.45,-1.89l5.46 4.99c-2.24,8.69 -2.34,6.86 -4.64,9.49 -3.57,4.08 -3.79,3.37 -3.59,10.49 5.82,-0.19 4.06,-2.34 10.17,-5.31 3.96,-1.93 8.44,-2.28 11.68,-4.31l15.53 -15.94c-13.75,-6.14 -9.67,-0.88 -19.65,-3.56 -9.44,-2.54 -6.63,-3.31 -19.91,-1.63l-1.05 5.05z"/>
  <path class="fil2" d="M115.9 87.75l8.49 0.39c2.01,4.92 -1.33,3.37 3.7,5.96 5.51,2.84 2.44,-0.17 7.54,0.16 5.7,0.37 9.05,5.1 11.28,-3.75 -6.8,-3.05 -6.19,2.3 -7.64,-6.14 -0.34,0.3 -0.79,0.37 -0.94,0.98 -0.16,0.65 -1.44,1.47 -1.68,1.71 -2.16,2.1 0.81,0.02 -1.9,1.73 -0.63,-6.06 -1.89,-5.81 -4.31,-9.79l-0.48 3.26c0.29,3.49 2.67,-1.23 0.23,3.35 -4.54,-3.81 -1.27,-2.73 -5.79,-5.6 -6.09,1.72 -7.36,2.38 -8.49,7.74z"/>
  <path class="fil3" d="M70.17 48.2l-0.48 -5.88 4.19 4.84 4.72 -6.98c0.05,-0.12 0.19,-0.58 0.22,-0.88 -0.35,-0.11 -0.9,-0.66 -1.06,-0.29l-3.07 0.2c-0.06,0.02 -2.61,1.63 -4.72,2.6l3.66 -3.76c1.76,-8.34 0.48,-1.75 -1.84,-4.41 -5.01,12.75 2.08,5.32 -12.55,11.96 -8.52,3.87 -5.52,5.04 -1.91,14.01 0.07,0.18 0.28,0.65 0.46,0.95l12.36 -12.37z"/>
  <path class="fil4" d="M67.58 31.52c-2.66,0.95 -1.61,-1.56 -2.29,1.57 -1.98,9.19 -0.84,1.23 1.2,4.84 4.09,-2.42 1.73,-2.77 5.79,-5.33l8.65 3.18c0.32,0.18 0.71,0.44 1.01,0.61l2.1 1.31c-0.06,-4.36 -0.24,-3.77 1.6,-6.74l-0.54 -2.63 -6.74 -1.29c-1.36,4.53 1.93,-0.82 -2.62,1.74l-4.72 1.16c0.1,-0.18 5.75,-3.71 -3.1,-6.21 -1.98,2.5 -1.36,-0.7 -1.56,3.19 -0.21,4.29 -0.52,-0.28 1.2,4.58z"/>
  <path class="fil5" d="M149.14 159.13c4.3,-1.8 3.39,0.5 5.26,-4.17 1.92,-4.8 -0.4,-5.55 -1.1,-6.62 -2.49,3.23 -3.76,5.79 -4.17,10.78z"/>
  <path class="fil6" d="M107.02 9.61l3.14 0.01c-1.13,-4.72 -0.49,-6.72 -3.15,-9.62l0.01 9.61z"/>
 </g>
</svg>
