<?xml version="1.0" encoding="UTF-8"?>
<!DOCTYPE svg PUBLIC "-//W3C//DTD SVG 1.1//EN" "http://www.w3.org/Graphics/SVG/1.1/DTD/svg11.dtd">
<!-- Creator: CorelDRAW 2020 (64 Bit) -->
<svg xmlns="http://www.w3.org/2000/svg" xml:space="preserve" width="13.7418mm" height="11.2543mm" version="1.1" style="shape-rendering:geometricPrecision; text-rendering:geometricPrecision; image-rendering:optimizeQuality; fill-rule:evenodd; clip-rule:evenodd"
viewBox="0 0 293.04 240"
 xmlns:xlink="http://www.w3.org/1999/xlink"
 xmlns:xodm="http://www.corel.com/coreldraw/odm/2003">
 <defs>
  <style type="text/css">
   <![CDATA[
    .str0 {stroke:#67BCC5;stroke-width:1.62;stroke-miterlimit:22.9256}
    .fil9 {fill:#1B1C1C}
    .fil5 {fill:#2798B8}
    .fil4 {fill:#279CB9}
    .fil7 {fill:#578CAB}
    .fil8 {fill:#61C1C6}
    .fil2 {fill:#67BCC5}
    .fil0 {fill:#67BCC5}
    .fil3 {fill:#699ACB}
    .fil6 {fill:#98CACF}
    .fil1 {fill:#A8D5D8}
    .fil10 {fill:#B5884D}
   ]]>
  </style>
 </defs>
 <g id="Camada_x0020_1">
  <metadata id="CorelCorpID_0Corel-Layer"/>
  <ellipse class="fil0 str0" cx="144.79" cy="122.58" rx="116.86" ry="116.6"/>
  <path class="fil1" d="M252.11 73.06c9.87,2.84 14.45,3.55 21.21,7.9 0.86,10.8 -5.1,15.44 -12.19,18.52l-17.77 10.05c-27.04,11.01 -29.04,11.05 -57.94,19.63 -21.65,6.43 -66.34,15.57 -88.77,15.45 -13.32,5.79 -66.22,1.24 -67.26,-0.71 -0.38,-0.72 -1.19,-0.39 -1.76,-0.63l-8.34 -6.14c-0.1,-9.87 3.68,-11.52 9.29,-15.44l-0.1 -3.18 0.45 -3.89c-0.8,-3.34 0.51,-1.75 -2.55,-1.86 -10.48,3.45 -27.68,16.65 -26.31,31.93 6.64,12.94 19.44,15.14 36.49,18.03 51.59,7.03 129.85,-6.56 178.55,-23.76 7.92,-2.8 35.34,-12.91 42.96,-17.91 0.31,-0.2 0.75,-0.5 1.05,-0.72l4.25 -3.62c9.71,-2.32 32.31,-18.89 29.4,-32.97 -2.69,-13.01 -31.68,-20.37 -46.54,-18.79 1.28,3.17 0.3,1.87 2.45,4.86 1.29,1.8 2.94,2.87 3.41,3.24z"/>
  <path class="fil2" d="M36.57 162.73c1.71,7.8 6.08,17.14 9.87,21.77 44.28,2.21 26.98,22.47 112.37,8.43 14.29,-2.35 6.9,-5.99 25.92,-7.04 29.89,-1.65 32.68,-15.35 48.71,-17.89 15.24,-2.42 13.29,-6.41 25.85,-8.65l1.24 -4.45 -28.45 0.43 0.28 4.28 -7.13 0.24c0.08,3.68 -0.64,3.35 -5.8,5.18 -3.72,1.32 -6.21,1.31 -11.19,1.84 -7.31,0.78 -12.49,2.12 -19.37,4.5l6.78 0.25c-1.62,8.46 -9.67,10.94 -13.95,5.86 -12.14,2.6 -72.07,8.31 -81.05,-0.28 3.57,-5.18 2.29,-5.97 7.34,-1.73 1.78,-2.6 -1.09,-3.01 4.61,-3.87 7.91,-1.19 4.44,1.84 5.32,2.92l61.42 -9.91c1.94,-0.86 5.44,-3.35 6.94,-3.96 9.02,-3.68 2.86,-0.48 9.19,-0.88 5.55,-0.36 1.08,0.3 6.53,-1.28 0.49,-0.14 1.83,-0.85 4.24,-1.45 28.63,-7.09 11.67,-6.79 23.01,-11.39 6.81,-2.76 12.35,1.64 32.89,-11.39l0.35 8.56c2.61,-6.89 0.8,-17.77 0.92,-26.09l-4.25 3.62c-0.3,0.22 -0.74,0.51 -1.05,0.72 -7.63,4.99 -35.04,15.11 -42.96,17.91 -48.7,17.2 -126.96,30.79 -178.55,23.76z"/>
  <path class="fil3" d="M33.06 89.89l-3.33 11.56c-0.87,5.66 -0.95,7.05 -3.34,11.31 3.06,0.11 1.75,-1.48 2.55,1.86 9.74,0.65 17.09,3.56 28.55,1.84 18.98,-2.86 43.68,11.63 53.85,7.41 0.05,-0.02 3.7,-2.45 4.39,-2.86 2.4,-1.43 2.93,-1.54 6.34,-3.08 5.11,-2.32 6.17,-3.32 12.08,-4.31 3.92,4.76 2.32,6.64 8.51,6.85l28.52 -7.12c6.11,-3.17 2.43,-4.89 9.39,-9.5 6.66,-2.68 31.19,-0.7 43.44,-3.01 18.66,-3.52 15.99,-12.73 29.61,-19.12 -2.54,-7.24 -1.24,-1.95 -1.51,-8.64l-6.25 2.94c-5.44,3.37 -6.19,7.73 -10.75,10.79 -4.87,3.27 -18.49,4.51 -25.61,4.07 4.57,-10.66 11.08,-9.12 19.15,-12.5 12.97,-5.43 1.27,-9.36 17.6,-13.4l-2.09 -3.2c-0.7,-1.08 -1.58,-2.57 -2.09,-3.29 -3.03,-4.29 -0.74,-2.54 -5.72,-5.5 -3.84,8.47 -12.94,11.72 -21.12,15.65 -16.15,7.76 -11.36,4.72 -19.26,18.45 -8.58,-0.07 -17.69,-3 -24.13,1.6 -5.72,4.09 -7.63,9.85 -14.22,14.69 -13.8,-0.92 -2.81,-2.66 -14.34,-4.45 -6.74,-1.04 -26.98,4.13 -50.68,3.55 -11.54,-0.28 -53.34,-8.1 -59.54,-12.58z"/>
  <path class="fil4" d="M82.01 25.01c-7.6,3.37 -15.83,9.43 -19.02,14.77l42.11 12.89c21.25,8.14 28.02,-16.17 43.56,-1.85 -3.32,6.99 -11.42,8.76 -19.5,11.21 -13.54,4.11 -11.97,3.6 -26.52,0.41 -15.83,-3.46 -16.02,0.46 -28.31,0.94 -7.89,0.31 -14.76,-5.91 -25.46,-7.35 -3.46,3.86 -2.93,2.77 -5.09,8.07 5.52,0.8 16.97,2.9 21.54,5.08 15.66,7.47 9.66,1.24 25.59,2.5 22.36,1.78 16.32,9.06 46.73,-4.82 20.61,-9.41 24.14,-3.43 37.82,-18.11 8.45,-9.07 29.18,-15.74 41.78,-16.37 -4.29,-3.89 -4.43,-4.27 -10.56,-6.67 -3.87,2.21 -12.82,3.32 -16.59,1.63 3.3,-5.9 4.05,-5.98 10.51,-5.4l-9.64 -5.61 -5.99 4.2c-32.65,15.89 -16.81,18.27 -45.73,13.94 -11.69,-1.75 -16.92,4.85 -33.44,1.42 -10.54,-2.19 -17.83,-3.06 -23.8,-10.87z"/>
  <path class="fil5" d="M46.44 184.5c3.02,8.4 11.85,18.84 17.2,23.12 2.09,-1.36 -1,-1.01 3.88,-1.37 4.85,-0.36 12.36,2.73 16.39,3.26l64.63 -0.96c6.63,-1.61 4.46,-3.31 9.94,-5.4 6.23,-2.38 15.66,-0.9 22.63,-2.59 4.01,-0.97 5.57,-2.15 9.46,-2.63 2.63,-0.32 4.65,0.01 6.85,-0.23l4.77 -0.96c7.49,-2.97 -0.93,-2.6 9.52,-5.19 5.16,-1.28 6.43,-0.91 11.54,-2.71 8.28,-2.92 14.87,-3.32 23.22,-4.75 5.91,-5.46 10.12,-15.01 12.8,-24.73 -12.56,2.24 -10.6,6.24 -25.85,8.65 -16.03,2.54 -18.82,16.23 -48.71,17.89 -19.01,1.06 -11.62,4.69 -25.92,7.04 -85.39,14.04 -68.09,-6.22 -112.37,-8.43z"/>
  <path class="fil5" d="M28.48 118.51l0.1 3.18 0.85 10.29c8.72,-0.24 8.77,1.71 15.25,4.68 5.47,2.5 10.65,2.31 17.29,2.53 16.6,0.57 15.25,6.28 34.68,5.42 22.43,0.12 67.11,-9.02 88.77,-15.45 28.89,-8.59 30.9,-8.62 57.94,-19.63l17.77 -10.05 -4.44 -8.86c-11.61,1.88 -12.71,8.78 -23.11,12.42 -9.19,3.22 -18.53,3.76 -28.78,7.59 -8.16,3.05 -23.06,4.63 -28.65,7.41 -13.71,6.83 -6.91,8.39 -25.94,9.93 -23.29,1.88 -38.56,10.11 -62.72,5.49 -4.78,-0.91 -9.6,-1.93 -13.85,-4.08 -26.19,-13.28 -9.68,-2.02 -29.49,-6.41 -5.31,-1.18 -9.51,-3.09 -15.65,-4.47z"/>
  <path class="fil2" d="M63.64 207.62c3.47,3.41 6.15,6.58 10.4,9.79 3.7,2.8 7.73,5.25 12.14,7.79 10.92,6.26 17.75,6.96 29.01,11.34l53.63 0.21 21.01 -6.93c-0.08,-0.2 1.91,-7.2 -12.94,-0.82 -7.08,3.04 -4.57,2.64 -13.48,3.48 -50.24,4.77 -30.62,-1.38 -53.61,-5.4 -11.38,-1.99 -20.03,-2.22 -23.06,-12.54 12.24,1.69 24.07,7.29 38.25,5.78 22.68,-2.42 57.48,-0.54 77.43,-12.59 13.98,-8.44 21.72,-3.95 34.7,-12.46 3.16,-0.57 1.5,0.89 4.94,-3.83 1.45,-1.99 2.81,-4.57 4.41,-7.35 -8.34,1.43 -14.94,1.83 -23.22,4.75 -5.11,1.8 -6.38,1.43 -11.54,2.71 -10.45,2.59 -2.04,2.22 -9.52,5.19l-4.77 0.96c-2.19,0.25 -4.22,-0.09 -6.85,0.23 -3.9,0.48 -5.45,1.65 -9.46,2.63 -6.98,1.69 -16.4,0.2 -22.63,2.59 -5.48,2.1 -3.31,3.8 -9.94,5.4l-64.63 0.96c-4.03,-0.54 -11.54,-3.63 -16.39,-3.26 -4.87,0.36 -1.79,0.02 -3.88,1.37z"/>
  <path class="fil6" d="M41.84 67.55l-5.14 10.75c-0.76,5.32 1.05,1.83 20.12,10.12 8.96,3.89 19.46,2.35 29.38,3.66 25.7,3.38 50.74,1.72 71.92,-11.62 15.83,-9.97 22.85,-3.28 32.67,-9.25 13.07,-7.94 7.43,-7.55 30.74,-17.87 11.13,-4.92 6.77,-1.24 10.87,-7.09l-8.81 -7.02c-6.72,-0.07 -13.55,6.75 -18.53,10.11 -24.39,16.47 -33.73,11.83 -43.31,18.14 -10.11,6.67 -13.01,3.13 -22.58,8.19 -11.44,6.05 -9.14,5.59 -24.89,5.28 -10.26,-0.2 -20.32,1.55 -29.36,1.74 -5.1,0.11 -37.82,-11.47 -43.1,-15.15z"/>
  <path class="fil2" d="M36.71 78.3l-3.65 11.59c6.2,4.48 48,12.3 59.54,12.58 23.7,0.58 43.94,-4.6 50.68,-3.55 11.53,1.79 0.54,3.53 14.34,4.45 6.59,-4.84 8.5,-10.6 14.22,-14.69 6.44,-4.6 15.55,-1.67 24.13,-1.6 7.9,-13.73 3.1,-10.69 19.26,-18.45 8.18,-3.93 17.28,-7.18 21.12,-15.65 -1.25,-6.29 0.94,-2.8 -3.93,-6.72 -4.09,5.85 0.26,2.16 -10.87,7.09 -23.31,10.32 -17.68,9.93 -30.74,17.87 -9.82,5.97 -16.84,-0.72 -32.67,9.25 -21.18,13.34 -46.22,15 -71.92,11.62 -9.92,-1.31 -20.42,0.24 -29.38,-3.66 -19.08,-8.29 -20.88,-4.8 -20.12,-10.12z"/>
  <path class="fil2" d="M28.94 114.62l-0.45 3.89c6.13,1.38 10.33,3.29 15.65,4.47 19.8,4.39 3.29,-6.87 29.49,6.41 4.25,2.16 9.07,3.17 13.85,4.08 24.16,4.63 39.44,-3.6 62.72,-5.49 19.04,-1.54 12.23,-3.1 25.94,-9.93 5.59,-2.79 20.49,-4.36 28.65,-7.41 10.25,-3.83 19.58,-4.38 28.78,-7.59 10.4,-3.64 11.5,-10.54 23.11,-12.42l-3.06 -8.93c-13.62,6.39 -10.95,15.6 -29.61,19.12 -12.25,2.31 -36.77,0.33 -43.44,3.01 -6.96,4.61 -3.28,6.33 -9.39,9.5l-28.52 7.12c-6.19,-0.21 -4.58,-2.09 -8.51,-6.85 -5.91,0.99 -6.97,1.99 -12.08,4.31 -3.41,1.55 -3.94,1.65 -6.34,3.08 -0.7,0.41 -4.34,2.84 -4.39,2.86 -10.17,4.22 -34.88,-10.26 -53.85,-7.41 -11.47,1.73 -18.81,-1.19 -28.55,-1.84z"/>
  <path class="fil2" d="M43.77 64.09l-1.93 3.46c5.27,3.68 37.99,15.26 43.1,15.15 9.04,-0.19 19.11,-1.94 29.36,-1.74 15.75,0.31 13.45,0.77 24.89,-5.28 9.57,-5.06 12.46,-1.52 22.58,-8.19 9.58,-6.31 18.93,-1.67 43.31,-18.14 4.98,-3.36 11.8,-10.18 18.53,-10.11 -2.81,-6.79 -0.78,-4.01 -6.38,-6.86 -12.6,0.63 -33.33,7.31 -41.78,16.37 -13.68,14.68 -17.21,8.69 -37.82,18.11 -30.4,13.88 -24.36,6.6 -46.73,4.82 -15.93,-1.27 -9.93,4.97 -25.59,-2.5 -4.56,-2.18 -16.02,-4.28 -21.54,-5.08z"/>
  <path class="fil7" d="M189.84 229.82c19.28,-6.63 37.54,-21.1 47.29,-34.56 -12.98,8.5 -20.72,4.01 -34.7,12.46 -19.95,12.05 -54.75,10.17 -77.43,12.59 -14.17,1.51 -26.01,-4.09 -38.25,-5.78 3.02,10.33 11.68,10.56 23.06,12.54 22.99,4.01 3.36,10.17 53.61,5.4 8.91,-0.84 6.4,-0.44 13.48,-3.48 14.85,-6.38 12.86,0.63 12.94,0.82z"/>
  <path class="fil6" d="M117.92 174.52c-3.61,3.19 -4.08,2.94 -9.94,0.95 -5.05,-4.24 -3.78,-3.46 -7.34,1.73 8.99,8.59 68.91,2.87 81.05,0.28l0.81 -4.04 6.36 -2.07c6.88,-2.38 12.06,-3.72 19.37,-4.5 4.98,-0.53 7.46,-0.51 11.19,-1.84 5.16,-1.84 5.88,-1.5 5.8,-5.18l-2.38 -4.33c5.95,-2.04 3.36,-2.77 9.23,-0.19l28.45 -0.43 1.94 -12.08 -0.35 -8.56c-20.53,13.03 -26.08,8.63 -32.89,11.39 -11.33,4.6 5.63,4.3 -23.01,11.39 -2.41,0.59 -3.75,1.31 -4.24,1.45 -5.44,1.58 -0.97,0.92 -6.53,1.28 -6.33,0.41 -0.17,-2.8 -9.19,0.88 -1.5,0.61 -5,3.1 -6.94,3.96l-61.42 9.91z"/>
  <path class="fil2" d="M103.32 14.9c-8.12,1.37 -16.59,6.33 -21.31,10.11 5.97,7.81 13.25,8.69 23.8,10.87 16.52,3.43 21.75,-3.17 33.44,-1.42 28.92,4.33 13.07,1.96 45.73,-13.94l5.99 -4.2 -12.39 -2.57c-29.44,-1.33 -16.83,9.4 -39,9.26 -2.48,-4.87 -0.13,-2.18 -3.61,-6.42 -11.29,0.24 -10.61,4.89 -18.16,5.13 -7.41,0.23 -9.67,-4.8 -14.48,-6.82z"/>
  <path class="fil8" d="M48.86 56.02c10.7,1.44 17.57,7.66 25.46,7.35 12.29,-0.48 12.48,-4.4 28.31,-0.94 14.55,3.18 12.98,3.69 26.52,-0.41 8.08,-2.45 16.17,-4.22 19.5,-11.21 -15.54,-14.32 -22.31,9.99 -43.56,1.85l-42.11 -12.89c-8.02,5.24 -9.39,8.99 -14.13,16.25z"/>
  <path class="fil7" d="M103.32 14.9c4.81,2.01 7.07,7.05 14.48,6.82 7.55,-0.24 6.87,-4.89 18.16,-5.13 3.48,4.24 1.13,1.56 3.61,6.42 22.17,0.14 9.56,-10.58 39,-9.26 -6.55,-6.18 -22.89,-5.77 -32.53,-6.6l-3.79 0.26c-12.65,-0.02 -30.25,1.2 -38.93,7.5z"/>
  <path class="fil2" d="M27.64 143.27c0.57,0.25 1.38,-0.09 1.76,0.63 1.03,1.95 53.94,6.5 67.26,0.71 -19.43,0.86 -18.08,-4.85 -34.68,-5.42 -6.63,-0.23 -11.82,-0.03 -17.29,-2.53 -6.48,-2.97 -6.53,-4.92 -15.25,-4.68 0.1,0.62 1.15,6.4 1.13,6.58 -0.49,5.9 1.96,1.94 -2.93,4.71z"/>
  <path class="fil2" d="M252.11 73.06c-0.47,-0.38 -2.11,-1.44 -3.41,-3.24 -2.15,-2.99 -1.17,-1.69 -2.45,-4.86 -16.32,4.04 -4.62,7.97 -17.6,13.4 -8.07,3.38 -14.58,1.84 -19.15,12.5 7.12,0.44 20.74,-0.8 25.61,-4.07 4.56,-3.06 5.3,-7.42 10.75,-10.79l6.25 -2.94z"/>
  <path class="fil9" d="M253.61 81.7l3.06 8.93 4.44 8.86c7.09,-3.09 13.05,-7.73 12.19,-18.52 -6.76,-4.35 -11.34,-5.06 -21.21,-7.9 0.26,6.69 -1.03,1.4 1.51,8.64z"/>
  <path class="fil9" d="M27.64 143.27c4.89,-2.77 2.44,1.19 2.93,-4.71 0.01,-0.18 -1.04,-5.96 -1.13,-6.58l-0.85 -10.29c-5.61,3.93 -9.39,5.57 -9.29,15.44l8.34 6.14z"/>
  <path class="fil7" d="M181.7 177.47c4.28,5.08 12.33,2.6 13.95,-5.86l-6.78 -0.25 -6.36 2.07 -0.81 4.04z"/>
  <path class="fil8" d="M206.68 25.71l-6.08 -3.77c-6.46,-0.57 -7.21,-0.49 -10.51,5.4 3.76,1.69 12.72,0.58 16.59,-1.63z"/>
  <path class="fil7" d="M225.23 159.85l7.13 -0.24 -0.28 -4.28c-5.87,-2.57 -3.28,-1.84 -9.23,0.19l2.38 4.33z"/>
  <path class="fil7" d="M107.98 175.47c5.85,1.99 6.32,2.23 9.94,-0.95 -0.88,-1.07 2.58,-4.11 -5.32,-2.92 -5.71,0.86 -2.84,1.27 -4.61,3.87z"/>
  <polygon class="fil10" points="142.25,7.41 146.04,7.15 145.88,0 141.34,1.29 "/>
 </g>
</svg>
