<?xml version="1.0" encoding="UTF-8"?>
<!DOCTYPE svg PUBLIC "-//W3C//DTD SVG 1.1//EN" "http://www.w3.org/Graphics/SVG/1.1/DTD/svg11.dtd">
<!-- Creator: CorelDRAW 2020 (64 Bit) -->
<svg xmlns="http://www.w3.org/2000/svg" xml:space="preserve" width="40.6672mm" height="32.6507mm" version="1.1" style="shape-rendering:geometricPrecision; text-rendering:geometricPrecision; image-rendering:optimizeQuality; fill-rule:evenodd; clip-rule:evenodd"
viewBox="0 0 18396.64 14770.21"
 xmlns:xlink="http://www.w3.org/1999/xlink"
 xmlns:xodm="http://www.corel.com/coreldraw/odm/2003">
 <defs>
  <style type="text/css">
   <![CDATA[
    .fil0 {fill:#F5D23B}
   ]]>
  </style>
 </defs>
 <g id="Camada_x0020_1">
  <metadata id="CorelCorpID_0Corel-Layer"/>
  <g id="_2253642537984">
   <path class="fil0" d="M17958.56 10944.02l-172.72 61.88c-6.42,2.94 -18.5,8.96 -26.87,14.79l165.61 104.32 -39.36 254.41c137.97,-69.08 110.97,-80.21 223.52,-135.98l214.83 108.43c-19.18,-384.24 -122.55,-109.88 73.06,-465.76l-245.09 25.56 -98.89 -189.41 -94.09 221.75z"/>
   <path class="fil0" d="M199.59 221.75l-172.72 61.88c-6.42,2.94 -18.5,8.96 -26.87,14.79l165.61 104.32 -39.36 254.41c137.97,-69.08 110.97,-80.21 223.52,-135.98l214.83 108.43c-19.18,-384.24 -122.55,-109.88 73.06,-465.76l-245.09 25.56 -98.89 -189.41 -94.09 221.75z"/>
   <path class="fil0" d="M5572.53 1756.28l-172.72 61.88c-6.42,2.94 -18.5,8.96 -26.87,14.79l165.61 104.32 -39.36 254.41c137.97,-69.08 110.97,-80.21 223.52,-135.98l214.83 108.43c-19.18,-384.24 -122.55,-109.88 73.06,-465.76l-245.09 25.56 -98.89 -189.41 -94.09 221.75z"/>
   <path class="fil0" d="M7593.4 4648.29l-172.72 61.88c-6.42,2.94 -18.5,8.96 -26.87,14.79l165.61 104.32 -39.36 254.41c137.97,-69.08 110.97,-80.21 223.52,-135.98l214.83 108.43c-19.18,-384.24 -122.55,-109.88 73.06,-465.76l-245.09 25.56 -98.89 -189.41 -94.09 221.75z"/>
   <path class="fil0" d="M10420.04 7908.34l-172.72 61.88c-6.42,2.94 -18.5,8.96 -26.87,14.79l165.61 104.32 -39.36 254.41c137.97,-69.08 110.97,-80.21 223.52,-135.98l214.83 108.43c-19.18,-384.24 -122.55,-109.88 73.06,-465.76l-245.09 25.56 -98.89 -189.41 -94.09 221.75z"/>
   <path class="fil0" d="M9653.99 11379.38l-172.72 61.88c-6.42,2.94 -18.5,8.96 -26.87,14.79l165.61 104.32 -39.36 254.41c137.97,-69.08 110.97,-80.21 223.52,-135.98l214.83 108.43c-19.18,-384.24 -122.55,-109.88 73.06,-465.76l-245.09 25.56 -98.89 -189.41 -94.09 221.75z"/>
   <path class="fil0" d="M15302.92 14334.81l-172.72 61.88c-6.42,2.94 -18.5,8.96 -26.87,14.79l165.61 104.32 -39.36 254.41c137.97,-69.08 110.97,-80.21 223.52,-135.98l214.83 108.43c-19.18,-384.24 -122.55,-109.88 73.06,-465.76l-245.09 25.56 -98.89 -189.41 -94.09 221.75z"/>
  </g>
 </g>
</svg>
