<?xml version="1.0" encoding="UTF-8"?>
<!DOCTYPE svg PUBLIC "-//W3C//DTD SVG 1.1//EN" "http://www.w3.org/Graphics/SVG/1.1/DTD/svg11.dtd">
<!-- Creator: CorelDRAW 2020 (64 Bit) -->
<svg xmlns="http://www.w3.org/2000/svg" xml:space="preserve" width="9.0207mm" height="8.9152mm" version="1.1" style="shape-rendering:geometricPrecision; text-rendering:geometricPrecision; image-rendering:optimizeQuality; fill-rule:evenodd; clip-rule:evenodd"
viewBox="0 0 93.34 92.25"
 xmlns:xlink="http://www.w3.org/1999/xlink"
 xmlns:xodm="http://www.corel.com/coreldraw/odm/2003">
 <defs>
  <style type="text/css">
   <![CDATA[
    .str0 {stroke:#F8AA48;stroke-width:0.79;stroke-miterlimit:22.9256}
    .fil3 {fill:#D78735}
    .fil4 {fill:#F0902F}
    .fil2 {fill:#F3904C}
    .fil1 {fill:#F8AA48}
    .fil0 {fill:#F8AA48}
   ]]>
  </style>
 </defs>
 <g id="Camada_x0020_1">
  <metadata id="CorelCorpID_0Corel-Layer"/>
  <ellipse class="fil0 str0" cx="46.67" cy="46.09" rx="46.28" ry="45.69"/>
  <path class="fil1" d="M42.02 57.8c1.08,-0.76 -0.33,-0.28 1.69,-0.75l4.96 -0.39c2.65,-0.38 3.13,-1.08 5.17,-2.58 5.31,-3.93 6.92,-1.67 13.35,-2.33 11.23,-1.15 16.61,-10.5 20.48,-10 -0.29,2.97 -4.53,6.72 -7.37,9.03 -12.14,9.92 -12.49,-0.97 -26.26,7.94 -2.97,1.92 -10.1,2.97 -12.03,-0.92zm-39.1 -25.65c1.91,4.01 4.2,4.67 9.3,6.18 3.84,1.14 6.94,2.4 11.15,2.68 14.33,0.96 6.08,1.84 11.57,3.37 4.49,1.25 6.87,-1.51 12.85,1.15 -0.89,6.31 -7.27,2.3 -12.15,5.17 2.83,-0.94 2.89,2.23 3.17,3.21 -9.58,0.91 -8.26,-2.75 -9.39,-4.66 -3.43,-5.85 -7.15,2.21 -19.33,-5.31 -3.13,-1.93 -5.72,-1.24 -8.47,-3.7l-0.43 4.7c2.37,1.04 2.79,1.7 5.07,2.93 1.88,1.01 3.41,1.16 5.51,2.16 5.58,2.68 3.78,4.08 11.58,4.32 15.28,0.46 11.03,7.92 20.68,9.74 10.42,1.96 14.62,-3.58 25.79,-3.98 5.13,-0.18 8.2,-0.89 11.93,-3.58 4.01,-2.89 6.44,-3.23 9.88,-5.74l0.05 -13.38 -1.15 -1.7c-2.43,1.57 -1.91,0.38 -4.89,3.01 -6.4,5.65 -5.06,1.09 -9.51,4.35 -10.25,7.49 -5.63,-0.66 -16.04,4.34 -4.4,2.12 -3.7,4.31 -10.13,3.6 0.64,-5.81 -0.28,-0.96 2.59,-4.31 1.27,-1.48 0.59,-0.8 1.56,-3.5 6.72,-1.2 11.4,-4.31 17.16,-3.68l0.61 -3.14c-3.64,0.62 -5.46,1.88 -8.57,2.38 -4.02,0.64 -6.61,-0.31 -10.2,0.07 -10.26,1.09 -5.85,3.58 -17.23,-0.65 -5.91,-2.2 -13.12,-0.73 -18.77,-2.28 -4.22,-1.16 -8.98,-4.93 -13.28,-6.7l-0.93 2.94z"/>
  <path class="fil1" d="M25.23 4.88c-4.08,1.37 -7.67,3.78 -9.12,6.78l5.17 3.63c3.78,2.66 4.98,1.7 7.47,2.99 2.94,1.51 0.84,0.63 3.29,3.55 8.31,0.7 8.32,-0.67 10.32,2.36 -7.63,2.89 -11.72,-3.84 -16.62,-0.55 4.18,4.05 14.09,4.99 20.93,1.49 4.7,-2.41 6.19,-1.01 10.79,-2.43 3.87,-1.19 6.32,-2.76 10.58,-0.81 -1.11,3.35 -1.62,1.24 -6.12,3.47 -2.1,1.04 -3.64,2.54 -5.96,3.67 -4.76,2.31 -11.45,0.38 -16.89,1.14 -14.25,1.98 -19.14,-3.88 -32.43,-6.76l-0.59 1.73c9.43,10.23 54.75,14.83 72.8,3.23 1.34,-0.86 2.29,-1.52 3.77,-2.43 2.9,-1.78 2.42,-0.04 2.84,-4.11 -0.11,-1.29 0.79,-1.61 -0.65,-0.82 -7.52,-0.55 -12.09,12.19 -19.09,7.34 2,-0.84 4.99,-1.12 6.92,-2.76 3.09,-2.64 0.86,-3.33 1.85,-7.79l6.2 -1.81c-0.57,-1.79 0.86,-0.3 -1.5,-2.6 -1.57,-1.53 -1.17,-0.95 -2.57,-1.51 -3.86,1.39 -7.42,4.32 -11.98,5.85 -2.54,0.85 -4.62,0.55 -7.45,1.18 -3.4,0.75 -3.66,2.03 -7.51,2.17 -2.98,0.11 -13.8,-1.79 -15.7,-2.87 -2.72,-1.55 -1.12,-2.65 -4.8,-3.66 -4.35,-1.2 -4.86,0.58 -5.97,-4.22 10.57,-0.06 23.02,9 38.27,1.59 3.96,-1.92 1.01,-1.94 4.25,-3.76 1.72,-0.97 2.96,-0.13 4.07,-1.22l-5.09 -2.56c-2.72,1.07 -5.37,3.22 -8.05,3.77 -3.57,0.73 -6.8,-0.34 -10.44,-0 -14.9,1.4 -4.29,-1.45 -19.27,-1.08l-1.74 -2.15z"/>
  <path class="fil1" d="M1.3 55.21c9.34,0.26 6.52,4.94 22.17,8.38 10.55,2.32 5.05,1.73 10.75,4.24 3.38,1.48 7.5,1.23 10.81,2.76 -8.05,3.54 -14.23,-1.1 -20.85,-2.82l-20.33 -4.13 2.71 5.42c6.52,-0.87 14.1,1.39 19.59,3.39 10.09,3.66 10.48,3.35 21.09,1.38 4.3,-0.8 5.78,-0.63 9.89,-2.38 4.47,-1.91 4.36,-2.25 10.05,-2.26 11.99,-0.02 13.52,-5.14 20.7,-3.16l0.85 -3.94c-0.45,-2.26 0.3,-0.59 -0.88,-1.89l-2.78 1.38c-1.13,0.4 -1.46,0.51 -2.72,0.74 -2.15,0.4 -4.24,0.27 -6.42,0.4 -11.34,0.7 -23.69,8.57 -35.44,4.31 -9,-3.26 -8.26,-7.37 -19.74,-8.5 -13.69,-1.34 -10.86,-7.85 -20.28,-8.02l0.84 4.69z"/>
  <path class="fil2" d="M6.64 23.4c13.29,2.88 18.18,8.74 32.43,6.76 5.44,-0.75 12.13,1.17 16.89,-1.14 2.32,-1.13 3.86,-2.63 5.96,-3.67 4.5,-2.23 5.01,-0.12 6.12,-3.47 -4.25,-1.95 -6.71,-0.38 -10.58,0.81 -4.6,1.42 -6.09,0.02 -10.79,2.43 -6.84,3.5 -16.75,2.56 -20.93,-1.49 4.9,-3.29 8.99,3.44 16.62,0.55 -2.01,-3.03 -2.02,-1.67 -10.32,-2.36 -2.46,-2.92 -0.36,-2.04 -3.29,-3.55 -2.49,-1.28 -3.69,-0.33 -7.47,-2.99l-5.17 -3.63c-4.1,1.95 -7.56,6.61 -9.47,11.74z"/>
  <path class="fil3" d="M0.47 50.52c9.42,0.17 6.59,6.68 20.28,8.02 11.48,1.12 10.74,5.24 19.74,8.5 11.75,4.25 24.1,-3.62 35.44,-4.31 2.19,-0.14 4.27,-0.01 6.42,-0.4 1.26,-0.23 1.59,-0.34 2.72,-0.74l2.78 -1.38c1.18,1.29 0.43,-0.37 0.88,1.89 0.77,-0.86 0.49,-0.22 1.15,-1.68 0.23,-0.52 0.73,-2.25 0.84,-2.74 0.53,-2.36 0.71,-4.46 0.92,-6.87 -3.44,2.5 -5.88,2.85 -9.88,5.74 -3.73,2.69 -6.8,3.4 -11.93,3.58 -11.17,0.4 -15.38,5.94 -25.79,3.98 -9.65,-1.82 -5.4,-9.28 -20.68,-9.74 -7.8,-0.23 -6,-1.64 -11.58,-4.32 -2.1,-1.01 -3.63,-1.15 -5.51,-2.16 -2.29,-1.23 -2.7,-1.89 -5.07,-2.93l0.43 -4.7c-0.29,0.41 -0.54,0.34 -0.89,1.88 -0.23,1.02 -0.24,1.46 -0.3,2.49 -0.1,1.73 0.02,4.12 0.03,5.92z"/>
  <path class="fil1" d="M12.28 76.2c0.58,1.61 -1.06,-0.06 1.12,2.08 2.22,2.17 0.27,0.5 2.15,1.23 4.41,1.92 5.42,1.97 10.88,1.67 7.36,-0.4 5.88,1.2 10.92,1.17 5.93,-0.03 5.71,-0.35 11.08,2.12 5.6,2.57 2.93,3.61 6.75,6.67l3.98 -0.65c-0.04,-3.7 0.47,-0.52 0.53,-4.24l-6.03 -2.88c3.1,-3.75 9.37,-2.8 14.13,-4.1 3.41,-0.93 10.3,-2.86 13.3,-3.07 1.71,0.5 2.21,-1.97 2.98,-3.75 -11.28,0.84 -18.54,-0.93 -28.97,3.87 -14.61,6.72 -16.79,1.82 -25.77,-0.18 -3.04,-0.68 -10.64,-2.01 -13.69,-1.59 -3.05,0.43 -2.19,0.48 -3.36,1.64z"/>
  <path class="fil3" d="M6.06 25.13c-0.62,0.66 -0.73,0.44 -1.36,1.69 -0.67,1.33 -0.37,0.88 -0.85,2.39 4.3,1.77 9.06,5.54 13.28,6.7 5.65,1.56 12.85,0.09 18.77,2.28 11.39,4.23 6.97,1.74 17.23,0.65 3.59,-0.38 6.18,0.57 10.2,-0.07 3.11,-0.5 4.93,-1.76 8.57,-2.38l-0.61 3.14c4.08,0.88 4.86,0.56 7.01,-1.64 1.44,-6.1 -1.24,-3.67 3.55,-6.58 2.61,-1.59 3.71,-2.5 4.92,-4.72l2.32 2.02c-1.17,-3.34 -1.26,-4.62 -3.63,-6.8 -0.43,4.07 0.05,2.33 -2.84,4.11 -1.48,0.91 -2.43,1.56 -3.77,2.43 -18.05,11.61 -63.37,7 -72.8,-3.23z"/>
  <path class="fil2" d="M6.56 69.06c0.88,1.9 1.3,2.85 2.3,4.12 1.43,1.81 1.99,2.09 3.42,3.02 1.17,-1.16 0.3,-1.21 3.36,-1.64 3.05,-0.43 10.65,0.91 13.69,1.59 8.97,2 11.16,6.91 25.77,0.18 10.43,-4.8 17.69,-3.03 28.97,-3.87 0.34,-0.28 0.33,-0.05 1.12,-1.11 0.19,-0.25 0.86,-1.36 0.97,-1.54 0.7,-1.27 1.14,-2.33 1.72,-3.77 -7.17,-1.98 -8.71,3.14 -20.7,3.16 -5.69,0.01 -5.58,0.35 -10.05,2.26 -4.11,1.75 -5.59,1.59 -9.89,2.38 -10.61,1.96 -11,2.28 -21.09,-1.38 -5.49,-1.99 -13.07,-4.25 -19.59,-3.39z"/>
  <path class="fil4" d="M1.62 40.24c2.75,2.46 5.33,1.76 8.47,3.7 12.18,7.52 15.89,-0.54 19.33,5.31 1.12,1.92 -0.2,5.57 9.39,4.66 -0.28,-0.98 -0.33,-4.15 -3.17,-3.21 4.88,-2.87 11.25,1.14 12.15,-5.17 -5.97,-2.66 -8.35,0.11 -12.85,-1.15 -5.49,-1.53 2.76,-2.41 -11.57,-3.37 -4.22,-0.28 -7.31,-1.54 -11.15,-2.68 -5.1,-1.51 -7.39,-2.17 -9.3,-6.18 -1.1,2.63 -1.69,4.85 -1.3,8.09z"/>
  <path class="fil3" d="M76.62 11.85c-1.56,-2.93 -3.45,-3.62 -6.81,-4.94 -1.11,1.08 -2.35,0.25 -4.07,1.22 -3.24,1.81 -0.29,1.83 -4.25,3.76 -15.25,7.41 -27.7,-1.64 -38.27,-1.59 1.11,4.8 1.62,3.02 5.97,4.22 3.68,1.01 2.07,2.11 4.8,3.66 1.9,1.08 12.72,2.98 15.7,2.87 3.85,-0.14 4.1,-1.42 7.51,-2.17 2.82,-0.63 4.91,-0.33 7.45,-1.18 4.57,-1.52 8.12,-4.45 11.98,-5.85z"/>
  <path class="fil4" d="M78.3 37.9c-2.15,2.2 -2.93,2.52 -7.01,1.64 -5.77,-0.64 -10.44,2.48 -17.16,3.68 -0.97,2.7 -0.3,2.01 -1.56,3.5 -2.87,3.35 -1.95,-1.5 -2.59,4.31 6.43,0.71 5.73,-1.48 10.13,-3.6 10.42,-5.01 5.8,3.15 16.04,-4.34 4.46,-3.26 3.11,1.3 9.51,-4.35 2.98,-2.63 2.46,-1.44 4.89,-3.01l1.15 1.7c-0.74,-3.29 -1,-6.08 -2.72,-8.42 -0.24,4.82 0.8,-0.17 -3.69,3.9 -1.74,1.58 -4.28,5.29 -6.98,5z"/>
  <path class="fil4" d="M25.23 4.88l1.74 2.15c14.98,-0.37 4.37,2.48 19.27,1.08 3.63,-0.34 6.86,0.73 10.44,0 2.68,-0.55 5.33,-2.7 8.05,-3.77 -3.04,-1.93 -7.57,-2.72 -11.93,-3.62 -5.67,1.51 -10.21,3.47 -15.18,0.17l-12.39 3.99z"/>
  <path class="fil4" d="M3.85 63.63l20.33 4.13c6.62,1.73 12.81,6.36 20.85,2.82 -3.31,-1.53 -7.43,-1.27 -10.81,-2.76 -5.69,-2.5 -0.2,-1.91 -10.75,-4.24 -15.66,-3.45 -12.83,-8.12 -22.17,-8.38l2.54 8.42z"/>
  <path class="fil3" d="M26.2 86.74c0.09,-0.08 0.37,-3.28 6.72,-0.81 4.26,1.66 3.92,1.43 9.41,1.18 0.65,1.92 1.45,3.13 2.22,4.37 2.02,0.07 4.92,0.77 5.25,0.77 2.32,-0.02 -0.58,0.08 2.04,-0.55 1.6,-0.39 1.58,-0.4 3.35,-0.56 -3.81,-3.06 -1.15,-4.1 -6.75,-6.67 -5.38,-2.47 -5.16,-2.15 -11.08,-2.12 -5.04,0.03 -3.56,-1.57 -10.92,-1.17 -5.46,0.3 -6.47,0.25 -10.88,-1.67 2.43,3.06 6.29,5.81 10.65,7.23z"/>
  <path class="fil2" d="M42.02 57.8c1.93,3.89 9.06,2.84 12.03,0.92 13.77,-8.91 14.11,1.98 26.26,-7.94 2.83,-2.31 7.08,-6.07 7.37,-9.03 -3.86,-0.49 -9.25,8.85 -20.48,10 -6.42,0.66 -8.03,-1.6 -13.35,2.33 -2.04,1.51 -2.51,2.2 -5.17,2.58l-4.96 0.39c-2.03,0.47 -0.61,-0.01 -1.69,0.75z"/>
  <path class="fil4" d="M59.16 90.49l7.1 -2.72c-0.26,-3.77 0.52,-0.97 -0.99,-3.68 2.6,-1.12 6.02,-1.83 8.47,-0.92 3.85,-1.54 5.58,-4.03 7.35,-6.96 -3,0.21 -9.89,2.14 -13.3,3.07 -4.76,1.3 -11.03,0.35 -14.13,4.1l6.03 2.88c-0.06,3.73 -0.57,0.54 -0.53,4.24z"/>
  <path class="fil2" d="M84.82 21c-1.48,-3.72 -0.96,-3.17 -4.12,-5.03l-6.2 1.81c-0.99,4.46 1.24,5.14 -1.85,7.79 -1.92,1.65 -4.92,1.92 -6.92,2.76 7,4.86 11.57,-7.88 19.09,-7.34z"/>
  <path class="fil1" d="M26.2 86.74l11.58 4.04 6.77 0.7c-0.77,-1.24 -1.57,-2.45 -2.22,-4.37 -5.49,0.25 -5.15,0.48 -9.41,-1.18 -6.35,-2.48 -6.62,0.73 -6.72,0.81z"/>
  <path class="fil1" d="M78.3 37.9c2.7,0.29 5.25,-3.42 6.98,-5 4.49,-4.08 3.44,0.91 3.69,-3.9l0.13 -0.38 -2.32 -2.02c-1.21,2.23 -2.31,3.14 -4.92,4.72 -4.79,2.91 -2.12,0.48 -3.55,6.58z"/>
  <path class="fil1" d="M66.26 87.77c3.14,-1 6.27,-2.26 7.48,-4.6 -2.45,-0.91 -5.88,-0.2 -8.47,0.92 1.51,2.72 0.72,-0.08 0.99,3.68z"/>
 </g>
</svg>
