<?xml version="1.0" encoding="UTF-8"?>
<!DOCTYPE svg PUBLIC "-//W3C//DTD SVG 1.1//EN" "http://www.w3.org/Graphics/SVG/1.1/DTD/svg11.dtd">
<!-- Creator: CorelDRAW 2020 (64 Bit) -->
<svg xmlns="http://www.w3.org/2000/svg" xml:space="preserve" width="8.3768mm" height="10.3005mm" version="1.1" style="shape-rendering:geometricPrecision; text-rendering:geometricPrecision; image-rendering:optimizeQuality; fill-rule:evenodd; clip-rule:evenodd"
viewBox="0 0 43.11 53.01"
 xmlns:xlink="http://www.w3.org/1999/xlink"
 xmlns:xodm="http://www.corel.com/coreldraw/odm/2003">
 <defs>
  <style type="text/css">
   <![CDATA[
    .str0 {stroke:black;stroke-width:1.29;stroke-miterlimit:22.9256}
    .fil0 {fill:black}
   ]]>
  </style>
 </defs>
 <g id="Camada_x0020_1">
  <metadata id="CorelCorpID_0Corel-Layer"/>
  <g id="_2279510822112">
   <path class="fil0 str0" d="M13.27 4.79c0,0.54 0.1,0.88 0.2,1.31 -1.41,-0.68 -3.35,-0.24 -4.52,0.93 -0.37,0.37 -0.59,0.63 -0.83,1.09 -0.98,1.88 0.09,4.53 0.66,6.81 0.64,2.55 1.88,7.22 2.36,9.56 0.31,1.52 0.71,3.47 0.71,5.25 -1.96,-1.31 -2.14,-3.54 -6.36,-3.54 -1.28,0 -2.48,0.63 -3.2,1.24 -0.4,0.33 -0.81,0.69 -1.08,1.15 -0.58,1 -0.57,1.39 -0.57,2.46 0,1.56 1.03,2.4 1.84,3.21 4.14,4.14 6.78,6.11 8.95,11.56 0.95,2.38 2.6,4.31 4.86,5.44 1.8,0.9 2.84,1.08 4.26,1.11l2 0c0.43,0 0.81,-0.31 0.81,-0.71 0,-2.13 -4.45,1.22 -9.12,-4.02 -0.85,-0.95 -1.32,-2.33 -1.78,-3.48 -1.68,-4.21 -5.03,-7.17 -8.12,-10.26 -1.06,-1.06 -3.43,-2.84 -1.48,-4.87l0.47 -0.44c0.47,-0.4 1.62,-0.88 2.45,-0.88 4.27,0 5.2,6.3 10.71,6.26 2.3,-0.01 4.99,0.6 6.54,2.04 1.74,1.62 2.42,2.84 3.01,5.47 0.18,0.8 0.16,1.29 0.27,2.15 0.09,0.67 -0.04,1.75 0.78,1.75 0.99,0 0.81,-0.91 0.81,-1.52 0,-6.11 -3.86,-11.08 -10.1,-11.42 -0.55,-0.03 -0.92,-0.1 -1.62,-0.1 -0.66,0.01 -1.07,-0.07 -1.55,-0.27 -1.83,-0.78 -0.87,-0.75 -1.32,-4.03 -0.77,-5.56 -2.4,-10.61 -3.66,-16.14 -0.25,-1.09 -0.64,-1.83 -0.21,-2.95 0.83,-2.15 3.87,-1.88 4.58,-0.41l4.47 17.15c-0.39,0 -1.41,-0.02 -1.41,0.81 0,1.07 1.83,0.81 2.83,0.81 1.3,0 1.11,-1.1 0.78,-1.39 -0.57,-0.5 -0.41,0.47 -0.94,-1.68l-3.54 -13.74c-0.36,-1.44 -1.35,-4.64 -1.35,-5.92 0,-2.17 3.38,-3.51 4.85,-1.11 0.28,0.47 1.16,4.02 1.4,4.97 0.23,0.93 0.17,1.29 1.13,1.29 1.19,0 0.17,-2.61 -0.04,-3.3 -0.27,-0.93 -0.41,-1.82 -0.71,-2.73 -0.63,-1.93 -2.06,-2.92 -3.57,-3.07l-0.8 0c-0.98,0.09 -1.94,0.53 -2.7,1.29 -0.61,0.62 -1.19,1.67 -1.19,2.86z"/>
   <path class="fil0 str0" d="M25.49 18.83c-0.08,-0.12 -0.02,0.01 -0.09,-0.21l-1.44 -5.53c-0.25,-0.99 -0.19,-1.54 -1.19,-1.54 -0.29,0 -0.61,0.42 -0.61,0.71 0,0.45 0.19,0.9 0.28,1.23l1.94 7.56c0.5,2.02 0.3,2.24 0.3,4.65 -1.69,0 -1.24,1.62 -0.3,1.62l2.12 0c1,0 1.43,-1.62 -0.3,-1.62 0,-4 -0.22,-2.45 0.61,-5.76l3.38 -13.09c0.38,-1.32 0.64,-3.68 2.99,-3.68 0.63,0 1.44,0.42 1.79,0.73 1.4,1.26 0.62,3.03 0.23,4.52 -1.42,5.38 -2.78,11.28 -4.23,16.58 -0.03,0.11 -0.07,0.27 -0.08,0.32 -0.11,0.34 0.06,0.13 -0.18,0.32 -0.32,0.25 -0.86,0.04 -0.86,0.86 0,1.09 1.48,0.81 2.93,0.81 1.03,0 1.47,-1.62 -0.3,-1.62 0.01,-0.42 0.19,-0.99 0.29,-1.33l3.1 -11.95c0.29,-1.15 0.21,-1.63 1.21,-2.12 2.15,-1.05 3.88,0.76 3.88,2.16 0,1.74 -3.64,13.87 -3.64,17.38 0,1.03 -0.18,3.54 0.2,3.94 0.19,0.2 0.27,0.2 0.61,0.2 1.28,0 0.45,-2.69 0.85,-5.41 0.28,-1.92 0.74,-3.45 1.13,-5.24 0.16,-0.75 2.37,-9.7 2.37,-10.36l0 -0.71c0,-1.9 -1.94,-3.84 -3.84,-3.84 -1.45,0 -1.11,0.14 -1.82,0.2 0.38,-1.63 0.51,-1.53 0.51,-3.13 0,-1.92 -1.93,-3.84 -3.84,-3.84l-0.61 0c-1.63,0 -3.07,1.31 -3.55,2.51 -0.49,1.21 -2.03,7.89 -2.57,9.75l-1.25 4.91z"/>
   <path class="fil0 str0" d="M25.19 51.56c0,0.49 0.32,0.81 0.81,0.81l3.39 0c1.11,-0.07 2.15,-0.29 3.74,-0.95 0.7,-0.29 2.24,-1.4 2.79,-1.96 1.64,-1.64 2.91,-4.26 2.91,-6.69l0 -6.26c0,-0.67 -1.5,-1.07 -1.52,0.29 -0.07,3.67 0.64,7.7 -1.79,10.73 -4.36,5.44 -10.32,2 -10.32,4.02z"/>
  </g>
 </g>
</svg>
